<svg width="1025.064" height="364.411" viewBox="0 0 271.215 96.417" xmlns="http://www.w3.org/2000/svg"><defs><linearGradient x1="0" y1="0" x2="1" y2="0" gradientUnits="userSpaceOnUse" gradientTransform="scale(-90.4633 90.4633) rotate(-89.901 .534 3.046)" spreadMethod="pad" id="a"><stop style="stop-opacity:1;stop-color:#fff" offset="0"/><stop style="stop-opacity:1;stop-color:#fff" offset=".529"/><stop style="stop-opacity:0;stop-color:#fff" offset="1"/></linearGradient><linearGradient x1="0" y1="0" x2="1" y2="0" gradientUnits="userSpaceOnUse" gradientTransform="scale(-90.87608 90.87608) rotate(-89.901 .636 2.704)" spreadMethod="pad" id="b"><stop style="stop-opacity:1;stop-color:#fff" offset="0"/><stop style="stop-opacity:1;stop-color:#fff" offset=".529"/><stop style="stop-opacity:0;stop-color:#fff" offset="1"/></linearGradient><linearGradient x1="0" y1="0" x2="1" y2="0" gradientUnits="userSpaceOnUse" gradientTransform="scale(-90.4633) rotate(89.901 -1.104 -4.68)" spreadMethod="pad" id="c"><stop style="stop-opacity:1;stop-color:#fff" offset="0"/><stop style="stop-opacity:1;stop-color:#fff" offset=".529"/><stop style="stop-opacity:0;stop-color:#fff" offset="1"/></linearGradient><linearGradient x1="0" y1="0" x2="1" y2="0" gradientUnits="userSpaceOnUse" gradientTransform="rotate(-90.099 432.09 -129.462) scale(90.87608)" spreadMethod="pad" id="d"><stop style="stop-opacity:1;stop-color:#fff" offset="0"/><stop style="stop-opacity:1;stop-color:#fff" offset=".529"/><stop style="stop-opacity:0;stop-color:#fff" offset="1"/></linearGradient><linearGradient x1="0" y1="0" x2="1" y2="0" gradientUnits="userSpaceOnUse" gradientTransform="scale(-81.00155 81.00155) rotate(-89.901 -.175 4.458)" spreadMethod="pad" id="e"><stop style="stop-opacity:1;stop-color:#fff" offset="0"/><stop style="stop-opacity:1;stop-color:#fff" offset=".134"/><stop style="stop-opacity:1;stop-color:#fff" offset=".254"/><stop style="stop-opacity:1;stop-color:#fff" offset=".649"/><stop style="stop-opacity:0;stop-color:#fff" offset="1"/></linearGradient><linearGradient x1="0" y1="0" x2="1" y2="0" gradientUnits="userSpaceOnUse" gradientTransform="scale(-138.62333 138.62333) rotate(-89.901 -.322 2.363)" spreadMethod="pad" id="f"><stop style="stop-opacity:1;stop-color:#fff" offset="0"/><stop style="stop-opacity:0;stop-color:#fff" offset="1"/></linearGradient></defs><path style="opacity:.808943;fill:#010007;fill-opacity:1;stroke:none;stroke-width:.264583px;stroke-linecap:butt;stroke-linejoin:miter;stroke-opacity:1" d="M745.674-834.337a8.138 8.138 0 0 1-1.49 2.716 8.747 8.747 0 0 1-2.157 1.868l1.293.003-.012 7.397-1.893-.004.006-3.61h.914a5.273 5.273 0 0 1-1.69-1.42 4.828 4.828 0 0 1-.876-1.828h-.034a5.747 5.747 0 0 1-1.052 1.92 6.188 6.188 0 0 1-1.525 1.319l.913.003-.006 3.611-2.613-.005v.463h.392l-.004 1.517h-.293c-.281 1.008-.767 2.432-1.587 3.84-1.039 1.784-2.142 2.729-2.83 3.21l4.07.007-.006 3.395a8.783 8.783 0 0 1-1.615 2.377 8.81 8.81 0 0 1-2.917 2.018l4.525.008-.004 2.22-6.296-.01a8.819 8.819 0 0 1-1.584 2.415 8.539 8.539 0 0 1-2.829 2.019l2.61.004-.007 3.964c-5.39 1.633-10.595 3.84-15.675 6.302l-3.52-6.2 3.184 2.058-4.292-7.4 3.027 1.319-3.497-6.004 2.436.965-3.582-6.765-3.615 6.765 2.45-.969-3.517 5.991 3.03-1.309-4.315 7.058 3.19-1.72-3.755 6.566 5.515.01.016 3.337c-9.491 5.081-18.584 10.627-27.576 14.686l-3.559-6.269 3.185 2.06-4.291-7.402 3.025 1.32-3.496-6.003 2.436.964-3.582-6.765-3.615 6.765 2.45-.968-3.517 5.99 3.03-1.308-4.315 7.057 3.191-1.72-3.757 6.566 5.516.01-.004 2.605c-8.905 3.047-19.883 4.835-30.078 5.909l-.019-2.404 5.516.01-3.736-6.58 3.185 2.06-4.29-7.401 3.025 1.32-3.496-6.004 2.436.965-3.582-6.765-3.615 6.765 2.45-.969-3.517 5.991 3.03-1.309-4.315 7.058 3.19-1.72-3.756 6.566 5.515.01-.004 2.599c-14.97 1.455-27.606 1.413-27.606 1.413l-.315 21.894h271.215l-.045-17.576s-10.982-.093-25.367-2.89l-.02-2.638 5.515.01-3.734-6.579 3.184 2.06-4.29-7.401 3.025 1.32-3.497-6.004 2.436.964-3.582-6.765-3.615 6.765 2.45-.969-3.516 5.991 3.03-1.309-4.315 7.058 3.19-1.72-3.756 6.566 5.515.01-.004 2.248c-6.203-1.291-12.896-3.04-19.664-5.573-.394-.148-.845-.36-1.247-.517l-.025-3.406 5.515.01-3.735-6.58 3.185 2.06-4.292-7.4 3.027 1.319-3.497-6.003 2.436.963-3.582-6.764-3.615 6.764 2.45-.968-3.517 5.991 3.03-1.31-4.315 7.059 3.19-1.72-3.756 6.566 5.515.01-.004 2.585c-9.724-4.004-21.425-10.187-33.763-16.165l-.023-3.592 5.515.01-3.734-6.579 3.185 2.06-4.292-7.402 3.026 1.32-3.496-6.003 2.436.964-3.583-6.765-3.614 6.765 2.45-.969-3.517 5.992 3.03-1.31-4.315 7.058 3.19-1.72-3.756 6.566 5.42.169-.004 2.43c-10.008-4.789-20.315-9.285-30.188-12.082.004-1.29.005-2.58.007-3.87l2.61.004a8.545 8.545 0 0 1-2.822-2.028v-.006a8.809 8.809 0 0 1-1.576-2.421l-6.296-.012.004-2.22 4.524.007a8.832 8.832 0 0 1-2.81-1.93 8.818 8.818 0 0 1-1.707-2.48l.006-3.395 4.07.007c-.665-.47-1.718-1.377-2.724-3.064-.88-1.475-1.386-2.978-1.67-4.002h-.409l.004-1.517h.528v-.463l-2.633-.005.004-1.654.914.004a5.27 5.27 0 0 1-1.69-1.42 4.827 4.827 0 0 1-.876-1.828h-.034a5.747 5.747 0 0 1-1.052 1.919 6.195 6.195 0 0 1-1.525 1.32l.914.003-.004 1.653-1.893-.004.012-7.397 1.293.004a7.46 7.46 0 0 1-2.39-2.01 6.831 6.831 0 0 1-1.24-2.586zm-9.46 12.429h.385l-.004 1.518h-.385zm1.512.002h.34l-.005 1.517h-.339zm-.757 0h.385l-.004 1.518h-.385zm4.445.007h.346l-.004 1.517h-.346zm.718.003h.37l-.004 1.517h-.37zm.742 0h.433l-.004 1.517h-.433zm5.173.009h.359l-.004 1.518h-.36zm1.473.003h.42l-.004 1.517h-.42zm-.744 0h.37l-.003 1.517h-.371zm4.512.006h.223l-.004 1.517h-.223zm.595.003h.385l-.004 1.517h-.385zm.755 0h.385l-.004 1.517h-.385zm-48.536 33.626 4.557.01c-1.523.747-3.039 1.507-4.54 2.293zm-34.859 18.32 4.649.008a89.677 89.677 0 0 1-4.634 1.922z" transform="translate(-609.296 834.337)"/></svg>