<svg width="46.366" height="42.997" viewBox="0 0 12.268 11.376" xmlns="http://www.w3.org/2000/svg"><g style="fill:#2f1022;fill-opacity:1"><path d="M408.551 447.264c-2.444-2.638-1.562-9.301-2.981-11.091-.084.024-.167.047-.253.08-1.645.734-3.279 1.899-3.289 2.123.051-1.196-.359-2.232-1.095-3.024-.867-.647-1.941-.944-3.127-.764.223-.033 1.205-1.783 1.758-3.498.022-.089.039-.175.052-.26-1.932-1.219-8.462.376-11.348-1.769-2.623-1.949-5.279-6.561-4.111-9.71 1.168 1.192 3.335 2.242 5.667 2.328 2.527.092 3.719-1.318 4.665-3.123 2.222 2.441 6.771 4.923 10.618 1.612 1.906 2.515 5.712 2.581 7.666 1.925.043-.074.134.008.066.058-.442 2.013.033 5.79 2.74 7.414-2.878 4.182.079 8.437 2.745 10.383-1.691 1.136-2.965 2.471-2.601 4.974.335 2.309 1.614 4.351 2.925 5.383-.694.346-1.486.499-2.322.499-2.789 0-6.066-1.695-7.775-3.54" style="fill:#2f1022;fill-opacity:1;stroke:none" transform="matrix(.35278 0 0 -.35278 -135.422 159.034)"/></g></svg>