<svg width="1000" preserveAspectRatio="none" height="231.333" viewBox="0 0 264.583 61.207" xmlns="http://www.w3.org/2000/svg"><defs><linearGradient x1="0" y1="0" x2="1" y2="0" gradientUnits="userSpaceOnUse" gradientTransform="scale(99.89794) rotate(-88.434 4.234 -3.066)" spreadMethod="pad" id="g"><stop style="stop-opacity:1;stop-color:#340c41" offset="0"/><stop style="stop-opacity:1;stop-color:#190422" offset="1"/></linearGradient><linearGradient x1="0" y1="0" x2="1" y2="0" gradientUnits="userSpaceOnUse" gradientTransform="scale(-99.37515 99.37515) rotate(-88.434 .512 .768)" spreadMethod="pad" id="h"><stop style="stop-opacity:1;stop-color:#340c41" offset="0"/><stop style="stop-opacity:1;stop-color:#190422" offset="1"/></linearGradient><linearGradient x1="0" y1="0" x2="1" y2="0" gradientUnits="userSpaceOnUse" gradientTransform="matrix(0 -115.00435 -115.00435 0 371 106)" spreadMethod="pad" id="i"><stop style="stop-opacity:1;stop-color:#340c41" offset="0"/><stop style="stop-opacity:1;stop-color:#190422" offset="1"/></linearGradient><linearGradient x1="0" y1="0" x2="1" y2="0" gradientUnits="userSpaceOnUse" gradientTransform="scale(-90.4633 90.4633) rotate(-89.901 .534 3.046)" spreadMethod="pad" id="a"><stop style="stop-opacity:1;stop-color:#fff" offset="0"/><stop style="stop-opacity:1;stop-color:#fff" offset=".529"/><stop style="stop-opacity:0;stop-color:#fff" offset="1"/></linearGradient><linearGradient x1="0" y1="0" x2="1" y2="0" gradientUnits="userSpaceOnUse" gradientTransform="scale(-90.87608 90.87608) rotate(-89.901 .636 2.704)" spreadMethod="pad" id="b"><stop style="stop-opacity:1;stop-color:#fff" offset="0"/><stop style="stop-opacity:1;stop-color:#fff" offset=".529"/><stop style="stop-opacity:0;stop-color:#fff" offset="1"/></linearGradient><linearGradient x1="0" y1="0" x2="1" y2="0" gradientUnits="userSpaceOnUse" gradientTransform="scale(-90.4633) rotate(89.901 -1.104 -4.68)" spreadMethod="pad" id="c"><stop style="stop-opacity:1;stop-color:#fff" offset="0"/><stop style="stop-opacity:1;stop-color:#fff" offset=".529"/><stop style="stop-opacity:0;stop-color:#fff" offset="1"/></linearGradient><linearGradient x1="0" y1="0" x2="1" y2="0" gradientUnits="userSpaceOnUse" gradientTransform="rotate(-90.099 432.09 -129.462) scale(90.87608)" spreadMethod="pad" id="d"><stop style="stop-opacity:1;stop-color:#fff" offset="0"/><stop style="stop-opacity:1;stop-color:#fff" offset=".529"/><stop style="stop-opacity:0;stop-color:#fff" offset="1"/></linearGradient><linearGradient x1="0" y1="0" x2="1" y2="0" gradientUnits="userSpaceOnUse" gradientTransform="scale(-81.00155 81.00155) rotate(-89.901 -.175 4.458)" spreadMethod="pad" id="e"><stop style="stop-opacity:1;stop-color:#fff" offset="0"/><stop style="stop-opacity:1;stop-color:#fff" offset=".134"/><stop style="stop-opacity:1;stop-color:#fff" offset=".254"/><stop style="stop-opacity:1;stop-color:#fff" offset=".649"/><stop style="stop-opacity:0;stop-color:#fff" offset="1"/></linearGradient><linearGradient x1="0" y1="0" x2="1" y2="0" gradientUnits="userSpaceOnUse" gradientTransform="scale(-138.62333 138.62333) rotate(-89.901 -.322 2.363)" spreadMethod="pad" id="f"><stop style="stop-opacity:1;stop-color:#fff" offset="0"/><stop style="stop-opacity:0;stop-color:#fff" offset="1"/></linearGradient></defs><path d="M736.069 45.5s5.385 43-15.074 80c0 0 18.305-59-.539-85 0 0 9.097 50.25-22.4 85.25 0 0 37.959-71.5-11.306-91.5L750 16.703v82.074c-3.057 26.344-9.359 54.013-21.737 74.723 0 0 22.343-90 7.806-128" style="fill:url(#g);stroke:none" transform="matrix(.35278 0 0 -.35278 0 61.207)"/><path d="M0 121.28V17.317L53.5 34.25C7.75 68 44 124.75 44 124.75c-33-33-20.5-84.25-20.5-84.25-17.5 26-.5 85-.5 85-19-37-14-80-14-80-13.5 38 7.25 128 7.25 128C7.992 158.621 2.956 140.198 0 121.28" style="fill:url(#h);stroke:none" transform="matrix(.35278 0 0 -.35278 0 61.207)"/><path d="M0 22.019V0h750v20.245c-92.434 27.857-227.524 45.422-378 45.422-147.253 0-279.772-16.822-372-43.648" style="fill:url(#i);stroke:none" transform="matrix(.35278 0 0 -.35278 0 61.207)"/></svg>