<svg width="217.371" height="196.095" viewBox="0 0 57.513 51.883" xmlns="http://www.w3.org/2000/svg"><path d="M2473.984 215.585s-4.948-11.33.591-28.174c5.548-16.844 15.2-23.296 18.453-21.879 3.252 1.418 3.852 5.922 7.26 9.679 3.583 3.948 12.983 17.217 16.81 30.47 2.921 10.087-.444 12.165-8.696 15.565-8.244 3.409-27.723 12.191-34.418-5.661M2506.873 126.742s6.348.14 7.26 4.983c.905 4.835-2.764 4.765-5.695 8.983-2.93 4.217-7.374 12.713-6.887 16.748.487 4.043-.2 7.026-4.54 6.652-4.338-.374-10.451-3.904-8.086-6.574 2.348-2.678 2.86-2.426 6.626-9.826 3.765-7.409 5.54-9.287 6.183-14.27.643-4.983 3.13-6.991 5.139-6.696" style="fill:#535353;fill-opacity:1;fill-rule:nonzero;stroke:none;stroke-width:8.69575" transform="matrix(.35278 0 0 -.35278 -870.99 81.244)"/><path d="M2528.697 97.572c.357.061 7.322 1.044 6.661 5.27-.67 4.235-3.887 4.322-5.408 5.704-1.54 1.383-11.74 11.592-12.731 14.47-1 2.887-.313 4.774-4.487 4.357-4.165-.409-6.722-3.722-6.27-5.713.461-1.992 4.357-1.026 6.957-4.2 2.6-3.174 11.296-10.74 11.583-14.035.278-3.287 2.009-6.166 3.695-5.853M2543.465 88.181s3.383-.243 3.81 2.478c.425 2.73-4.61 4.13-6.114 6.044-1.496 1.922-1.026 4.46-3.2 3.939-2.183-.522-5.887-3.4-5.218-5.322.661-1.921 2.6-.782 5.166-2.887 2.574-2.113 4.191-3.835 5.556-4.252M2550.785 226.85s3.618-5.061.114-8.627c-3.505-3.556-5.6-.626-10.835-.808-5.244-.183-7.192-1.018-10.27-3.783-3.087-2.757-5.983-3.974-8.209-.348-2.243 3.626-2.896 10.496.722 10.226 3.617-.278 4.504-.574 8.46.019 8.41 1.252 6.87.991 11.41 3.417 4.53 2.418 7.67 1.652 8.608-.095" style="fill:#535353;fill-opacity:1;fill-rule:nonzero;stroke:none;stroke-width:8.69575" transform="matrix(.35278 0 0 -.35278 -870.99 81.244)"/><path d="M2574.792 229.22c.157-.314 3.443-6.358-.478-8.331-3.922-1.966-5.879.513-7.94.904-2.052.382-3.408.043-6.408-.87-2.992-.913-4.166-2.556-6.27.957-2.104 3.522-.843 7.478 1.087 8.278 1.93.818 2.652-2.235 6.826-2.365 2.435-.07 3.461-.183 6.122.887 3.14 1.243 6.33 2.043 7.06.539M2591.309 223.16s2.19-2.513.173-4.452c-2.027-1.94-6.148 1.19-8.635 1.243-2.487.052-4.322-1.817-5.157.2-.852 2.017-.635 6.609 1.357 7.218 1.99.608 2.182-1.583 5.452-2.357 3.278-.774 5.652-1.026 6.809-1.852M2533.037 131.408s6.165 1.653 5.87 6.54c-.288 4.878-3.87 3.93-7.766 7.295-3.887 3.366-16.765 19.931-17.27 23.948-.513 4.01-3.852 7.774-8.008 6.374-4.148-1.4-7.314-7.321-4.348-9.339 2.956-2.008 3.39-1.643 8.878-7.878 5.487-6.226 14.13-17.07 15.974-21.713 1.852-4.653 4.765-5.983 6.67-5.227M2564.321 99.683s5.061 1.904 4.392 5.974c-.661 4.07-3.592 2.974-7.166 5.46-3.573 2.496-15.852 15.305-16.617 18.627-.774 3.322-2.192 5.478-5.565 3.957-3.383-1.53-7.279-6.035-4.6-7.479 2.66-1.434 2.99-1.095 8.156-5.86 5.165-4.757 13.383-13.122 15.34-16.862 1.956-3.739 4.53-4.617 6.06-3.817" style="fill:#535353;fill-opacity:1;fill-rule:nonzero;stroke:none;stroke-width:8.69575" transform="matrix(.35278 0 0 -.35278 -870.99 81.244)"/><path d="M2582.672 86.231s3.391-.243 3.809 2.479c.434 2.73-10.887 8.322-12.392 10.243-1.504 1.922-1.017 4.461-3.2 3.93-2.182-.52-5.878-3.39-5.217-5.312.66-1.922 2.6-.783 5.174-2.896 2.574-2.104 10.46-8.026 11.826-8.444M2561.077 169.848s5.183 3.765 3.087 8.148c-2.087 4.383-5.087 2.209-10.009 3.887-4.904 1.678-23.165 12.235-25.14 15.74-1.956 3.504-5.886 6.46-9.26 3.66-3.383-2.8-4.783-10.104-1.252-10.878 3.53-.783 3.8-.279 11.278-4.018 7.478-3.73 19.626-10.565 23.096-14.165 3.46-3.591 6.696-3.765 8.2-2.374M2602.28 152.057s4.052 3.592 1.913 7.087c-2.14 3.505-4.496 1.426-8.774 2.418-4.278.991-20.583 8.313-22.548 11.087-1.957 2.774-4.096 4.235-6.696 1.609-2.609-2.635-4.6-8.2-1.556-8.548 3.052-.357 3.235.078 9.86-2.418 6.618-2.504 17.462-7.208 20.688-9.93 3.226-2.73 5.965-2.6 7.113-1.305" style="fill:#535353;fill-opacity:1;fill-rule:nonzero;stroke:none;stroke-width:8.69575" transform="matrix(.35278 0 0 -.35278 -870.99 81.244)"/><path d="M2629.242 145.17s3.27 1.01 2.66 3.67c-.617 2.67-18.043 4.878-20.173 6.104-2.122 1.21-2.609 3.722-4.47 2.444-1.852-1.27-4.27-5.261-2.93-6.783 1.339-1.53 2.739.226 5.939-.782 3.209-1 17.53-4.757 18.974-4.653M2554.674 148.669s5.679 2.965 4.296 7.626c-1.383 4.67-4.678 2.956-9.252 5.356-4.583 2.41-25.487 17.879-26.888 21.653-1.4 3.774-5.382 7.122-9.139 4.852-3.756-2.27-5.678-9.14-2.322-10.435 3.348-1.304 3.696-.852 10.488-5.678 6.782-4.835 22.252-15.687 25.113-19.783 2.852-4.087 6.017-4.748 7.704-3.591M2595.996 122.577s4.53 2.957 2.966 6.748c-1.574 3.8-4.21 2.087-8.261 3.722-4.07 1.626-22.47 13.583-23.983 16.626-1.504 3.044-3.383 4.826-6.348 2.609-2.965-2.226-5.783-7.444-2.835-8.253 2.94-.808 3.191-.408 9.322-3.878 6.14-3.478 19.565-12.026 22.33-15.217 2.757-3.183 5.488-3.47 6.81-2.357" style="fill:#535353;fill-opacity:1;fill-rule:nonzero;stroke:none;stroke-width:8.69575" transform="matrix(.35278 0 0 -.35278 -870.99 81.244)"/><path d="M2621.209 112.336s3.374.513 3.183 3.252c-.192 2.73-16.749 6.896-18.653 8.426-1.904 1.53-2.009 4.096-4.026 3.114-2.026-.992-5.009-4.583-3.922-6.305 1.078-1.713 2.722-.183 5.722-1.66 3-1.479 16.261-6.714 17.696-6.827M2473.984 214.085s-4.948-11.33.591-28.174c5.548-16.844 15.2-23.296 18.453-21.879 3.252 1.418 3.852 5.922 7.26 9.679 3.583 3.948 12.983 17.217 16.81 30.47 2.921 10.087-.444 12.165-8.696 15.565-8.244 3.409-27.723 12.191-34.418-5.661M2506.873 125.242s6.348.14 7.26 4.983c.905 4.835-2.764 4.765-5.695 8.983-2.93 4.217-7.374 12.713-6.887 16.748.487 4.043-.2 7.026-4.54 6.652-4.338-.374-10.451-3.904-8.086-6.574 2.348-2.678 2.86-2.426 6.626-9.826 3.765-7.409 5.54-9.287 6.183-14.27.643-4.983 3.13-6.991 5.139-6.696" style="fill:#535353;fill-opacity:1;fill-rule:nonzero;stroke:none;stroke-width:8.69575" transform="matrix(.35278 0 0 -.35278 -870.99 81.244)"/><path d="M2528.697 96.072c.357.061 7.322 1.044 6.661 5.27-.67 4.235-3.887 4.322-5.408 5.704-1.54 1.383-11.74 11.592-12.731 14.47-1 2.887-.313 4.774-4.487 4.357-4.165-.409-6.722-3.722-6.27-5.713.461-1.992 4.357-1.026 6.957-4.2 2.6-3.174 11.296-10.74 11.583-14.035.278-3.287 2.009-6.166 3.695-5.853M2543.465 86.681s3.383-.243 3.81 2.478c.425 2.73-4.61 4.13-6.114 6.044-1.496 1.922-1.026 4.46-3.2 3.939-2.183-.522-5.887-3.4-5.218-5.322.661-1.921 2.6-.782 5.166-2.887 2.574-2.113 4.191-3.835 5.556-4.252M2550.785 225.35s3.618-5.061.114-8.627c-3.505-3.556-5.6-.626-10.835-.808-5.244-.183-7.192-1.018-10.27-3.783-3.087-2.757-5.983-3.974-8.209-.348-2.243 3.626-2.896 10.496.722 10.226 3.617-.278 4.504-.574 8.46.019 8.41 1.252 6.87.991 11.41 3.417 4.53 2.418 7.67 1.652 8.608-.095" style="fill:#535353;fill-opacity:1;fill-rule:nonzero;stroke:none;stroke-width:8.69575" transform="matrix(.35278 0 0 -.35278 -870.99 81.244)"/><path d="M2574.792 227.72c.157-.314 3.443-6.358-.478-8.331-3.922-1.966-5.879.513-7.94.904-2.052.382-3.408.043-6.408-.87-2.992-.913-4.166-2.556-6.27.957-2.104 3.522-.843 7.478 1.087 8.278 1.93.818 2.652-2.235 6.826-2.365 2.435-.07 3.461-.183 6.122.887 3.14 1.243 6.33 2.043 7.06.539M2591.309 221.66s2.19-2.513.173-4.452c-2.027-1.94-6.148 1.19-8.635 1.243-2.487.052-4.322-1.817-5.157.2-.852 2.017-.635 6.609 1.357 7.218 1.99.608 2.182-1.583 5.452-2.357 3.278-.774 5.652-1.026 6.809-1.852M2533.037 129.908s6.165 1.653 5.87 6.54c-.288 4.878-3.87 3.93-7.766 7.295-3.887 3.366-16.765 19.931-17.27 23.948-.513 4.01-3.852 7.774-8.008 6.374-4.148-1.4-7.314-7.321-4.348-9.339 2.956-2.008 3.39-1.643 8.878-7.878 5.487-6.226 14.13-17.07 15.974-21.713 1.852-4.653 4.765-5.983 6.67-5.227M2564.321 98.183s5.061 1.904 4.392 5.974c-.661 4.07-3.592 2.974-7.166 5.46-3.573 2.496-15.852 15.305-16.617 18.627-.774 3.322-2.192 5.478-5.565 3.957-3.383-1.53-7.279-6.035-4.6-7.479 2.66-1.434 2.99-1.095 8.156-5.86 5.165-4.757 13.383-13.122 15.34-16.862 1.956-3.739 4.53-4.617 6.06-3.817" style="fill:#535353;fill-opacity:1;fill-rule:nonzero;stroke:none;stroke-width:8.69575" transform="matrix(.35278 0 0 -.35278 -870.99 81.244)"/><path d="M2582.672 84.731s3.391-.243 3.809 2.479c.434 2.73-10.887 8.322-12.392 10.243-1.504 1.922-1.017 4.461-3.2 3.93-2.182-.52-5.878-3.39-5.217-5.312.66-1.922 2.6-.783 5.174-2.896 2.574-2.104 10.46-8.026 11.826-8.444M2561.077 168.348s5.183 3.765 3.087 8.148c-2.087 4.383-5.087 2.209-10.009 3.887-4.904 1.678-23.165 12.235-25.14 15.74-1.956 3.504-5.886 6.46-9.26 3.66-3.383-2.8-4.783-10.104-1.252-10.878 3.53-.783 3.8-.279 11.278-4.018 7.478-3.73 19.626-10.565 23.096-14.165 3.46-3.591 6.696-3.765 8.2-2.374M2602.28 150.557s4.052 3.592 1.913 7.087c-2.14 3.505-4.496 1.426-8.774 2.418-4.278.991-20.583 8.313-22.548 11.087-1.957 2.774-4.096 4.235-6.696 1.609-2.609-2.635-4.6-8.2-1.556-8.548 3.052-.357 3.235.078 9.86-2.418 6.618-2.504 17.462-7.208 20.688-9.93 3.226-2.73 5.965-2.6 7.113-1.305" style="fill:#535353;fill-opacity:1;fill-rule:nonzero;stroke:none;stroke-width:8.69575" transform="matrix(.35278 0 0 -.35278 -870.99 81.244)"/><path d="M2629.242 143.67s3.27 1.01 2.66 3.67c-.617 2.67-18.043 4.878-20.173 6.104-2.122 1.21-2.609 3.722-4.47 2.444-1.852-1.27-4.27-5.261-2.93-6.783 1.339-1.53 2.739.226 5.939-.782 3.209-1 17.53-4.757 18.974-4.653M2554.674 147.169s5.679 2.965 4.296 7.626c-1.383 4.67-4.678 2.956-9.252 5.356-4.583 2.41-25.487 17.879-26.888 21.653-1.4 3.774-5.382 7.122-9.139 4.852-3.756-2.27-5.678-9.14-2.322-10.435 3.348-1.304 3.696-.852 10.488-5.678 6.782-4.835 22.252-15.687 25.113-19.783 2.852-4.087 6.017-4.748 7.704-3.591M2595.996 121.077s4.53 2.957 2.966 6.748c-1.574 3.8-4.21 2.087-8.261 3.722-4.07 1.626-22.47 13.583-23.983 16.626-1.504 3.044-3.383 4.826-6.348 2.609-2.965-2.226-5.783-7.444-2.835-8.253 2.94-.808 3.191-.408 9.322-3.878 6.14-3.478 19.565-12.026 22.33-15.217 2.757-3.183 5.488-3.47 6.81-2.357" style="fill:#535353;fill-opacity:1;fill-rule:nonzero;stroke:none;stroke-width:8.69575" transform="matrix(.35278 0 0 -.35278 -870.99 81.244)"/><path d="M2621.209 110.836s3.374.513 3.183 3.252c-.192 2.73-16.749 6.896-18.653 8.426-1.904 1.53-2.009 4.096-4.026 3.114-2.026-.992-5.009-4.583-3.922-6.305 1.078-1.713 2.722-.183 5.722-1.66 3-1.479 16.261-6.714 17.696-6.827" style="fill:#535353;fill-opacity:1;fill-rule:nonzero;stroke:none;stroke-width:8.69575" transform="matrix(.35278 0 0 -.35278 -870.99 81.244)"/><path d="M2470.984 214.085s-4.948-11.33.591-28.174c5.548-16.844 15.2-23.296 18.453-21.879 3.252 1.418 3.852 5.922 7.26 9.679 3.583 3.948 12.983 17.217 16.81 30.47 2.921 10.087-.444 12.165-8.696 15.565-8.244 3.409-27.723 12.191-34.418-5.661M2503.873 125.242s6.348.14 7.26 4.983c.905 4.835-2.764 4.765-5.695 8.983-2.93 4.217-7.374 12.713-6.887 16.748.487 4.043-.2 7.026-4.54 6.652-4.338-.374-10.451-3.904-8.086-6.574 2.348-2.678 2.86-2.426 6.626-9.826 3.765-7.409 5.54-9.287 6.183-14.27.643-4.983 3.13-6.991 5.139-6.696" style="fill:#fff;fill-opacity:1;fill-rule:nonzero;stroke:none;stroke-width:8.69575" transform="matrix(.35278 0 0 -.35278 -870.99 81.244)"/><path d="M2525.697 96.072c.357.061 7.322 1.044 6.661 5.27-.67 4.235-3.887 4.322-5.408 5.704-1.54 1.383-11.74 11.592-12.731 14.47-1 2.887-.313 4.774-4.487 4.357-4.165-.409-6.722-3.722-6.27-5.713.461-1.992 4.357-1.026 6.957-4.2 2.6-3.174 11.296-10.74 11.583-14.035.278-3.287 2.009-6.166 3.695-5.853M2540.465 86.681s3.383-.243 3.81 2.478c.425 2.73-4.61 4.13-6.114 6.044-1.496 1.922-1.026 4.46-3.2 3.939-2.183-.522-5.887-3.4-5.218-5.322.661-1.921 2.6-.782 5.166-2.887 2.574-2.113 4.191-3.835 5.556-4.252M2547.785 225.35s3.618-5.061.114-8.627c-3.505-3.556-5.6-.626-10.835-.808-5.244-.183-7.192-1.018-10.27-3.783-3.087-2.757-5.983-3.974-8.209-.348-2.243 3.626-2.896 10.496.722 10.226 3.617-.278 4.504-.574 8.46.019 8.41 1.252 6.87.991 11.41 3.417 4.53 2.418 7.67 1.652 8.608-.095" style="fill:#fff;fill-opacity:1;fill-rule:nonzero;stroke:none;stroke-width:8.69575" transform="matrix(.35278 0 0 -.35278 -870.99 81.244)"/><path d="M2571.792 227.72c.157-.314 3.443-6.358-.478-8.331-3.922-1.966-5.879.513-7.94.904-2.052.382-3.408.043-6.408-.87-2.992-.913-4.166-2.556-6.27.957-2.104 3.522-.843 7.478 1.087 8.278 1.93.818 2.652-2.235 6.826-2.365 2.435-.07 3.461-.183 6.122.887 3.14 1.243 6.33 2.043 7.06.539M2588.309 221.66s2.19-2.513.173-4.452c-2.027-1.94-6.148 1.19-8.635 1.243-2.487.052-4.322-1.817-5.157.2-.852 2.017-.635 6.609 1.357 7.218 1.99.608 2.182-1.583 5.452-2.357 3.278-.774 5.652-1.026 6.809-1.852M2530.037 129.908s6.165 1.653 5.87 6.54c-.288 4.878-3.87 3.93-7.766 7.295-3.887 3.366-16.765 19.931-17.27 23.948-.513 4.01-3.852 7.774-8.008 6.374-4.148-1.4-7.314-7.321-4.348-9.339 2.956-2.008 3.39-1.643 8.878-7.878 5.487-6.226 14.13-17.07 15.974-21.713 1.852-4.653 4.765-5.983 6.67-5.227M2561.321 98.183s5.061 1.904 4.392 5.974c-.661 4.07-3.592 2.974-7.166 5.46-3.573 2.496-15.852 15.305-16.617 18.627-.774 3.322-2.192 5.478-5.565 3.957-3.383-1.53-7.279-6.035-4.6-7.479 2.66-1.434 2.99-1.095 8.156-5.86 5.165-4.757 13.383-13.122 15.34-16.862 1.956-3.739 4.53-4.617 6.06-3.817" style="fill:#fff;fill-opacity:1;fill-rule:nonzero;stroke:none;stroke-width:8.69575" transform="matrix(.35278 0 0 -.35278 -870.99 81.244)"/><path d="M2579.672 84.731s3.391-.243 3.809 2.479c.434 2.73-10.887 8.322-12.392 10.243-1.504 1.922-1.017 4.461-3.2 3.93-2.182-.52-5.878-3.39-5.217-5.312.66-1.922 2.6-.783 5.174-2.896 2.574-2.104 10.46-8.026 11.826-8.444M2558.077 168.348s5.183 3.765 3.087 8.148c-2.087 4.383-5.087 2.209-10.009 3.887-4.904 1.678-23.165 12.235-25.14 15.74-1.956 3.504-5.886 6.46-9.26 3.66-3.383-2.8-4.783-10.104-1.252-10.878 3.53-.783 3.8-.279 11.278-4.018 7.478-3.73 19.626-10.565 23.096-14.165 3.46-3.591 6.696-3.765 8.2-2.374M2599.28 150.557s4.052 3.592 1.913 7.087c-2.14 3.505-4.496 1.426-8.774 2.418-4.278.991-20.583 8.313-22.548 11.087-1.957 2.774-4.096 4.235-6.696 1.609-2.609-2.635-4.6-8.2-1.556-8.548 3.052-.357 3.235.078 9.86-2.418 6.618-2.504 17.462-7.208 20.688-9.93 3.226-2.73 5.965-2.6 7.113-1.305" style="fill:#fff;fill-opacity:1;fill-rule:nonzero;stroke:none;stroke-width:8.69575" transform="matrix(.35278 0 0 -.35278 -870.99 81.244)"/><path d="M2626.242 143.67s3.27 1.01 2.66 3.67c-.617 2.67-18.043 4.878-20.173 6.104-2.122 1.21-2.609 3.722-4.47 2.444-1.852-1.27-4.27-5.261-2.93-6.783 1.339-1.53 2.739.226 5.939-.782 3.209-1 17.53-4.757 18.974-4.653M2551.674 147.169s5.679 2.965 4.296 7.626c-1.383 4.67-4.678 2.956-9.252 5.356-4.583 2.41-25.487 17.879-26.888 21.653-1.4 3.774-5.382 7.122-9.139 4.852-3.756-2.27-5.678-9.14-2.322-10.435 3.348-1.304 3.696-.852 10.488-5.678 6.782-4.835 22.252-15.687 25.113-19.783 2.852-4.087 6.017-4.748 7.704-3.591M2592.996 121.077s4.53 2.957 2.966 6.748c-1.574 3.8-4.21 2.087-8.261 3.722-4.07 1.626-22.47 13.583-23.983 16.626-1.504 3.044-3.383 4.826-6.348 2.609-2.965-2.226-5.783-7.444-2.835-8.253 2.94-.808 3.191-.408 9.322-3.878 6.14-3.478 19.565-12.026 22.33-15.217 2.757-3.183 5.488-3.47 6.81-2.357" style="fill:#fff;fill-opacity:1;fill-rule:nonzero;stroke:none;stroke-width:8.69575" transform="matrix(.35278 0 0 -.35278 -870.99 81.244)"/><path d="M2618.209 110.836s3.374.513 3.183 3.252c-.192 2.73-16.749 6.896-18.653 8.426-1.904 1.53-2.009 4.096-4.026 3.114-2.026-.992-5.009-4.583-3.922-6.305 1.078-1.713 2.722-.183 5.722-1.66 3-1.479 16.261-6.714 17.696-6.827M2470.984 212.585s-4.948-11.33.591-28.174c5.548-16.844 15.2-23.296 18.453-21.879 3.252 1.418 3.852 5.922 7.26 9.679 3.583 3.948 12.983 17.217 16.81 30.47 2.921 10.087-.444 12.165-8.696 15.565-8.244 3.409-27.723 12.191-34.418-5.661M2503.873 123.742s6.348.14 7.26 4.983c.905 4.835-2.764 4.765-5.695 8.983-2.93 4.217-7.374 12.713-6.887 16.748.487 4.043-.2 7.026-4.54 6.652-4.338-.374-10.451-3.904-8.086-6.574 2.348-2.678 2.86-2.426 6.626-9.826 3.765-7.409 5.54-9.287 6.183-14.27.643-4.983 3.13-6.991 5.139-6.696" style="fill:#fff;fill-opacity:1;fill-rule:nonzero;stroke:none;stroke-width:8.69575" transform="matrix(.35278 0 0 -.35278 -870.99 81.244)"/><path d="M2525.697 94.572c.357.061 7.322 1.044 6.661 5.27-.67 4.235-3.887 4.322-5.408 5.704-1.54 1.383-11.74 11.592-12.731 14.47-1 2.887-.313 4.774-4.487 4.357-4.165-.409-6.722-3.722-6.27-5.713.461-1.992 4.357-1.026 6.957-4.2 2.6-3.174 11.296-10.74 11.583-14.035.278-3.287 2.009-6.166 3.695-5.853M2540.465 85.181s3.383-.243 3.81 2.478c.425 2.73-4.61 4.13-6.114 6.044-1.496 1.922-1.026 4.46-3.2 3.939-2.183-.522-5.887-3.4-5.218-5.322.661-1.921 2.6-.782 5.166-2.887 2.574-2.113 4.191-3.835 5.556-4.252M2547.785 223.85s3.618-5.061.114-8.627c-3.505-3.556-5.6-.626-10.835-.808-5.244-.183-7.192-1.018-10.27-3.783-3.087-2.757-5.983-3.974-8.209-.348-2.243 3.626-2.896 10.496.722 10.226 3.617-.278 4.504-.574 8.46.019 8.41 1.252 6.87.991 11.41 3.417 4.53 2.418 7.67 1.652 8.608-.095" style="fill:#fff;fill-opacity:1;fill-rule:nonzero;stroke:none;stroke-width:8.69575" transform="matrix(.35278 0 0 -.35278 -870.99 81.244)"/><path d="M2571.792 226.22c.157-.314 3.443-6.358-.478-8.331-3.922-1.966-5.879.513-7.94.904-2.052.382-3.408.043-6.408-.87-2.992-.913-4.166-2.556-6.27.957-2.104 3.522-.843 7.478 1.087 8.278 1.93.818 2.652-2.235 6.826-2.365 2.435-.07 3.461-.183 6.122.887 3.14 1.243 6.33 2.043 7.06.539M2588.309 220.16s2.19-2.513.173-4.452c-2.027-1.94-6.148 1.19-8.635 1.243-2.487.052-4.322-1.817-5.157.2-.852 2.017-.635 6.609 1.357 7.218 1.99.608 2.182-1.583 5.452-2.357 3.278-.774 5.652-1.026 6.809-1.852M2530.037 128.408s6.165 1.653 5.87 6.54c-.288 4.878-3.87 3.93-7.766 7.295-3.887 3.366-16.765 19.931-17.27 23.948-.513 4.01-3.852 7.774-8.008 6.374-4.148-1.4-7.314-7.321-4.348-9.339 2.956-2.008 3.39-1.643 8.878-7.878 5.487-6.226 14.13-17.07 15.974-21.713 1.852-4.653 4.765-5.983 6.67-5.227M2561.321 96.683s5.061 1.904 4.392 5.974c-.661 4.07-3.592 2.974-7.166 5.46-3.573 2.496-15.852 15.305-16.617 18.627-.774 3.322-2.192 5.478-5.565 3.957-3.383-1.53-7.279-6.035-4.6-7.479 2.66-1.434 2.99-1.095 8.156-5.86 5.165-4.757 13.383-13.122 15.34-16.862 1.956-3.739 4.53-4.617 6.06-3.817" style="fill:#fff;fill-opacity:1;fill-rule:nonzero;stroke:none;stroke-width:8.69575" transform="matrix(.35278 0 0 -.35278 -870.99 81.244)"/><path d="M2579.672 83.231s3.391-.243 3.809 2.479c.434 2.73-10.887 8.322-12.392 10.243-1.504 1.922-1.017 4.461-3.2 3.93-2.182-.52-5.878-3.39-5.217-5.312.66-1.922 2.6-.783 5.174-2.896 2.574-2.104 10.46-8.026 11.826-8.444M2558.077 166.848s5.183 3.765 3.087 8.148c-2.087 4.383-5.087 2.209-10.009 3.887-4.904 1.678-23.165 12.235-25.14 15.74-1.956 3.504-5.886 6.46-9.26 3.66-3.383-2.8-4.783-10.104-1.252-10.878 3.53-.783 3.8-.279 11.278-4.018 7.478-3.73 19.626-10.565 23.096-14.165 3.46-3.591 6.696-3.765 8.2-2.374M2599.28 149.057s4.052 3.592 1.913 7.087c-2.14 3.505-4.496 1.426-8.774 2.418-4.278.991-20.583 8.313-22.548 11.087-1.957 2.774-4.096 4.235-6.696 1.609-2.609-2.635-4.6-8.2-1.556-8.548 3.052-.357 3.235.078 9.86-2.418 6.618-2.504 17.462-7.208 20.688-9.93 3.226-2.73 5.965-2.6 7.113-1.305" style="fill:#fff;fill-opacity:1;fill-rule:nonzero;stroke:none;stroke-width:8.69575" transform="matrix(.35278 0 0 -.35278 -870.99 81.244)"/><path d="M2626.242 142.17s3.27 1.01 2.66 3.67c-.617 2.67-18.043 4.878-20.173 6.104-2.122 1.21-2.609 3.722-4.47 2.444-1.852-1.27-4.27-5.261-2.93-6.783 1.339-1.53 2.739.226 5.939-.782 3.209-1 17.53-4.757 18.974-4.653M2551.674 145.669s5.679 2.965 4.296 7.626c-1.383 4.67-4.678 2.956-9.252 5.356-4.583 2.41-25.487 17.879-26.888 21.653-1.4 3.774-5.382 7.122-9.139 4.852-3.756-2.27-5.678-9.14-2.322-10.435 3.348-1.304 3.696-.852 10.488-5.678 6.782-4.835 22.252-15.687 25.113-19.783 2.852-4.087 6.017-4.748 7.704-3.591M2592.996 119.577s4.53 2.957 2.966 6.748c-1.574 3.8-4.21 2.087-8.261 3.722-4.07 1.626-22.47 13.583-23.983 16.626-1.504 3.044-3.383 4.826-6.348 2.609-2.965-2.226-5.783-7.444-2.835-8.253 2.94-.808 3.191-.408 9.322-3.878 6.14-3.478 19.565-12.026 22.33-15.217 2.757-3.183 5.488-3.47 6.81-2.357" style="fill:#fff;fill-opacity:1;fill-rule:nonzero;stroke:none;stroke-width:8.69575" transform="matrix(.35278 0 0 -.35278 -870.99 81.244)"/><path d="M2618.209 109.336s3.374.513 3.183 3.252c-.192 2.73-16.749 6.896-18.653 8.426-1.904 1.53-2.009 4.096-4.026 3.114-2.026-.992-5.009-4.583-3.922-6.305 1.078-1.713 2.722-.183 5.722-1.66 3-1.479 16.261-6.714 17.696-6.827" style="fill:#fff;fill-opacity:1;fill-rule:nonzero;stroke:none;stroke-width:8.69575" transform="matrix(.35278 0 0 -.35278 -870.99 81.244)"/></svg>