<svg width="328.597" height="349.481" viewBox="0 0 86.941 92.467" xmlns="http://www.w3.org/2000/svg"><path d="m0 0-9.087 12.386-2.292-9.919-8.382 15.233-1.925-7.152c-4.786 2.057-9.619 29.426-9.013 33.906.008.059.164-.019.289-.049l8.981-16.225.934 9.188 9.225-12.297 2.906 9.068 4.979-11.037 5.022 9.731L8.982 21.79l6.368 8.924 6.536-10.136 6.468 10.041 6.218-9.016L42.1 32.536l4.86-9.802 5.162 10.963 2.754-9.11 9.428 12.16.782-9.2 9.25 16.091c.126.029.293.105.289.045-.424-7.472-.652-26.485-9.768-35.935l-1.733 9.346-9.069-15.212-1.995 10.057L43.07-.316l-2.609 10.658-9.286-11.964-2.599 10.368-7.04-8.762L14.34 8.85 11.871-1.48 2.483 10.619Z" style="fill:#231815;fill-opacity:1;fill-rule:evenodd;stroke:none" transform="matrix(.4257 -.06508 -.06508 -.4257 33.556 78.751)"/><path d="M0 0c5.747 1.249 19.309 4.338 23.443 6.516.904.475-22.991 13.494-38.339 17.816C-9.997 12.218-2.196 2.579 0 0" style="fill:#231815;fill-opacity:1;fill-rule:evenodd;stroke:none" transform="matrix(.4257 -.06508 -.06508 -.4257 25.588 61.11)"/><path d="M0 0c-5.745 1.259-19.302 4.37-23.432 6.555-.903.477 23.014 13.456 38.369 17.752C10.018 12.201 2.2 2.576 0 0" style="fill:#231815;fill-opacity:1;fill-rule:evenodd;stroke:none" transform="matrix(.4257 -.06508 -.06508 -.4257 54.47 56.698)"/></svg>