<svg width="328.621" height="349.481" viewBox="0 0 86.948 92.467" xmlns="http://www.w3.org/2000/svg"><defs><clipPath clipPathUnits="userSpaceOnUse" id="a"><path d="M20.85 158.602h123.979V50.855H20.849Z"/></clipPath><clipPath clipPathUnits="userSpaceOnUse" id="b"><path d="M111.694 157.687c.828.245 1.666.451 2.518.605 2.426.441 4.988.452 7.371-.232 2.292-.658 3.906-.621 3.057-3.288a237.176 237.176 0 0 1-9.913-1.13c-4.087-.553-6.008-5.216-8.478-8.215a126.846 126.846 0 0 0-9.343-10.16c-.46-.449-.934-.909-1.198-1.494-.409-.905-.261-1.987-.378-2.913-.328-2.594-.379-5.217.146-7.78 1.525-7.445 2.872-14.926 4.262-22.397.103-.555.212-1.126.514-1.604.545-.86 1.593-1.244 2.331-1.944 1.865-1.771 1.257-4.799 1.603-7.347.367-2.709 1.933-4.995 3.666-7.028 3.013-3.536 5.388-1.985 11.654-3.523 1.666-.41 3.388-.291 5.095-.125.921.09 3.667-.633 6.162-1.041.903-.147 1.049-1.378.213-1.748-10.223-4.528-20.341-9.23-30.527-13.87-1.091-.497-2.186-.995-3.339-1.324-2.46-.7-5.234-.69-7.776-.732-2.61-.043-4.916-.478-7.462-1.061-5.197-1.189-10.544-1.448-15.857-1.534-5.037-.082-10.141-.407-15.173-.32-5.315.093-10.617.502-15.909.98-2.711.244-5.421.51-8.132.759-2.046.188-4.336-.141-5.951 1.368a257.41 257.41 0 0 1 34.061 19.287c.38.255.764.515 1.068.856 1.501 1.678.597 4.084.559 6.039-.071 3.694.453 7.477.413 11.115l.559 12.356c.191 2.297.044 4.757.817 6.986.718 2.073 2.49 3.853 3.631 5.743 1.684 2.792 3.277 5.625 4.891 8.458.809 1.42 1.658 2.846 2.854 3.961.943.88 2.07 1.534 3.186 2.18 10.386 6.017 20.785 12.04 31.622 17.199 2.334 1.111 4.71 2.188 7.183 2.918"/></clipPath></defs><g clip-path="url(#a)" opacity=".48" transform="matrix(.69046 .13974 .13965 -.64562 -22.11 75.64)"><g clip-path="url(#b)"><path d="M-3.3-26.101c.857-1.448 3.657-7.642 4.237-9.222.696-1.895 2.731-7.864 3.267-9.81.721-2.618 2.659-5.031 3.563-7.614.951-2.719 2.434-3.669 5.246-4.237l12.964-2.622c-9.336-5.049-18.75-10.13-28.903-13.223-3.005-.915-6.104-1.669-8.821-3.246-2.715-1.578-5.057-4.171-5.42-7.291 4.47-2.212 9.804-1.065 14.619.238 10.252 2.773 20.36 6.047 30.398 9.511 7.039 2.429 20.413 4.39 22.733 12.914.769 2.822.141 5.989-1.647 8.305-1.791 2.319-4.524 3.672-7.139 4.995-4.567 2.309-30.01 8.504-34.43 11.085" style="fill:#243880;fill-opacity:1;fill-rule:nonzero;stroke:none" transform="translate(93.924 135.469)"/></g></g><path d="m0 0 1.627-2.097 6.236-8.037 1.035-1.334.463-.597.027-.035.204.853.158.662 1.145 4.792.962 4.024 4.785-5.896.016-.019 2.395-2.951 4.434 5.517 2.196 2.734.41.511 1.814-7.235.053-.212.732-2.921 1.324 1.706 1.526 1.965.793 1.021 5.642 7.271.79-3.224.811-3.313.12-.489.562-2.294.018-.076.309-1.261.375.511 3.641 4.963 1.522 2.075 3.451 4.705.488-2.458 1.508-7.598 9.069 15.211.57-3.076.335-1.805.12-.65.129-.697.321-1.727.257-1.391c2.663 2.76 4.567 6.336 5.939 10.202 3.049 8.585 3.473 18.601 3.755 24.287l-.001-.005c-.287-4.681-.868-11.137-2.798-17.153-1.136-3.537-2.739-6.922-5.023-9.703a20.348 20.348 0 0 0-1.613-1.747l-.178-.168-.041.2-.099.483-.389 1.897-1.214 5.915L51.582-2.49l-1.214 5.521-.795 3.62-3.254-4.005L44.853.841l-1.516-1.866-.894-1.1-.216-.266-.099-.121-1.604-1.975-.264.976-.275 1.012-2.088 7.698-6.17-7.177-3.177-3.696-2.433 8.764-.183.659-1.997-2.244-5.09-5.72-.038.043-2.317 2.577-4.889 5.439L9.6-3.726l-.301-1.138-.181-.682L.185 4.85l-.517.602-2.409-9.3-.091-.352-2.386 2.936-.103.127-.247.304L-6.79.671l-2.772 3.412-2.417 2.974-1.463-5.718-.844-3.297-7.681 12.604-.757 1.242-.568-1.906-.455-1.528-.526-1.762-.388-1.305c-3.117 1.209-6.253 12.043-7.914 20.647 1.421-9.731 4.925-24.61 8.406-26.106l.892 3.317.498 1.85.401 1.488.133.498 8.383-15.234.821 3.554.236 1.023 1.235 5.342 1.523-2.075 4.638-6.323.317-.432 2.251-3.069.358-.487.023.1 1.227 5.248z" style="fill:#883922;fill-opacity:1;fill-rule:evenodd;stroke:none" transform="matrix(.4257 -.06508 -.06508 -.4257 33.922 74.068)"/><path d="M0 0c-1.68.398-3.47.836-5.247 1.294l-.388.099-.886.232-.385.102c-.546.146-1.088.293-1.622.44l-.42.117c-.849.238-1.675.477-2.46.715-1.889.573-3.551 1.14-4.776 1.668-2.461-1.405-3.857-2.346-3.625-2.468 1.599-.846 4.61-1.831 8.034-2.793a147.968 147.968 0 0 1 2.578-.701c.528-.14 1.061-.278 1.593-.414.196-.051.393-.1.589-.15l.722-.182c.031-.008.063-.015.094-.024 1.846-.461 3.663-.893 5.313-1.275 1.742-.404 3.298-.751 4.509-1.017a80.613 80.613 0 0 1 2.413 2.979C4.451-1.029 2.331-.553 0 0" style="fill:#883922;fill-opacity:1;fill-rule:evenodd;stroke:none" transform="matrix(.4257 -.06508 -.06508 -.4257 52.644 55.08)"/><path d="M0 0c.22.116-1.032.977-3.274 2.274-.927-.406-2.121-.836-3.485-1.274C-8.024.593-9.435.18-10.913-.228a240.647 240.647 0 0 0-2.206-.593l-.438-.114a.074.074 0 0 1-.014-.004l-.271-.07a325.302 325.302 0 0 0-8.409-2.028 423.37 423.37 0 0 0-3.399-.757 80.729 80.729 0 0 1 2.207-2.722 395.802 395.802 0 0 1 4.003.892c1.827.418 3.884.902 5.975 1.422l.079.019.647.162.012.003 1.069.272a167.62 167.62 0 0 1 5.619 1.543C-3.464-1.436-1.28-.674 0 0" style="fill:#883922;fill-opacity:1;fill-rule:evenodd;stroke:none" transform="matrix(.4257 -.06508 -.06508 -.4257 35.143 56.81)"/><path style="fill:#d26828;fill-opacity:1;fill-rule:evenodd;stroke:none;stroke-width:1.33333" d="M1221.016 514.854c-7.316.101-13.962 1.856-21.002 4.953-5.328 2.342-13.6 23.733-18.307 49.466 12.721 6.04 22.976 11.937 22.283 12.301-4.324 2.278-16.328 5.289-25.025 7.291-.457 4.846-.75 9.713-.834 14.522l6.22 13.793 6.696-12.975 9.793 14.725 8.492-11.899 8.713 13.514 8.625-13.389 8.29 12.022 10.038-14.576 6.48 13.068 6.883-14.617 3.672 12.146 12.176-15.703c.854-8.255.877-16.62.18-24.697-4.802 7.742-9.401 13.371-11.196 15.472-7.66-1.678-25.737-5.824-31.244-8.738-1.01-.533 21.267-12.795 40.559-20.115-4.075-20.29-13.24-36.793-26.477-41.592-9.715-3.521-17.7-5.074-25.015-4.972zm37.261 117.21-11.986 16.34-3.478-14.21-12.381 15.95-3.467-13.824-9.385 11.684-9.596-11.822-3.29 13.773-12.518-16.13-3.31 14.157-6.054-8.248c5.355 15.525 15.756 26.263 33.737 26.575 19.917.345 34.27-9.392 43.762-24z" transform="matrix(.31927 -.0488 .0488 .31927 -377.638 -70.104)"/><path style="fill:#e57125;fill-opacity:1;fill-rule:evenodd;stroke:none;stroke-width:1.33333" d="M1266.467 523.38c-7.389-.107-15.02 2.816-22.215 9.452-1.894 1.4-4.475 21.386-6.922 45.106 9.773-5.525 30.805-15.885 45.78-20.075-6.56 16.142-16.983 28.974-19.917 32.408-6.081-1.332-18.71-4.22-26.42-6.812-1.12 11.2-2.201 22.895-3.152 33.775l1.34 1.944 10.037-14.576 6.48 13.068 6.883-14.617 3.672 12.146 12.57-16.213 1.043 12.268 12.332-21.455c.168-.039.393-.14.387-.06-.565 9.962-.87 35.313-13.025 47.913l-2.31-12.463-12.093 20.284-2.66-13.409-11.986 16.34-3.478-14.21-11.883 15.308c-.335 4.263-.87 10.988-.87 10.988s18.406 21.776 50.114-.564c51.838-65.128 21.89-136.025-13.707-136.545zM1184.469 522.152c-4.725.02-9.979.772-15.688 2.66-22.841 7.544-46.216 76.543-1.025 132.942 33.065 22.885 53.684 1.435 53.684 1.435s-.325-7.549-.665-15.164l-3.195 3.979-9.596-11.822-3.29 13.773-12.518-16.13-3.31 14.157-12.118-16.515-3.055 13.226-11.177-20.31-2.567 9.535c-6.381-2.743-12.825-39.234-12.017-45.207.01-.079.22.024.386.064l11.975 21.633 1.244-12.25 12.3 16.397 3.876-12.092 6.639 14.717 6.695-12.975 9.793 14.725 8.492-11.899 8.713 13.514 1.484-2.305c-1.897-36.554-4.96-84.661-8.058-86.914 0 0-10.127-9.245-27.002-9.174zm-31.598 35.668c20.464 5.763 52.325 23.12 51.12 23.754-5.513 2.904-23.596 7.022-31.259 8.688-2.928-3.439-13.329-16.29-19.86-32.442z" transform="matrix(.31927 -.0488 .0488 .31927 -377.638 -70.104)"/><path style="fill:#eb7523;fill-opacity:1;fill-rule:evenodd;stroke:none;stroke-width:1.33333" d="M1278.043 533.648c-11.124.05-14.346 8.772-14.346 8.772-1.057.929-2.142 10.6-3.166 23.97 7.7-3.428 15.767-6.621 22.578-8.527-6.558 16.142-16.982 28.974-19.916 32.408a541.54 541.54 0 0 1-4.158-.93c-.27 4.634-.546 9.216-.795 13.97l.121-.258 3.672 12.146 12.57-16.213 1.043 12.268 12.332-21.455c.084-.02.182-.054.258-.074.076-.02.132-.027.13.013-.142 2.491-.267 5.944-.565 9.918-.145 1.932-.334 3.99-.582 6.117a118.392 118.392 0 0 1-.461 3.522c-.166 1.128-.35 2.265-.559 3.41v.002c-.833 4.579-2.029 9.24-3.775 13.543v.002c-.01.013-.012.024-.018.037a45.968 45.968 0 0 1-1.381 3.076c-.01.013-.011.027-.018.04v.001c-.01.013-.014.024-.02.036-1.154 2.318-2.508 4.48-4.08 6.418-.155.19-.304.388-.463.574v.002c-.357.417-.726.823-1.105 1.217l-2.311-12.463-12.092 20.283-2.66-13.408-1.508 2.054a5165.83 5165.83 0 0 0-1.271 31.053s6.893 23.938 38.066-.914c46.104-44.757 17.926-117.051 1.447-125.64-7.053-3.68-12.616-4.988-16.968-4.97z" transform="matrix(.31927 -.0488 .0488 .31927 -377.638 -70.104)"/><path style="fill:#ca5828;fill-opacity:1;fill-rule:evenodd;stroke:none;stroke-width:1.33333" d="M1268.123 536.807c-.482 8.024-.878 17.26-1.25 26.85 5.507-2.279 10.974-4.29 15.828-5.675-3.337-8.458-8.096-15.767-14.578-21.175zm14.75 21.625c-5.14 12.42-12.495 22.796-16.848 28.359-.28 8.165-.554 16.346-.855 24.361l9.434-12.166 1.043 12.266 12.334-21.453c.168-.039.39-.14.384-.06-.565 9.962-.868 35.311-13.023 47.911l-2.31-12.46-9.194 15.421c-1.218 21.067-2.923 36.575-5.787 38.084 19.765 1.556 42.213-75.3 24.822-120.263z" transform="matrix(.31927 -.0488 .0488 .31927 -377.638 -70.104)"/><path style="fill:#eb7523;fill-opacity:1;fill-rule:evenodd;stroke:none;stroke-width:1.33333" d="M1256.045 533.426c-11.732-.208-17.563 9.459-17.563 9.459-1.327 1.26-3.138 17.103-4.953 37.32 6.28-4.078 30.363-16.543 47.711-21.797-3.822-11.607-8.957-19.643-13.95-22.056-4.213-2.036-7.96-2.868-11.245-2.926zm25.88 27.217c-6.564 14.82-15.969 26.394-18.732 29.628-7.104-1.557-23.154-5.235-29.84-8.085-.865 9.782-1.729 20.4-2.537 30.982l4.145 6.01 10.037-14.576 6.48 13.068 6.883-14.617 3.672 12.146 12.57-16.213 1.044 12.268 11.462-19.943c-.627-11.518-2.546-21.975-5.183-30.668zm5.255 45.464c-1.305 10.934-4.278 23.706-11.84 31.545l-2.31-12.463-12.092 20.284-2.66-13.409-11.987 16.34-3.478-14.21-12.381 15.95-1.79-7.136c-1.262 18.081-2.146 31.865-2.146 31.865s14.693 22.476 40.277-.674c13.719-22.047 19.464-46.202 20.407-68.092z" transform="matrix(.31927 -.0488 .0488 .31927 -377.638 -70.104)"/><path style="fill:#ca5828;fill-opacity:1;fill-rule:evenodd;stroke:none;stroke-width:1.33333" d="M1239.389 541.617c-.35 7.821-.442 20.81-.467 35.43 3.841-2.114 8.955-4.75 14.615-7.443-3.115-12.739-7.839-22.845-14.148-27.987zm-.47 42.533c0 9.59 0 19.214-.011 29.295l6.09-8.845 6.48 13.07 6.422-13.639a201.24 201.24 0 0 0-1.064-15.197c-5.612-1.304-12.522-3.013-17.916-4.684zm17.942 49.844-10.57 14.408-3.479-14.209-4.021 5.182c-.241 24.18-.928 43.223-2.877 44.043.78.005 5.621.984 5.621.984s10.89-10.25 15.156-48.74c.061-.554.113-1.112.17-1.668z" transform="matrix(.31927 -.0488 .0488 .31927 -377.638 -70.104)"/><path style="fill:#ed7f22;fill-opacity:1;fill-rule:evenodd;stroke:none;stroke-width:1.33333" d="M1256.416 533.34c-2.548.053-5.298.551-8.266 1.558 13.263 2.156 21.864 10.539 27.946 25.207a119.28 119.28 0 0 1 5.511-1.802c-4.498-14.011-12.229-25.232-25.191-24.963zm25.75 26.754a107.473 107.473 0 0 1-3.457 7.164c2.525 7.813 4.568 17.015 6.342 27.635l2.082-3.623c-.522-9.499-1.932-20.962-4.967-31.176zm5.127 44.978c-.094.848-.203 1.707-.318 2.576.035.253.073.487.107.74.086-.92.158-2.045.211-3.316z" transform="matrix(.31927 -.0488 .0488 .31927 -377.638 -70.104)"/><path style="fill:#eb7523;fill-opacity:1;fill-rule:evenodd;stroke:none;stroke-width:1.33333" d="M1164.684 530.715a46.515 46.515 0 0 0-5.934.33c-9.65 1.113-17.848 9.882-23.207 23.074-.315.57-.611 1.16-.889 1.783-6.9 15.486-10.322 36.902-8.695 53.442.955 9.674 1.934 17.92 5.018 27.136 3.08 9.214 8.052 18.357 15.439 26.55 4.501 4.987 12.539 11.028 24.211 13.156 5.512 1.008 15.31 1.547 21.351-.334-.926-.486-6.37-6.571-8.662-8.895 3.572-2.241 5.803-4.373 5.803-4.373s-.194-7.135-.416-14.822l-11.955-16.295-3.055 13.226-11.177-20.31-2.567 9.535c-6.381-2.743-12.825-39.234-12.017-45.207.01-.079.22.024.386.064l11.975 21.633 1.244-12.25 12.3 16.397 3.876-12.092 6.639 14.717 3.115-6.036a2614.05 2614.05 0 0 0-1.02-24.078 477.352 477.352 0 0 1-13.715 3.196c-2.928-3.439-13.329-16.29-19.86-32.442 9.925 2.795 22.511 8.315 32.726 13.334-.924-15.596-1.981-27.334-3.13-28.4 0 0-.466-11.819-17.784-12.04z" transform="matrix(.31927 -.0488 .0488 .31927 -377.638 -70.104)"/><path style="fill:#da6d26;fill-opacity:1;fill-rule:evenodd;stroke:none;stroke-width:1.33333" d="M1125.73 594.814c-.409 25.412 3.565 49.15 20.663 68.186 4.488 5.004 12.51 11.06 24.18 13.213 5.66 1.05 11.363 1.256 17.071.371-3.166-1.344-5.598-8.453-6.966-11.73-30.534-.935-46.978-15.38-54.948-70.04z" transform="matrix(.31927 -.0488 .0488 .31927 -377.638 -70.104)"/><path style="fill:#ca5828;fill-opacity:1;fill-rule:evenodd;stroke:none;stroke-width:1.33333" d="M1177.748 534.486c-6.553 6.598-11.289 15.98-14.43 26.848 3.948 1.501 8.011 3.217 11.989 4.994.395-11.25 1.157-22.139 2.441-31.842zm-17.125 38.73c-1.897 10.865-2.516 22.6-1.98 34.212l1.65 2.98 1.246-12.25 12.299 16.397 1.603-5.002c-.246-6.44-.401-13.09-.453-19.79-.788.175-1.604.357-2.256.499-1.908-2.242-6.991-8.498-12.109-17.045zm1.895 51.167-1.428 5.3c3.322 18.8 9.623 35.25 18.088 44.213 0 0 3.205-2.877 3.974-3.01-2.217-.558-4.81-16.762-6.476-39.097l-2.983 12.904z" transform="matrix(.31927 -.0488 .0488 .31927 -377.638 -70.104)"/><path style="fill:#eb7523;fill-opacity:1;fill-rule:evenodd;stroke:none;stroke-width:1.33333" d="M1191.67 529.16c-2.436-.06-5.075.253-7.912 1.076-6.829 1.981-13.978 14.26-18.485 31.854 18.834 7.406 39.697 18.97 38.717 19.484-5.512 2.904-23.595 7.022-31.258 8.688-1.68-1.974-5.826-7.062-10.287-14.084a163.03 163.03 0 0 0-1.69 29.672l.782-7.692 12.3 16.397 3.876-12.092 6.639 14.717 6.695-12.975 9.793 14.725 8.492-11.899 7.844 12.164c-1.236-35.753-3.072-76.468-5.162-78.562 0 0-7.191-11.152-20.344-11.473zm-29.154 95.223-.03.107c2.442 15.898 7.462 32.054 16.042 46.936 16.784 28.928 40.236 1.351 40.236 1.351s-.259-10.66-.686-25.392l-.498.619-9.595-11.822-3.291 13.773-12.518-16.13-3.31 14.157-12.118-16.515-3.054 13.226z" transform="matrix(.31927 -.0488 .0488 .31927 -377.638 -70.104)"/><path style="fill:#da6d26;fill-opacity:1;fill-rule:evenodd;stroke:none;stroke-width:1.33333" d="M1189.26 591.705c-2.111 8.292-3.326 16.368-4.076 23.863l5.863-11.363.029.043c-.662-5.502-1.258-10.006-1.816-12.543zm-28.84 7.576a108.731 108.731 0 0 0-.264 10.881l.137.246.572-5.633c-.204-2.016-.359-3.884-.445-5.494zm2.096 25.102-.737 2.738c2.628 15.924 8.223 31.387 15.711 44.297 3.572 6.156 11.188 13.827 19.032 13.666 3.754-.079 12.573.055 15.449-2.195 1.409-1.111 1.024-.976 2.47-2.02 1.22-.875-1.345-4.584-.203-5.57-5.253.009-7.988-5.234-10.945-8.692-3.38-3.953-5.918-15.604-7.93-28.675l-3.187-4.108-3.31 14.158-5.118-6.974c-.214 5.59-.488 10.072-1.326 12.672-1.252 3.881-4.358 5.315-6.982 2.318-4.494-5.13-8.115-16.127-10.688-27.55z" transform="matrix(.31927 -.0488 .0488 .31927 -377.638 -70.104)"/><path style="fill:#ca5828;fill-opacity:1;fill-rule:evenodd;stroke:none;stroke-width:1.33333" d="M1211.158 539.467c-8.227 5.264-14.81 18.475-19.27 34.885 7.474 3.892 12.593 6.964 12.102 7.222-2.766 1.458-8.697 3.219-14.888 4.824-1.767 9.087-2.944 18.724-3.456 28.274l5.403-10.467 9.793 14.723 8.49-11.899.246.381c.74-27.438 1.647-54.79 1.58-67.943zm-18.982 94.355-3.31 14.16-2.473-3.37c2.628 22.45 10.275 39.5 24.164 39.615-1.961-.875-2.123-21.327-1.676-46.94l-.897-1.105-3.29 13.773z" transform="matrix(.31927 -.0488 .0488 .31927 -377.638 -70.104)"/><path style="fill:#eb7523;fill-opacity:1;fill-rule:evenodd;stroke:none;stroke-width:1.33333" d="M1223.135 535.643c-15.806.018-24.592 16.291-29.723 39.484 6.68 3.53 11.037 6.206 10.578 6.447-2.423 1.277-7.277 2.787-12.605 4.22-1.223 7.418-2.184 15.296-2.938 23.448l2.6-5.037 9.793 14.725 8.492-11.899 8.713 13.514 8.625-13.389 8.29 12.022 10.038-14.576 6.48 13.068 4.696-9.969v-.002c-.078-6.647-.36-13.078-.862-19.22-8.5-2.005-19.316-4.805-23.363-6.946-.665-.351 8.792-5.796 20.828-11.562-4.201-20.483-12.92-34.346-29.642-34.328zm-30.96 98.181-3.31 14.158-.596-.812c3.473 27.267 15.843 39.628 31.942 40.52 14.975.837 31.022-6.091 35.043-51.504l-8.963 12.218-3.479-14.21-12.38 15.95-3.467-13.824-9.385 11.684-9.596-11.822-3.29 13.773z" transform="matrix(.31927 -.0488 .0488 .31927 -377.638 -70.104)"/><path style="fill:#da6d26;fill-opacity:1;fill-rule:evenodd;stroke:none;stroke-width:1.33333" d="M1211.158 539.467c-7.653 6.392-13.971 19.496-18.308 35.367a203.907 203.907 0 0 1 5.965 3.25c2.24-12.452 6.212-25.465 12.343-38.617zm-13.26 44.441c-2.308.733-4.962 1.48-7.699 2.201a194.806 194.806 0 0 0-3.408 26.344l4.256-8.248v.002l5.783 8.691c-.635-9.067-.35-18.815 1.067-28.99zm-5.722 49.916-3.31 14.158-.675-.918c3.789 23.584 13.954 41.359 32.707 40.805 10.758.196 25.592-3.935 32.188-34.615-12.977 31.92-35.7 23.533-48.035-4.793l-.358 1.494z" transform="matrix(.31927 -.0488 .0488 .31927 -377.638 -70.104)"/><path style="fill:#ed7f22;fill-opacity:1;fill-rule:evenodd;stroke:none;stroke-width:1.33333" d="M1227.1 538.496c-7.079-.175-11.897 5.977-11.897 5.977 11.596-2.943 22.154 7.595 29.002 29.765a307.91 307.91 0 0 1 6.486-3.256c-2.783-12.333-7.483-21.918-12.779-27.154-3.911-3.865-7.595-5.252-10.812-5.332zm20.25 48.018c1.914 9.05 3.332 19.45 4.129 31.156 1.785-10.486 2.207-20.531 1.615-29.725-1.885-.454-3.806-.93-5.744-1.431z" transform="matrix(.31927 -.0488 .0488 .31927 -377.638 -70.104)"/><g><path d="M-6.722-21.81c.828.244 1.667.45 2.518.604 2.426.442 4.988.453 7.372-.232 2.292-.657 3.905-.62 3.056-3.287a238.877 238.877 0 0 1-9.913-1.13c-4.087-.554-6.008-5.217-8.478-8.216-2.927-3.552-3.88-5.59-7.175-8.804-.46-.448-.934-.908-1.198-1.493-.409-.905-1.062-3.2-.53-3.952 7.624-4.12 7.124-7.785 11.959-12.233 1.865-1.77 1.257-4.799 1.603-7.346.367-2.709 1.933-4.996 3.666-7.029 3.013-3.536 5.388-1.984 11.654-3.522 1.667-.41 3.388-.291 5.095-.125 1.006.097 4.184-.772 6.838-1.145.716-.099.855-1.061.194-1.353C9.492-85.691-.84-90.495-11.245-95.234c-1.091-.497-2.186-.995-3.339-1.325-2.459-.7-5.233-.689-7.776-.731-2.61-.044-4.916-.479-7.462-1.062-5.197-1.188-10.544-1.448-15.857-1.534-5.037-.082-10.141-.407-15.173-.319-5.315.093-10.617.502-15.909.979-2.711.245-5.421.51-8.132.759-2.045.189-4.336-.14-5.951 1.368a257.41 257.41 0 0 1 34.061 19.287c.38.255.764.515 1.069.857 1.5 1.678.596 4.084.558 6.039-.071 3.693.453 7.477.413 11.114 2.317 3.525 1.903 2.68 3.852 4.735 1.684 2.792 3.277 5.625 4.89 8.458.81 1.42 1.659 2.847 2.855 3.961.944.88 2.07 1.534 3.186 2.181 10.386 6.016 15.218 10.58 26.055 15.738 2.334 1.111 4.71 2.19 7.183 2.92" style="fill:#000;fill-opacity:1;fill-rule:nonzero;stroke:none" transform="matrix(.69046 .13974 .13965 -.64562 77.032 -10.558)"/></g><g><path d="M0 0c.271-.013.55-.028.798-.138.08-.035.143-.095.214-.145l.025.004 1.025.149-.308 1.287c-.115.483-.249.997-.622 1.324-.242.212-.558.319-.82.504-.541.382-.731 1.031-.755 1.657-.046 1.219-.862 2.419-.495 3.583-9.461-1.427-18.983-2.249-28.503-3.202-3.695-.368-7.389-.739-11.082-1.108-3.179-.317-7.485-1.624-10.546-.547-.132.046.103-1.61.092-1.707-.074-.665-.535-.942-.673-1.509-.14-.57.177-1.072.027-1.646-.154-.591-.762-1.044-1.122-1.508-.122-.157-.223-.402-.075-.536.06-.054.145-.069.226-.081.856-.124 1.649.019 2.499.094 2.27.2 4.537.432 6.806.648l13.611 1.297c5.033.478 10.062.85 15.087 1.291 1.612.142 3.245.179 4.862.246C-6.488.091-3.241.146 0 0" style="fill:#d87308;fill-opacity:1;fill-rule:nonzero;stroke:none" transform="matrix(.69046 .13974 .13965 -.64562 63.026 36.807)"/></g><g><path d="m0 0 7.439.632c.353-2.788.633-5.583.837-8.387L1.975-8.862A107.714 107.714 0 0 1 0 0m9.496 1.811c-.074.547-.445 1.152-1.098 1.096l-8.997-.763a1.082 1.082 0 0 1-.614-.265c-.685.054-1.438-.49-1.198-1.351A107.44 107.44 0 0 0 .037-10.418c.105-.622.815-.859 1.349-.766L9.74-9.716c.444.078.836.614.806 1.059a159.04 159.04 0 0 1-1.05 10.468" style="fill:#243880;fill-opacity:1;fill-rule:nonzero;stroke:none" transform="matrix(.69046 .13974 .13965 -.64562 40.901 28.15)"/></g></svg>