<svg width="275.576" height="442.66" viewBox="0 0 72.913 117.12" xmlns="http://www.w3.org/2000/svg"><defs><linearGradient x1="0" y1="0" x2="1" y2="0" gradientUnits="userSpaceOnUse" gradientTransform="scale(-87.17715 87.17715) rotate(-89.901 .393 3.451)" spreadMethod="pad" id="a"><stop style="stop-opacity:1;stop-color:#fff" offset="0"/><stop style="stop-opacity:1;stop-color:#fff" offset=".529"/><stop style="stop-opacity:0;stop-color:#fff" offset="1"/></linearGradient><linearGradient x1="0" y1="0" x2="1" y2="0" gradientUnits="userSpaceOnUse" gradientTransform="scale(-90.4633 90.4633) rotate(-89.901 .534 3.046)" spreadMethod="pad" id="b"><stop style="stop-opacity:1;stop-color:#fff" offset="0"/><stop style="stop-opacity:1;stop-color:#fff" offset=".529"/><stop style="stop-opacity:0;stop-color:#fff" offset="1"/></linearGradient><linearGradient x1="0" y1="0" x2="1" y2="0" gradientUnits="userSpaceOnUse" gradientTransform="scale(-90.87608 90.87608) rotate(-89.901 .636 2.704)" spreadMethod="pad" id="c"><stop style="stop-opacity:1;stop-color:#fff" offset="0"/><stop style="stop-opacity:1;stop-color:#fff" offset=".529"/><stop style="stop-opacity:0;stop-color:#fff" offset="1"/></linearGradient><linearGradient x1="0" y1="0" x2="1" y2="0" gradientUnits="userSpaceOnUse" gradientTransform="scale(-87.17715) rotate(89.901 -.854 -4.696)" spreadMethod="pad" id="d"><stop style="stop-opacity:1;stop-color:#fff" offset="0"/><stop style="stop-opacity:1;stop-color:#fff" offset=".529"/><stop style="stop-opacity:0;stop-color:#fff" offset="1"/></linearGradient><linearGradient x1="0" y1="0" x2="1" y2="0" gradientUnits="userSpaceOnUse" gradientTransform="scale(-90.4633) rotate(89.901 -1.104 -4.68)" spreadMethod="pad" id="e"><stop style="stop-opacity:1;stop-color:#fff" offset="0"/><stop style="stop-opacity:1;stop-color:#fff" offset=".529"/><stop style="stop-opacity:0;stop-color:#fff" offset="1"/></linearGradient><linearGradient x1="0" y1="0" x2="1" y2="0" gradientUnits="userSpaceOnUse" gradientTransform="rotate(-90.099 432.09 -129.462) scale(90.87608)" spreadMethod="pad" id="f"><stop style="stop-opacity:1;stop-color:#fff" offset="0"/><stop style="stop-opacity:1;stop-color:#fff" offset=".529"/><stop style="stop-opacity:0;stop-color:#fff" offset="1"/></linearGradient><linearGradient x1="0" y1="0" x2="1" y2="0" gradientUnits="userSpaceOnUse" gradientTransform="scale(-81.00155 81.00155) rotate(-89.901 -.175 4.458)" spreadMethod="pad" id="g"><stop style="stop-opacity:1;stop-color:#fff" offset="0"/><stop style="stop-opacity:1;stop-color:#fff" offset=".134"/><stop style="stop-opacity:1;stop-color:#fff" offset=".254"/><stop style="stop-opacity:1;stop-color:#fff" offset=".649"/><stop style="stop-opacity:0;stop-color:#fff" offset="1"/></linearGradient><linearGradient x1="0" y1="0" x2="1" y2="0" gradientUnits="userSpaceOnUse" gradientTransform="scale(-138.62333 138.62333) rotate(-89.901 -.322 2.363)" spreadMethod="pad" id="h"><stop style="stop-opacity:1;stop-color:#fff" offset="0"/><stop style="stop-opacity:0;stop-color:#fff" offset="1"/></linearGradient></defs><g style="fill:#07003d;fill-opacity:1"><path d="m876.493 384.586 5.602-17.966-11.052-22.453 9.755-18.055-6.268-10.408 19.03-45.126-4.139-25.306-24.305-19.057v-41.398l37.308-25.9 7.638-19.793 36.79-19.199 21.32-23.085-19.386 25.847-34.562 17.88-7.127 17.206 25-5.604 5.198 2.994 29.275-5.792 29.258-23.997-27.66 26.9-34.485 7.552-4.383-2.936-25.197 6.082-35.867 27.551-2.37 17.216 29.435-20.136 10.186-.26 16.16-17.384 44.498-5.367-43.099 8.746-14.155 14.574 41.31 11.792 8.03-1.014 11.766-19.063 35.567-9.604 34-23-29.768 26.412-35.952 9.745-9.26 14.922 56.646-14.746-71 24.334-19.224-5.578 27.831 26.087 6.906-1.806 3.26-15.076 42.371-16.23-39.186 17.551-3.593 13.63 27.061-5.403 22.232-18.975-20.436 21.398-24.264 4.508 12.71 13.478 33.774-4.488 9.605-18.233-8.072 21.293-7.732 1.091 13.057 8.581 45.268-1.594-48.313 4.44-15.17-11.138-24.826 3.156-13.906-15.093-11.879 2.546-36.494-32.66-25.277-4.31-29.734 19.262 19.323-3.749 40.005 29.35 21.201.792 30.111 28.553 28.761 12.662-30.743-9.934-28.142-26.877-18.588-1.148 13.423 21.82-1.14 5.891 14.99 25.805 32.202 19.871-34.427-17.417-18.35-30.16 1.351-5.098-13.939-21.853-37.71-24.967-17.053 3.351 28.61 21.295 3.555 9.55 21.692 9.633 19.535 40.338-22.277-37.916-18.383-8.652 2.273 42.9 4.621 9.098 20.8 3.098 17.055 25.026 36.621 6.646 14.451-14.69 34.792-7.426-33.334 9.73-15.325 15.758-7.717-1.183 10.03 11.98 43.807 11.52-47.543-9.673-11.317-15.037-22.217-4.326 3.744 5.494 26.931 25.506-31.189-23.696-20.899-30.835-17.122-3.909 40.703 62.638 12.264 2.832 19.523 23.752-20.02-19.896-9.409-2.914 15.234 26.08-71.26-104.955-1.739-17.989-15.626 34.798 3.952 5.945 15.316-1.818 29.12 34.798-29.333-31.355-14.058 1.031 13.903 23.837 25.17 14.86 45.943 50.521-46.802-47.81-26.019-15.085-12.148-21.482-8.616 16.398 15.221 30.484 20.363 3.158 26.338 23.915-27.358-21.386-21.74-3.244-3.544-6.957-3.873 15.137 16.218 42.294z" style="fill:#07003d;fill-opacity:1;stroke:none" transform="matrix(.35278 0 0 -.35278 -305.194 151.284)"/></g></svg>