<svg xml:space="preserve" width="572.934" height="515.516" xmlns="http://www.w3.org/2000/svg"><defs><clipPath clipPathUnits="userSpaceOnUse" id="a"><path d="M57.56 376.625H530.6V72.305H57.56Z"/></clipPath><clipPath clipPathUnits="userSpaceOnUse" id="v"><path d="m159.247 287.469.022 8.121-.001.001-.021-8.122"/></clipPath><clipPath clipPathUnits="userSpaceOnUse" id="w"><path d="m154.599 295.591-.009-4.061.011 4.062-.002-.001"/></clipPath><clipPath clipPathUnits="userSpaceOnUse" id="x"><path d="M154.601 295.592c0-2.707-.015-5.414-.022-8.12l.02 8.119c-.641-.372-.961-.859-.963-1.346l-.023-8.125c.002.487.323.974.963 1.346 1.284.746 3.377.746 4.669 0 .654-.378.98-.873.978-1.367l.024 8.124c.002.495-.324.99-.978 1.367l-.022-8.121.021 8.122c-.646.373-1.493.559-2.338.559-.844 0-1.688-.186-2.329-.558"/></clipPath><clipPath clipPathUnits="userSpaceOnUse" id="y"><path d="M153.612 286.118c-.001-.492.324-.985.973-1.36 1.299-.75 3.392-.75 4.682 0 .637.37.956.855.956 1.341l.024 8.125c-.002-.486-.321-.971-.957-1.341-1.291-.749-3.384-.749-4.682 0-.649.375-.974.868-.973 1.36z"/></clipPath><clipPath clipPathUnits="userSpaceOnUse" id="b"><path d="M56.12 367.985h414.72V97.505H56.12Z"/></clipPath><clipPath clipPathUnits="userSpaceOnUse" id="c"><path d="M-2.44 187.025h134.16v-108H-2.44Z"/></clipPath><clipPath clipPathUnits="userSpaceOnUse" id="d"><path d="M6.92 259.265H98.6V99.185H6.92Z"/></clipPath><clipPath clipPathUnits="userSpaceOnUse" id="e"><path d="M-2.2 301.505h125.04v-146.64H-2.2Z"/></clipPath><clipPath clipPathUnits="userSpaceOnUse" id="f"><path d="M134.36 306.305H277.4v-113.28H134.36Z"/></clipPath><clipPath clipPathUnits="userSpaceOnUse" id="g"><path d="M159.32 374.945h91.44v-148.32h-91.44z"/></clipPath><clipPath clipPathUnits="userSpaceOnUse" id="h"><path d="M171.32 454.865h90.48v-86.64h-90.48z"/></clipPath><clipPath clipPathUnits="userSpaceOnUse" id="i"><path d="M85.64 451.745H222.2v-155.28H85.64Z"/></clipPath><clipPath clipPathUnits="userSpaceOnUse" id="j"><path d="M252.2 251.345h143.04v-113.28H252.2Z"/></clipPath><clipPath clipPathUnits="userSpaceOnUse" id="k"><path d="M284.12 310.385h90.72v-147.36h-90.72z"/></clipPath><clipPath clipPathUnits="userSpaceOnUse" id="z"><path d="m272.21 360.81-3.754-2.182c1.473.84 3.412.566 5.35-.552l3.755 2.181c-1.17.676-2.341 1.043-3.41 1.043-.7 0-1.357-.157-1.941-.49"/></clipPath><clipPath clipPathUnits="userSpaceOnUse" id="A"><path d="M0 500h500V0H0Z"/></clipPath><clipPath clipPathUnits="userSpaceOnUse" id="B"><path d="M320.775 280.345c2.915-5.04 2.92-10.525.027-12.243l3.693 2.147c2.955 1.676 2.97 7.202.035 12.278zm-.034-12.278.061.035z"/></clipPath><clipPath clipPathUnits="userSpaceOnUse" id="C"><path d="M0 500h500V0H0Z"/></clipPath><clipPath clipPathUnits="userSpaceOnUse" id="D"><path d="M273.806 358.076c1.939-1.119 3.875-3.083 5.342-5.622l3.755 2.182c-1.469 2.539-3.404 4.503-5.342 5.621z"/></clipPath><clipPath clipPathUnits="userSpaceOnUse" id="E"><path d="M0 500h500V0H0Z"/></clipPath><clipPath clipPathUnits="userSpaceOnUse" id="F"><path d="M268.025 295.275c.921-.532 1.713-.629 2.349-.259l3.753 2.181c-.635-.369-1.427-.273-2.348.259z"/></clipPath><clipPath clipPathUnits="userSpaceOnUse" id="G"><path d="M0 500h500V0H0Z"/></clipPath><clipPath clipPathUnits="userSpaceOnUse" id="H"><path d="M265.789 312.457c-1.169-.679-1.832-2.848-1.842-6.342-.016-5.753 1.521-9.363 4.078-10.84l3.754 2.181c-2.558 1.477-4.094 5.088-4.078 10.841.01 3.494.674 5.663 1.842 6.342z"/></clipPath><clipPath clipPathUnits="userSpaceOnUse" id="I"><path d="M0 500h500V0H0Z"/></clipPath><clipPath clipPathUnits="userSpaceOnUse" id="J"><path d="m265.653 320.39-3.754-2.182c1.697.987 3.89.7 6.188-.628l3.755 2.183c-1.374.793-2.71 1.215-3.925 1.215-.818 0-1.581-.191-2.264-.588"/></clipPath><clipPath clipPathUnits="userSpaceOnUse" id="K"><path d="M0 500h500V0H0Z"/></clipPath><clipPath clipPathUnits="userSpaceOnUse" id="L"><path d="M268.087 317.58c4.98-2.873 9.415-10.03 9.389-19.276-.014-5.205-1.256-8.042-3.152-9.145l3.753 2.182c1.899 1.103 3.139 3.94 3.153 9.145.026 9.245-4.409 16.402-9.388 19.277z"/></clipPath><clipPath clipPathUnits="userSpaceOnUse" id="M"><path d="M0 500h500V0H0Z"/></clipPath><clipPath clipPathUnits="userSpaceOnUse" id="l"><path d="M295.4 393.425h90.48v-86.88H295.4Z"/></clipPath><clipPath clipPathUnits="userSpaceOnUse" id="m"><path d="M327.8 167.585h143.28V48.545H327.8Z"/></clipPath><clipPath clipPathUnits="userSpaceOnUse" id="n"><path d="M344.12 178.865h95.76v-84h-95.76z"/></clipPath><clipPath clipPathUnits="userSpaceOnUse" id="o"><path d="M335.72 153.665h112.56v-86.64H335.72Z"/></clipPath><clipPath clipPathUnits="userSpaceOnUse" id="p"><path d="M125 164.705h143.28V45.665H125Z"/></clipPath><clipPath clipPathUnits="userSpaceOnUse" id="q"><path d="M141.32 175.985h95.76v-83.76h-95.76z"/></clipPath><clipPath clipPathUnits="userSpaceOnUse" id="r"><path d="M132.92 150.785h112.56v-86.64H132.92Z"/></clipPath><clipPath clipPathUnits="userSpaceOnUse" id="s"><path d="M44.36 366.305h126v-107.76h-126z"/></clipPath><clipPath clipPathUnits="userSpaceOnUse" id="t"><path d="M56.6 374.705h90v-81.12h-90z"/></clipPath><clipPath clipPathUnits="userSpaceOnUse" id="u"><path d="M50.36 355.745h102.72v-83.28H50.36Z"/></clipPath></defs><g clip-path="url(#v)" transform="matrix(1.33333 0 0 -1.33333 -58.667 602.589)"><path d="m0 0-.023-8.125c.002.494-.325.989-.979 1.367a3.525 3.525 0 0 1-.475.227l.023 8.126c.167-.067.327-.142.475-.228C-.325.989.001.494 0 0" style="fill:#1b005b;fill-opacity:1;fill-rule:nonzero;stroke:none" transform="translate(160.247 294.224)"/></g><g clip-path="url(#w)" transform="matrix(1.33333 0 0 -1.33333 -58.667 602.589)"><path d="m0 0-.023-8.125a3.774 3.774 0 0 1-.722-.317l-.041-.024.023 8.125.041.024c.22.128.463.233.722.317" style="fill:#290080;fill-opacity:1;fill-rule:nonzero;stroke:none" transform="translate(155.321 295.908)"/></g><g clip-path="url(#x)" transform="matrix(1.33333 0 0 -1.33333 -58.667 602.589)"><path d="m0 0-.023-8.125c.002.494-.325.989-.979 1.367a3.525 3.525 0 0 1-.475.227l.023 8.126c.167-.067.327-.142.475-.228C-.325.989.001.494 0 0" style="fill:#1b005b;fill-opacity:1;fill-rule:nonzero;stroke:none" transform="translate(160.247 294.224)"/><path d="m0 0-.023-8.125a4.268 4.268 0 0 1-.4.135L-.4.135C-.263.096-.129.051 0 0" style="fill:#1c005f;fill-opacity:1;fill-rule:nonzero;stroke:none" transform="translate(158.793 295.819)"/><path d="m0 0-.023-8.125c-.112.032-.227.06-.344.084L-.344.084C-.228.06-.112.032 0 0" style="fill:#1e0063;fill-opacity:1;fill-rule:nonzero;stroke:none" transform="translate(158.392 295.954)"/><path d="m0 0-.023-8.125a4.987 4.987 0 0 1-.328.057L-.328.057C-.217.042-.108.022 0 0" style="fill:#1f0066;fill-opacity:1;fill-rule:nonzero;stroke:none" transform="translate(158.048 296.038)"/><path d="m0 0-.023-8.125a5.624 5.624 0 0 1-.321.036L-.321.036C-.213.027-.106.015 0 0" style="fill:#20006a;fill-opacity:1;fill-rule:nonzero;stroke:none" transform="translate(157.72 296.095)"/><path d="m0 0-.023-8.125a5.878 5.878 0 0 1-.326.017L-.326.017C-.217.015-.108.009 0 0" style="fill:#21006e;fill-opacity:1;fill-rule:nonzero;stroke:none" transform="translate(157.4 296.132)"/><path d="m0 0-.023-8.125a6.386 6.386 0 0 1-.339-.001l.023 8.125C-.226.002-.113.003 0 0" style="fill:#240072;fill-opacity:1;fill-rule:nonzero;stroke:none" transform="translate(157.073 296.149)"/><path d="m0 0-.023-8.125a5.559 5.559 0 0 1-.367-.024l.023 8.125c.122.012.244.02.367.024" style="fill:#250075;fill-opacity:1;fill-rule:nonzero;stroke:none" transform="translate(156.734 296.147)"/><path d="m0 0-.023-8.125a5.264 5.264 0 0 1-.421-.059l.023 8.125c.138.025.279.045.421.059" style="fill:#270079;fill-opacity:1;fill-rule:nonzero;stroke:none" transform="translate(156.368 296.123)"/><path d="m0 0-.023-8.125a4.798 4.798 0 0 1-.625-.156l.023 8.125c.2.065.41.117.625.156" style="fill:#28007c;fill-opacity:1;fill-rule:nonzero;stroke:none" transform="translate(155.946 296.064)"/><path d="m0 0-.023-8.125a3.774 3.774 0 0 1-.722-.317l-.041-.024.023 8.125.041.024c.22.128.463.233.722.317" style="fill:#290080;fill-opacity:1;fill-rule:nonzero;stroke:none" transform="translate(155.321 295.908)"/><path d="m0 0-.023-8.125a2.572 2.572 0 0 1-.42-.311L-.42-.311c.119.11.259.214.42.311" style="fill:#28007c;fill-opacity:1;fill-rule:nonzero;stroke:none" transform="translate(154.559 295.567)"/><path d="m0 0-.023-8.125a2.002 2.002 0 0 1-.206-.221l.023 8.125c.06.075.128.149.206.221" style="fill:#270079;fill-opacity:1;fill-rule:nonzero;stroke:none" transform="translate(154.139 295.256)"/><path d="m0 0-.023-8.125a1.605 1.605 0 0 1-.134-.198l.023 8.125c.038.067.083.133.134.198" style="fill:#250075;fill-opacity:1;fill-rule:nonzero;stroke:none" transform="translate(153.933 295.035)"/><path d="m0 0-.023-8.125a1.385 1.385 0 0 1-.088-.188l.023 8.125c.024.063.053.126.088.188" style="fill:#240072;fill-opacity:1;fill-rule:nonzero;stroke:none" transform="translate(153.8 294.837)"/><path d="m0 0-.023-8.125a1.28 1.28 0 0 1-.054-.187l.023 8.125c.013.063.031.125.054.187" style="fill:#21006e;fill-opacity:1;fill-rule:nonzero;stroke:none" transform="translate(153.712 294.649)"/><path d="m0 0-.023-8.125a1.106 1.106 0 0 1-.022-.19l.024 8.126C-.02-.126-.013-.063 0 0" style="fill:#20006a;fill-opacity:1;fill-rule:nonzero;stroke:none" transform="translate(153.658 294.462)"/><path d="m0 0-.023-8.125v-.029L0-.029V0" style="fill:#1f0066;fill-opacity:1;fill-rule:nonzero;stroke:none" transform="translate(153.636 294.273)"/></g><g clip-path="url(#y)" transform="matrix(1.33333 0 0 -1.33333 -58.667 602.589)"><path d="m0 0-.023-8.125v-.029L0-.029V0" style="fill:#959595;fill-opacity:1;fill-rule:nonzero;stroke:none" transform="translate(160.247 294.224)"/><path d="m0 0-.023-8.125a1.118 1.118 0 0 0-.022-.19l.023 8.126c.013.063.02.126.022.189" style="fill:#9a9a9a;fill-opacity:1;fill-rule:nonzero;stroke:none" transform="translate(160.247 294.195)"/><path d="m0 0-.023-8.125a1.228 1.228 0 0 0-.053-.186l.023 8.125c.023.061.04.124.053.186" style="fill:#9f9f9f;fill-opacity:1;fill-rule:nonzero;stroke:none" transform="translate(160.225 294.006)"/><path d="m0 0-.023-8.125a1.385 1.385 0 0 0-.088-.188l.023 8.125c.035.062.064.125.088.188" style="fill:#a5a4a5;fill-opacity:1;fill-rule:nonzero;stroke:none" transform="translate(160.172 293.82)"/><path d="m0 0-.023-8.125a1.585 1.585 0 0 0-.133-.197l.023 8.125c.051.065.095.131.133.197" style="fill:#aaa;fill-opacity:1;fill-rule:nonzero;stroke:none" transform="translate(160.084 293.632)"/><path d="m0 0-.023-8.125a1.898 1.898 0 0 0-.205-.22L-.205-.22c.078.072.146.145.205.22" style="fill:#afafaf;fill-opacity:1;fill-rule:nonzero;stroke:none" transform="translate(159.95 293.435)"/><path d="m0 0-.023-8.125a2.63 2.63 0 0 0-.416-.309l.022 8.125c.16.097.299.2.417.309" style="fill:#b4b4b4;fill-opacity:1;fill-rule:nonzero;stroke:none" transform="translate(159.746 293.216)"/><path d="m0 0-.023-8.125-.04-.024a3.828 3.828 0 0 0-.727-.32l.023 8.126c.261.084.505.191.727.319L0 0" style="fill:#b9b9b9;fill-opacity:1;fill-rule:nonzero;stroke:none" transform="translate(159.33 292.907)"/><path d="m0 0-.023-8.125a4.854 4.854 0 0 0-.626-.156l.023 8.125c.215.039.425.091.626.156" style="fill:#b4b4b4;fill-opacity:1;fill-rule:nonzero;stroke:none" transform="translate(158.563 292.564)"/><path d="m0 0-.023-8.125a5.867 5.867 0 0 0-.422-.059l.023 8.125C-.28-.044-.139-.025 0 0" style="fill:#afafaf;fill-opacity:1;fill-rule:nonzero;stroke:none" transform="translate(157.936 292.407)"/><path d="m0 0-.023-8.125a4.986 4.986 0 0 0-.367-.024l.023 8.125c.123.003.245.012.367.024" style="fill:#aaa;fill-opacity:1;fill-rule:nonzero;stroke:none" transform="translate(157.514 292.349)"/><path d="m0 0-.023-8.125a6.355 6.355 0 0 0-.338-.002l.023 8.126C-.226-.004-.112-.004 0 0" style="fill:#a5a4a5;fill-opacity:1;fill-rule:nonzero;stroke:none" transform="translate(157.148 292.324)"/><path d="m0 0-.023-8.125a5.083 5.083 0 0 0-.326.017L-.325.017C-.217.008-.109.002 0 0" style="fill:#9f9f9f;fill-opacity:1;fill-rule:nonzero;stroke:none" transform="translate(156.81 292.323)"/><path d="m0 0-.023-8.125a5.762 5.762 0 0 0-.322.036L-.322.036C-.215.021-.108.009 0 0" style="fill:#9a9a9a;fill-opacity:1;fill-rule:nonzero;stroke:none" transform="translate(156.484 292.34)"/><path d="m0 0-.023-8.125c-.11.016-.22.035-.328.057L-.328.057C-.22.035-.11.016 0 0" style="fill:#959595;fill-opacity:1;fill-rule:nonzero;stroke:none" transform="translate(156.162 292.376)"/><path d="m0 0-.023-8.125a4.984 4.984 0 0 0-.346.084L-.345.084C-.232.052-.117.024 0 0" style="fill:#909090;fill-opacity:1;fill-rule:nonzero;stroke:none" transform="translate(155.835 292.433)"/><path d="m0 0-.023-8.125a3.87 3.87 0 0 0-.402.136L-.402.136C-.273.084-.138.04 0 0" style="fill:#8b8b8b;fill-opacity:1;fill-rule:nonzero;stroke:none" transform="translate(155.49 292.518)"/><path d="m0 0-.023-8.125a3.585 3.585 0 0 0-.479.229c-.649.375-.974.868-.973 1.361l.023 8.125c-.001-.493.324-.986.973-1.361C-.329.143-.168.066 0 0" style="fill:#868686;fill-opacity:1;fill-rule:nonzero;stroke:none" transform="translate(155.087 292.654)"/></g><path d="M159.268 295.591c1.298-.75 1.305-1.962.021-2.708-1.29-.75-3.383-.75-4.68 0-1.293.746-1.299 1.958-.01 2.708 1.284.746 3.377.746 4.67 0" style="fill:#1c1c1b;fill-opacity:1;fill-rule:nonzero;stroke:none" transform="matrix(1.33333 0 0 -1.33333 -45.227 608.029)"/><path d="M377.089 174.916c3.735-2.157 3.749-5.651.044-7.805-3.711-2.156-9.743-2.16-13.48-.003-3.729 2.153-3.75 5.65-.038 7.808 3.705 2.152 9.744 2.152 13.473 0" style="fill:#ddd;fill-opacity:1;fill-rule:nonzero;stroke:none" transform="matrix(1.33333 0 0 -1.33333 -45.227 608.029)"/><path d="M433.999 222.438c.815-.47.819-1.234.01-1.705l-149.27-86.745c-.808-.47-2.122-.467-2.936.004L92.916 243.045c-.815.47-.826 1.231-.016 1.702l149.269 86.745c.809.47 2.128.47 2.943 0z" style="fill:#fff;fill-opacity:1;fill-rule:nonzero;stroke:none" transform="matrix(1.33333 0 0 -1.33333 -45.227 608.029)"/><path d="M154.608 292.884c1.298-.75 3.392-.75 4.682 0 1.283.746 1.276 1.958-.022 2.708-1.292.746-3.385.746-4.669 0-1.289-.75-1.283-1.962.009-2.708m209.045-125.775c3.735-2.158 9.768-2.154 13.479.003 3.705 2.153 3.692 5.648-.044 7.804-3.728 2.154-9.767 2.154-13.472 0-3.712-2.157-3.692-5.655.037-7.807m-78.913-33.121 149.268 86.747c.81.469.805 1.234-.009 1.704L245.112 331.493c-.815.47-2.134.47-2.943 0l-149.27-86.746c-.809-.47-.798-1.23.016-1.701l188.887-109.054c.815-.47 2.128-.474 2.938-.004m175.965 83.859c3.373-1.948 3.39-5.108.04-7.055l-158.747-92.254c-3.358-1.951-8.813-1.951-12.186-.004l-223.609 129.1c-3.372 1.949-3.39 5.108-.033 7.06l158.747 92.253c3.351 1.947 8.806 1.947 12.179 0z" style="fill:#625167;fill-opacity:1;fill-rule:nonzero;stroke:none" transform="matrix(1.33333 0 0 -1.33333 -45.227 608.029)"/><path d="M463.225 214.044c-.009-.092-.015-.183-.03-.273-.015-.074-.037-.147-.057-.22-.022-.086-.043-.172-.074-.258-.025-.07-.058-.14-.088-.21a3.251 3.251 0 0 0-.126-.268c-.034-.065-.076-.127-.115-.192a4.819 4.819 0 0 0-.203-.301 5.018 5.018 0 0 0-.504-.566c-.048-.046-.09-.094-.142-.14-.083-.073-.175-.145-.265-.218-.08-.064-.156-.127-.24-.19-.097-.07-.205-.138-.31-.206-.108-.07-.21-.143-.326-.21l-158.748-92.254a9.186 9.186 0 0 0-1.203-.571 10.19 10.19 0 0 0-.336-.127c-.26-.095-.535-.17-.808-.247a13.294 13.294 0 0 0-1.907-.395c-.087-.01-.173-.026-.26-.036a14.843 14.843 0 0 0-1.448-.081l-.23-.001a15.132 15.132 0 0 0-1.645.104 13.018 13.018 0 0 0-1.629.297 11.67 11.67 0 0 0-1.195.363c-.069.025-.143.045-.212.07a9.532 9.532 0 0 0-1.312.62l-223.609 129.1c-1.696.98-2.544 2.267-2.54 3.552l-.023-8.125c-.004-1.286.844-2.572 2.54-3.551l223.61-129.101a9.282 9.282 0 0 1 1.24-.594c.023-.01.05-.016.071-.025.07-.026.143-.046.212-.071.251-.091.501-.183.763-.258.14-.04.288-.07.432-.105.082-.021.162-.041.244-.06.075-.018.146-.04.221-.055.28-.057.565-.107.854-.148.102-.015.207-.023.31-.034.071-.01.143-.017.215-.025.103-.011.207-.026.311-.035.283-.022.566-.038.85-.045.09-.002.18.002.27 0l.23.002c.127 0 .254-.003.382.002.32.01.64.032.956.064.037.003.072.01.11.015.086.01.17.026.257.036.245.03.491.059.733.102.107.019.205.056.311.077.296.062.58.136.865.216.15.042.31.066.456.113.121.04.234.09.352.134.114.04.226.083.337.127.42.169.828.353 1.203.57l158.746 92.255.106.062c.08.047.147.099.222.149.105.067.211.135.308.205.087.063.164.128.244.192.09.072.18.143.262.216.016.015.037.03.052.044.035.03.058.066.09.097.133.128.255.259.366.392.023.029.055.056.08.085.021.03.037.06.058.088.074.1.14.2.202.3.027.044.061.084.085.127.013.022.02.044.031.066.047.088.086.178.126.268.022.052.053.104.073.156.007.018.01.036.015.054.031.085.051.17.074.257.015.058.04.116.05.174.003.015.002.03.005.047.017.09.023.18.032.272.004.059.018.117.02.176l.001.075.023 8.125c0-.083-.014-.167-.02-.25" style="fill:#625167;fill-opacity:1;fill-rule:nonzero;stroke:none" transform="matrix(1.33333 0 0 -1.33333 -45.227 608.029)"/><path d="M463.246 214.294c0-.083-.014-.167-.021-.25-.008-.092-.014-.183-.031-.273-.013-.074-.036-.147-.055-.22-.023-.086-.043-.172-.075-.258-.024-.07-.057-.14-.088-.21a3.251 3.251 0 0 0-.126-.268c-.034-.065-.076-.127-.115-.192a4.417 4.417 0 0 0-.203-.301 5.018 5.018 0 0 0-.504-.566c-.048-.046-.091-.094-.141-.14-.083-.073-.175-.145-.266-.218-.08-.064-.155-.127-.24-.19-.097-.07-.204-.138-.31-.206-.107-.07-.21-.143-.326-.21l-158.747-92.254a9.186 9.186 0 0 0-1.203-.571 12.242 12.242 0 0 0-.336-.127c-.261-.095-.535-.17-.81-.247a13.134 13.134 0 0 0-1.906-.395c-.087-.01-.173-.026-.26-.036a14.825 14.825 0 0 0-1.448-.081l-.23-.001a15.114 15.114 0 0 0-1.645.104 13.018 13.018 0 0 0-1.63.297c-.41.1-.807.223-1.193.363-.07.025-.144.045-.212.07a9.545 9.545 0 0 0-1.313.62l-223.608 129.1c-1.697.98-2.544 2.267-2.541 3.552" style="fill:none;stroke:#1c1c1b;stroke-width:.75;stroke-linecap:round;stroke-linejoin:miter;stroke-miterlimit:10;stroke-dasharray:none;stroke-opacity:1" transform="matrix(1.33333 0 0 -1.33333 -45.227 608.029)"/><path d="M373.478 380.647c.8-.461 1.444-1.578 1.441-2.497l-.263-93.011c-.003-.918-.653-1.288-1.45-.826l-125.79 72.624c-.799.46-1.444 1.578-1.44 2.496l.262 93.01c.003.919.652 1.289 1.451.828z" style="opacity:.320007;fill:#625167;fill-opacity:1;fill-rule:nonzero;stroke:none" transform="matrix(1.33333 0 0 -1.33333 -45.227 608.029)"/><path d="M373.478 380.647c.8-.461 1.444-1.578 1.441-2.497l-.263-93.011c-.003-.918-.653-1.288-1.45-.826l-125.79 72.624c-.799.46-1.444 1.578-1.44 2.496l.262 93.01c.003.919.652 1.289 1.451.828zM246.931 438.642l128.101-73.264" style="fill:none;stroke:#625167;stroke-width:2;stroke-linecap:butt;stroke-linejoin:miter;stroke-miterlimit:10;stroke-dasharray:none;stroke-opacity:1" transform="matrix(1.33333 0 0 -1.33333 -45.227 608.029)"/><path d="m275.562 405.876 69.225-39.493M275.562 397.402l69.225-39.494M275.562 387.987l69.225-39.493M275.562 378.572l69.225-39.493M275.562 369.157l69.225-39.493M275.562 359.742l69.225-39.493" style="fill:none;stroke:#fff;stroke-width:3;stroke-linecap:round;stroke-linejoin:round;stroke-miterlimit:10;stroke-dasharray:none;stroke-opacity:1" transform="matrix(1.33333 0 0 -1.33333 -45.227 608.029)"/><path d="M118.684 446.385a8.136 8.136 0 1 0-16.272 0 8.136 8.136 0 0 0 16.272 0z" style="fill:none;stroke:#ffe259;stroke-width:3;stroke-linecap:butt;stroke-linejoin:miter;stroke-miterlimit:10;stroke-dasharray:none;stroke-opacity:1" transform="matrix(1.33333 0 0 -1.33333 -45.227 608.029)"/><path d="M130.828 178.938v-19.834M140.745 169.021h-19.833" style="fill:none;stroke:#ffe259;stroke-width:3;stroke-linecap:round;stroke-linejoin:miter;stroke-miterlimit:10;stroke-dasharray:none;stroke-opacity:1" transform="matrix(1.33333 0 0 -1.33333 -45.227 608.029)"/><path d="M109.69 79.021a8.137 8.137 0 1 0-16.273 0 8.137 8.137 0 0 0 16.273 0zM368.98 434.505a8.136 8.136 0 1 0-16.272 0 8.136 8.136 0 0 0 16.272 0zM425.361 303.028v-19.833M435.277 293.111h-19.833" style="fill:none;stroke:#89b7bb;stroke-width:3;stroke-linecap:butt;stroke-linejoin:miter;stroke-miterlimit:10;stroke-dasharray:none;stroke-opacity:1" transform="matrix(1.33333 0 0 -1.33333 -45.227 608.029)"/><path d="M257.642 92.834V76.487M265.816 84.66h-16.347" style="fill:none;stroke:#ffe259;stroke-width:3;stroke-linecap:round;stroke-linejoin:miter;stroke-miterlimit:10;stroke-dasharray:none;stroke-opacity:1" transform="matrix(1.33333 0 0 -1.33333 -45.227 608.029)"/><path d="M339.63 81.79a8.136 8.136 0 1 0-16.273 0 8.136 8.136 0 0 0 16.272 0zM70.83 393.522V373.69M80.747 383.605H60.913" style="fill:none;stroke:#89b7bb;stroke-width:3;stroke-linecap:butt;stroke-linejoin:miter;stroke-miterlimit:10;stroke-dasharray:none;stroke-opacity:1" transform="matrix(1.33333 0 0 -1.33333 -45.227 608.029)"/><path d="M439.176 405.313V385.48M449.093 395.396H429.26" style="fill:none;stroke:#ffe259;stroke-width:3;stroke-linecap:round;stroke-linejoin:miter;stroke-miterlimit:10;stroke-dasharray:none;stroke-opacity:1" transform="matrix(1.33333 0 0 -1.33333 -45.227 608.029)"/><path d="M51.228 144.651c.657.196 13.186 4.135 15.506 1.556 2.32-2.58-3.811-8.668-8.523-11.584-4.712-2.915-9.79-4.66-12.421-.34-2.632 4.317.425 8.871 5.438 10.368" style="fill:#1c1c1b;fill-opacity:1;fill-rule:nonzero;stroke:none" transform="matrix(1.33333 0 0 -1.33333 -45.227 608.029)"/><path d="M44.303 197.14c-.257 7.447-2.568 17.264 0 23.102 2.568 5.837 14.995.79 14.995.79l2.108-17.273s1.49-36.175 1.01-43.792c-.573-9.084-.442-19.685-.442-19.685s-11.886-9.686-17.436-1.982c0 0 .022 51.393-.235 58.84" style="fill:#ffe259;fill-opacity:1;fill-rule:nonzero;stroke:none" transform="matrix(1.33333 0 0 -1.33333 -45.227 608.029)"/><path d="M71.833 138.578c.689.198 13.827 4.19 16.227 1.47 2.399-2.72-4.072-9.024-9.028-12.025-4.955-3-10.281-4.772-12.99-.231-2.707 4.54.536 9.27 5.79 10.786" style="fill:#1c1c1b;fill-opacity:1;fill-rule:nonzero;stroke:none" transform="matrix(1.33333 0 0 -1.33333 -45.227 608.029)"/><path d="m81.135 198.344-2.107 17.271s-9.042 3.67-13.293 1.125c-.186.091-.371.184-.552.258-1.538.632-3.152 1.175-4.81 1.365-2.096.24-4.303-.113-5.704-1.863-3.136-3.92-2.426-10.189.43-14.618 1.724-2.674 4.228-4.678 7.14-5.089.474-.067.948-.097 1.422-.108.17-1.718.317-3.393.37-4.96.258-7.446.237-58.84.237-58.84 5.55-7.703 17.679 1.798 17.679 1.798s-.375 10.785.199 19.87c.48 7.616-1.011 43.791-1.011 43.791" style="fill:#ffe259;fill-opacity:1;fill-rule:nonzero;stroke:none" transform="matrix(1.33333 0 0 -1.33333 -45.227 608.029)"/><path d="M85.53 277.972c-.726.08-1.789.006-2.313.591-1.262 1.402-.728 4.041-1.437 5.753-.614 1.482-1.738 2.94-3.29 3.44-.29.093-.595.154-.914.174-4.814.31-9.072-2.206-9.437-7.225-.226-3.109.623-6.633 2.092-9.385a4.24 4.24 0 0 0 .295-.764l-2.604.526s-2.079-6.69-1.989-7.328c.09-.638 3.121-5.22 9.711-2.36 0 0 .653 3.915 1.301 4.641.648.728 4.113.123 4.761.85.65.727 1.062 5.58 1.495 6.557.434.978 5.997 2.651 6.52 3.278.524.626-.815.885-4.19 1.252" style="fill:#ffb694;fill-opacity:1;fill-rule:nonzero;stroke:none" transform="matrix(1.33333 0 0 -1.33333 -45.227 608.029)"/><path d="m80.05 277.468-.082-.009a.626.626 0 0 0-.688.553l-.126 1.153a.625.625 0 0 0 .553.688l.081.009a.626.626 0 0 0 .688-.553l.126-1.153a.626.626 0 0 0-.553-.688" style="fill:#1c1c1b;fill-opacity:1;fill-rule:nonzero;stroke:none" transform="matrix(1.33333 0 0 -1.33333 -45.227 608.029)"/><path d="M78.797 270.43s2.925 3.78 3.742-.34" style="fill:none;stroke:#1c1c1b;stroke-width:.75;stroke-linecap:round;stroke-linejoin:round;stroke-miterlimit:10;stroke-dasharray:none;stroke-opacity:1" transform="matrix(1.33333 0 0 -1.33333 -45.227 608.029)"/><path d="M73.637 268.81c1.173 2.355-3.025 6.157-2.6 8.438.08.425.293.871.686 1.052.86.421 1.24-.757 1.554-1.294.291-.504 1.066-2.793 1.835-2.726 3.094.26 1.135 5.222 2.15 7.035.497.886 1.568 1.51 2.46 1.95 0 0 7.08 3.083 5.576 7.144-1.505 4.062-4.319-.3-7.048-.752 0 0 2.397 1.477 1.112 2.468-1.285.992-3.24-2.768-5.646-3.52-3.542-1.108-7.584-1.474-9.36-5.178-2.289-4.77-.592-10.035 2.377-14.082 1.226-1.672 3.71-2.632 5.657-1.665.637.316 1.032.698 1.247 1.13" style="fill:#1c1c1b;fill-opacity:1;fill-rule:nonzero;stroke:none" transform="matrix(1.33333 0 0 -1.33333 -45.227 608.029)"/><path d="M33.92 209.444s12.87 20.892 16.792 31.972c2.315 6.539 4.68 20.106 10.866 23.334 3.131 1.633 7.551-.078 10.67-.631 3.088-.548 11.07-4.003 13.061-6.978 2.682-4.004.9-13.077.66-26.594-.474-26.715-1.53-39.135-1.53-39.135s-46.443-5-50.519 18.032" style="fill:#ff4c4c;fill-opacity:1;fill-rule:nonzero;stroke:none" transform="matrix(1.33333 0 0 -1.33333 -45.227 608.029)"/><path d="M94.504 251.147s.266 5.67-6.308 5.903c-6.574.234-4.493-7.085-4.493-7.085z" style="fill:#ffb694;fill-opacity:1;fill-rule:nonzero;stroke:none" transform="matrix(1.33333 0 0 -1.33333 -45.227 608.029)"/><path d="M87.859 254.998c-4.514 1.84 10.364-7.775 6.433-4.866-2.003 1.482-4.16 3.376-6.433 4.866-3.88 2.543-10.18 3.701-12.488.043-2.31-3.658-.265-9.242 4.786-13.626 6.499-5.64 11.35-10.999 22.62-9.98 3.619 1.632 3.076 3.98 2.048 7.172-1.328 4.128-3.251 8.912-6.03 12.303-3.228 3.941-6.404 2.241-10.936 4.088" style="fill:#ff4c4c;fill-opacity:1;fill-rule:nonzero;stroke:none" transform="matrix(1.33333 0 0 -1.33333 -45.227 608.029)"/><path d="M87.859 254.998s11.689-6.925 11.926-12.6" style="fill:none;stroke:#1c1c1b;stroke-width:.75;stroke-linecap:round;stroke-linejoin:round;stroke-miterlimit:10;stroke-dasharray:none;stroke-opacity:1" transform="matrix(1.33333 0 0 -1.33333 -45.227 608.029)"/><path d="M61.578 264.75c.411.214.845.369 1.294.478-3.455 2.835-8.79 4.982-9.463 5.907-1.09 1.498 7.18 4.754 9.181 7.604 2.001 2.85-.719 12.602-2.493 13.493-1.775.892-13.613-8.617-20.024-12.975-6.41-4.358 12.245-30.418 12.245-30.418.141-.206.303-.37.48-.5 1.894 6.526 4.362 14.105 8.78 16.41" style="fill:#ff4c4c;fill-opacity:1;fill-rule:nonzero;stroke:none" transform="matrix(1.33333 0 0 -1.33333 -45.227 608.029)"/><path d="M70.83 289.791c-.792-.225-1.607-.545-2.034-.672.458.11 1.458.37 2.034.672" style="fill:#ffb694;fill-opacity:1;fill-rule:nonzero;stroke:none" transform="matrix(1.33333 0 0 -1.33333 -45.227 608.029)"/><path d="M74.09 287.415c-.514-.057-3.454-.923-3.454-.923s3.346 1.189 3.07 1.983c-.273.794-3.077-.443-3.6-.348 0 0 3.14.755 2.679 1.63-.217.415-1.068.286-1.954.034-.576-.303-1.576-.562-2.034-.671a1.28 1.28 0 0 0-.245-.057s.096.02.244.057c.428.127 1.243.446 2.035.67.34.18.532.374.37.56-.52.604-3.503-.298-3.935-.355-1.108-.144-3.62-1.52-4.875-2.334.572-2 .96-4.298.896-6.158.368-.348.948-.704 1.885-.63 1.636.133 2.694.307 3.45.646.759.34 1.359 1.719 1.225 2.204-.134.484 5.658 2.384 5.71 3.199.051.814-.952.55-1.467.493" style="fill:#ffb694;fill-opacity:1;fill-rule:nonzero;stroke:none" transform="matrix(1.33333 0 0 -1.33333 -45.227 608.029)"/><path d="M53.409 271.135s-4.533 1.815-6.98 3.075" style="fill:none;stroke:#1c1c1b;stroke-width:.75;stroke-linecap:round;stroke-linejoin:round;stroke-miterlimit:10;stroke-dasharray:none;stroke-opacity:1" transform="matrix(1.33333 0 0 -1.33333 -45.227 608.029)"/><path d="M199.057 268.654c-.496-.507-10.126-10.096-8.877-13.462 1.25-3.366 9.774-.673 14.711 2.244 4.936 2.917 8.975 6.73 6.282 11.218-2.692 4.488-8.335 3.874-12.116 0" style="fill:#1c1c1b;fill-opacity:1;fill-rule:nonzero;stroke:none" transform="matrix(1.33333 0 0 -1.33333 -45.227 608.029)"/><path d="M213.41 313.201c.254 7.371 2.542 17.086 0 22.865-2.542 5.778-14.84.781-14.84.781l-2.087-17.095s-1.476-13.32-1-20.86c.568-8.99 0-32.792 0-32.792s12.202-7.625 17.695 0c0 0-.022 39.731.232 47.101" style="fill:#89b7bb;fill-opacity:1;fill-rule:nonzero;stroke:none" transform="matrix(1.33333 0 0 -1.33333 -45.227 608.029)"/><path d="M218.233 260.347c-.557-.57-11.38-11.346-9.976-15.128 1.404-3.78 10.984-.756 16.53 2.522 5.548 3.277 10.086 7.564 7.06 12.606-3.025 5.042-9.365 4.353-13.614 0" style="fill:#1c1c1b;fill-opacity:1;fill-rule:nonzero;stroke:none" transform="matrix(1.33333 0 0 -1.33333 -45.227 608.029)"/><path d="M232.723 308.654c.278 8.063 2.502 18.498-.278 24.818-2.781 6.32-19.32-8.373-25.368-3.806 0 0 1.218-5.667 8.604-14.215-.002-.753-1.616-25.92-1.095-34.167.62-9.835 0-23.458 0-23.458s13.348-8.341 19.357 0c0 0-1.498 42.765-1.22 50.828M209.348 386.33c-4.87 1.555-8.744-3.178-11.612-6.626-4.23-5.083-9.227-9.927-15.061-13.296-4.68-2.703-14.584-7.218-14.584-7.218s.09-3.336 1.765-6.612c1.674-3.276 4.888-6.408 4.889-6.41.242-.475 11.174 4.96 12.269 5.54 7.415 3.927 14.887 9.29 20.346 15.785 2.557 3.044 5.017 6.78 5.85 10.676.77 3.6-.722 7.16-3.862 8.161" style="fill:#89b7bb;fill-opacity:1;fill-rule:nonzero;stroke:none" transform="matrix(1.33333 0 0 -1.33333 -45.227 608.029)"/><path d="M218.089 393.08c-2.838-5.153-9.112-3.361-10.531-1.597-1.419 1.764-.523 10.933-.374 13.376.15 2.442 2.443 4.28 2.443 4.28l11.3-11.13s.672 3.97 2.838 3.03c2.166-.938.598-5.082-1.568-5.362l-.224-12.373h-9.635l.075 6.263" style="fill:#ffb694;fill-opacity:1;fill-rule:nonzero;stroke:none" transform="matrix(1.33333 0 0 -1.33333 -45.227 608.029)"/><path d="M208.025 400.027a.565.565 0 0 0-.5.62l.1.908a.565.565 0 0 0 .62.5.566.566 0 0 0 .499-.621l-.098-.908a.566.566 0 0 0-.621-.5" style="fill:#1c1c1b;fill-opacity:1;fill-rule:nonzero;stroke:none" transform="matrix(1.33333 0 0 -1.33333 -45.227 608.029)"/><path d="M213.139 394.947s-4.602-6.16-6.062.73" style="fill:none;stroke:#1c1c1b;stroke-width:.75;stroke-linecap:round;stroke-linejoin:miter;stroke-miterlimit:10;stroke-dasharray:none;stroke-opacity:1" transform="matrix(1.33333 0 0 -1.33333 -45.227 608.029)"/><path d="M210.321 403.611c-.364-.766 1.04-3.79-5.602-5.377-3.436-.822 4.183-1.414 4.557-1.827" style="fill:#ffb694;fill-opacity:1;fill-rule:nonzero;stroke:#1c1c1b;stroke-width:.75;stroke-linecap:round;stroke-linejoin:round;stroke-miterlimit:10;stroke-dasharray:none;stroke-opacity:1" transform="matrix(1.33333 0 0 -1.33333 -45.227 608.029)"/><path d="M213.02 398.312a.615.615 0 0 1 .673.543l.107.985a.614.614 0 0 1-.542.674.615.615 0 0 1-.674-.542l-.107-.987a.612.612 0 0 1 .542-.673" style="fill:#1c1c1b;fill-opacity:1;fill-rule:nonzero;stroke:none" transform="matrix(1.33333 0 0 -1.33333 -45.227 608.029)"/><path d="M227.217 405.345c-.094 2.725-1.23 5.215-4.183 5.643-.01.002-.261.758-.29.812a3.416 3.416 0 0 1-1.624 1.542c-.366.166-1.03.304-1.898.405-.276.032-.58.06-.894.083a9.491 9.491 0 0 0-1.732-2.364c-.835-.844-1.84-1.318-2.802-1.92a27.067 27.067 0 0 0-.677-.497c-.526-.368-1.037-.758-1.548-1.147-1.257-.956-2.528-1.907-3.85-2.777a17.61 17.61 0 0 1 4.448.835s.13-4.877 3.213-4.39c2.509.396 3.339-2.486 4.03-4.284.38-.99 1.606-.635 1.84.24.236.886 1.055 3.941 2.522 3.096.419-.24.612-.918.644-1.379.035-.51-.091-1.036-.296-1.502-.373-.845-1.192-1.77-2.218-1.508-.121-.848-.21-1.707-.15-2.564.039-.573.142-1.634.876-1.739 1.492-.213 2.618 2.722 3.037 3.742 1.198 2.916 1.66 6.508 1.552 9.673" style="fill:#1c1c1b;fill-opacity:1;fill-rule:nonzero;stroke:none" transform="matrix(1.33333 0 0 -1.33333 -45.227 608.029)"/><path d="M207.673 411.298s-5.704-3.723-.88-7.9c4.823-4.178 9.15-2.548 11.497-2.01 2.346.538 11.051 4.919 10.699 6.174-.352 1.254-19.19 4.86-21.316 3.736" style="fill:#dfac00;fill-opacity:1;fill-rule:nonzero;stroke:none" transform="matrix(1.33333 0 0 -1.33333 -45.227 608.029)"/><path d="M206.993 410.323c.317.254.56 1.103.764 1.456a19.968 19.968 0 0 0 2.307 3.217c2.28 2.572 5.418 4.432 8.961 3.96 2.593-.344 5.061-1.643 6.708-3.694a9.175 9.175 0 0 0 1.761-3.55c.264-1.074 1.12-3.09.35-4.062-1.018-1.285-9.173-7.804-16.595-3.831-7.415 3.969-4.262 6.499-4.256 6.504" style="fill:#ffe259;fill-opacity:1;fill-rule:nonzero;stroke:none" transform="matrix(1.33333 0 0 -1.33333 -45.227 608.029)"/><path d="M193.865 342.377s6.203 16.55 8.729 31.024c2.528 14.473 10.042 13.85 10.042 13.85s-.385-1.461 3.019-2.708c3.403-1.247 6.254.622 6.254.622s8.45-4.505 11.01-9.013c1.818-10.468 3.26-39.865 1.838-44.103-1.422-4.238-30.554-16.102-40.892 10.328" style="fill:#ff4c4c;fill-opacity:1;fill-rule:nonzero;stroke:none" transform="matrix(1.33333 0 0 -1.33333 -45.227 608.029)"/><path d="m212.635 387.252-1.612.138-1.786-16.184s5.611 8.043 8.75 10.157c3.137 2.115 5.372 2.974 5.372 2.974l-1.45.828s-8.498-2.178-9.274 2.087" style="fill:#89b7bb;fill-opacity:1;fill-rule:nonzero;stroke:none" transform="matrix(1.33333 0 0 -1.33333 -45.227 608.029)"/><path d="M225.75 382.828c.208-.144-11.544-8.927-14.31-26.348l4.858-2.525s5.261 23.143 13.994 25.343zM211.024 387.39s-7.437-15.736-8.547-26.553h-2.742s5.49 26.542 11.289 26.553" style="fill:#ffe259;fill-opacity:1;fill-rule:nonzero;stroke:none" transform="matrix(1.33333 0 0 -1.33333 -45.227 608.029)"/><path d="M200.459 363.599s14.879-9.081 34.874-9.643l-.183-4.544.076-2.272s-27.51.707-36.538 9.966z" style="fill:#ffe259;fill-opacity:1;fill-rule:nonzero;stroke:none" transform="matrix(1.33333 0 0 -1.33333 -45.227 608.029)"/><path d="M193.865 342.377s6.203 16.55 8.729 31.024c.409 2.335.792 4.28 1.166 5.898" style="fill:none;stroke:#1c1c1b;stroke-width:.75;stroke-linecap:round;stroke-linejoin:round;stroke-miterlimit:10;stroke-dasharray:none;stroke-opacity:1" transform="matrix(1.33333 0 0 -1.33333 -45.227 608.029)"/><path d="m127.608 402.286 6.382-2.02-5.886-3.422-6.382 2.022zM145.14 388.52l5.886 3.422c-2.085-1.212-3.377-3.788-3.387-7.45-.002-.423.02-.852.051-1.284.01-.136.027-.272.04-.41.027-.277.061-.555.101-.836.044-.306.1-.615.16-.924.04-.212.076-.423.123-.635.044-.198.096-.395.146-.593.07-.276.14-.552.22-.83.047-.158.097-.318.147-.478.097-.31.201-.62.311-.928.046-.128.09-.256.137-.383.161-.427.33-.853.514-1.275l.066-.144a28.1 28.1 0 0 1 1.274-2.522c.037-.065.072-.132.11-.198.234-.403.48-.798.731-1.188.074-.114.151-.224.226-.337a27.708 27.708 0 0 1 1.872-2.483c.145-.17.293-.334.44-.5.254-.281.513-.557.776-.824a20.918 20.918 0 0 1 .887-.861c.216-.196.436-.387.657-.573.132-.11.263-.222.396-.328.241-.192.486-.373.732-.551.117-.084.232-.173.35-.254a14.492 14.492 0 0 1 2.446-1.382c.194-.086.385-.157.577-.23.276-.107.55-.202.818-.283.173-.051.346-.103.516-.144a9.631 9.631 0 0 1 1.09-.196c.117-.013.234-.027.35-.035a7.16 7.16 0 0 1 .743-.015c.056.002.115-.002.17.002.295.016.58.054.858.108.07.013.136.03.205.046.22.05.431.112.638.185.066.022.132.043.196.069.263.103.52.22.761.362l-5.886-3.421-.063-.036a5.418 5.418 0 0 0-.583-.285c-.037-.016-.077-.026-.115-.041-.064-.025-.13-.046-.196-.07-.1-.035-.199-.076-.302-.105-.109-.033-.224-.053-.336-.078-.069-.016-.136-.034-.205-.047-.038-.008-.073-.02-.11-.026a6.665 6.665 0 0 0-.702-.082h-.045c-.056-.003-.115 0-.17-.001-.183-.006-.365-.013-.553-.005-.063.003-.129.015-.192.019-.115.008-.232.022-.349.035-.109.013-.214.016-.325.033-.095.014-.194.044-.29.062-.157.03-.315.063-.475.1-.086.022-.169.033-.256.056-.085.023-.175.064-.26.09-.27.08-.542.175-.818.282-.098.037-.19.059-.289.099-.095.04-.192.089-.288.132a14.661 14.661 0 0 0-1.338.677 17.14 17.14 0 0 0-1.108.704c-.118.08-.233.17-.35.255-.246.177-.49.358-.73.55-.135.107-.267.218-.398.329a20.578 20.578 0 0 0-1.05.939c-.082.079-.166.15-.247.23-.085.084-.163.178-.247.263-.264.268-.522.544-.776.827-.08.09-.167.172-.247.264-.066.075-.128.157-.193.235-.154.18-.303.364-.452.55-.098.122-.2.238-.298.362-.077.1-.149.205-.225.306-.109.144-.216.29-.323.437-.073.102-.15.2-.224.305-.12.17-.234.348-.35.523-.075.112-.152.223-.225.336-.032.049-.066.095-.097.144-.206.323-.406.65-.599.98l-.036.064c-.038.066-.073.134-.11.2-.136.237-.27.474-.399.714-.058.11-.11.222-.168.332-.06.117-.119.232-.177.349-.05.103-.105.203-.155.306-.13.27-.252.543-.373.815-.022.05-.047.099-.068.15a25.818 25.818 0 0 0-.445 1.083c-.025.064-.045.127-.069.19-.048.128-.09.255-.137.383-.062.174-.129.347-.187.522-.046.136-.082.272-.125.408-.05.159-.099.317-.145.477-.029.099-.064.198-.09.297-.05.179-.087.356-.132.534-.05.197-.1.394-.145.59-.015.07-.036.139-.05.208-.03.144-.047.285-.074.428-.059.309-.115.618-.159.925-.012.085-.033.172-.044.257-.025.195-.038.387-.057.58-.014.136-.03.273-.04.408a16.41 16.41 0 0 0-.052 1.285c.011 3.66 1.303 6.238 3.388 7.449M133.245 414.565l7.677 4.375 5.523-7.203c.133.012.266.022.4.03.15.01.31 0 .462.005.34.012.68.019 1.028.009.095-.003.184.007.279.002.127-.005.26-.03.389-.038.396-.026.796-.066 1.202-.12.132-.017.259-.018.392-.038.148-.022.298-.055.447-.082.132-.023.262-.045.394-.071.493-.097.99-.206 1.494-.343l.038-.01-5.886-3.42c-.518.14-1.027.253-1.532.352-.132.026-.263.049-.393.072-.284.049-.561.084-.84.12-.406.054-.806.093-1.202.119-.224.015-.448.03-.668.036-.348.01-.688.003-1.028-.01-.288-.01-.58-.01-.862-.034l-5.523 7.203-7.677-4.374zM166.516 343.927l-1.466-6.494-5.886-3.421 1.466 6.494zM185.496 354.743c-.62-2.3-1.545-4.281-2.725-5.926l3.475-8.377-5.886-3.421-3.475 8.377c1.18 1.645 2.104 3.628 2.725 5.927z" style="fill:#ffe259;fill-opacity:1;fill-rule:nonzero;stroke:none" transform="matrix(1.33333 0 0 -1.33333 -45.227 608.029)"/><path d="M165.774 394.708c-.05.059-.104.114-.155.172a54.526 54.526 0 0 1-1.365 1.504c-.173.184-.352.36-.527.542a50.885 50.885 0 0 1-2.93 2.817l-1.423 8.162-10.825 6.249 5.886 3.42 10.824-6.248 1.425-8.162a51.632 51.632 0 0 0 1.93-1.805c.056-.055.115-.105.171-.161.281-.277.554-.568.83-.853.175-.18.352-.356.525-.54.463-.491.918-.994 1.366-1.506.051-.058.104-.112.154-.17l.011-.012a58.396 58.396 0 0 0 1.52-1.822l5.546.81 7.632-13.211-3.51-4.344.093-.242c.086-.224.158-.45.241-.672a56.28 56.28 0 0 0 .573-1.595c.026-.075.056-.15.081-.225.068-.203.122-.407.187-.611a56.6 56.6 0 0 0 .518-1.693c.038-.133.085-.265.121-.398.044-.157.074-.314.116-.47.186-.692.355-1.382.51-2.071.037-.168.088-.338.124-.506.04-.188.08-.377.118-.565l6.372-5.342-.035-12.438-5.886-3.421.035 12.438-6.373 5.343c-.07.356-.162.715-.242 1.073a53.262 53.262 0 0 1-.509 2.069c-.077.288-.154.577-.237.866a56.6 56.6 0 0 1-.518 1.693c-.089.28-.174.56-.269.839a58.79 58.79 0 0 1-.568 1.585c-.115.308-.219.616-.339.922l3.511 4.344-7.632 13.213-5.546-.811c-.5.623-1.01 1.234-1.53 1.833" style="fill:#ffe259;fill-opacity:1;fill-rule:nonzero;stroke:none" transform="matrix(1.33333 0 0 -1.33333 -45.227 608.029)"/><path d="M153.328 361.028c6.41-3.701 11.625-.734 11.646 6.637.021 7.37-5.16 16.346-11.57 20.046-6.415 3.704-11.63.731-11.652-6.64-.02-7.371 5.161-16.339 11.576-20.043m-31.607 37.838 6.382-2.022c.621 2.299 1.545 4.288 2.725 5.927l-3.47 8.373 7.677 4.375 5.523-7.203c2.025.181 4.214-.027 6.525-.656l1.466 6.494 10.824-6.25 1.424-8.162c2.307-2.037 4.496-4.356 6.508-6.868l5.545.812 7.633-13.213-3.51-4.344c1.166-2.993 2.076-6.041 2.681-9.048l6.373-5.343-.035-12.437-6.382 2.021c-.62-2.299-1.545-4.281-2.725-5.926l3.475-8.377-7.682-4.371-5.524 7.202c-2.019-.184-4.214.028-6.525.656l-1.466-6.494-10.824 6.25-1.424 8.162c-2.307 2.038-4.49 4.354-6.507 6.868l-5.546-.811-7.627 13.21 3.506 4.346c-1.167 2.993-2.077 6.041-2.683 9.049l-6.372 5.342z" style="fill:#ffe259;fill-opacity:1;fill-rule:nonzero;stroke:none" transform="matrix(1.33333 0 0 -1.33333 -45.227 608.029)"/><path d="M153.328 361.028c6.41-3.701 11.625-.734 11.646 6.637.021 7.37-5.16 16.346-11.57 20.046-6.415 3.704-11.63.731-11.652-6.64-.02-7.371 5.161-16.339 11.576-20.043m-18.293 54.491 5.523-7.203c2.025.181 4.214-.027 6.525-.656l1.466 6.494 10.824-6.25 1.424-8.162c2.307-2.037 4.496-4.356 6.508-6.868l5.545.812 7.633-13.213-3.51-4.344c1.166-2.993 2.076-6.041 2.681-9.048l6.373-5.343-.035-12.437-6.382 2.021c-.62-2.299-1.545-4.281-2.725-5.926l3.475-8.377m-13.206 2.831c-2.019-.184-4.214.028-6.525.656l-1.466-6.494m-36.59 64.584 5.53-1.752c.621 2.299 1.545 4.288 2.725 5.927M146.445 411.736l-5.886-3.42M160.798 399.742l5.886 3.421M159.374 407.904l5.886 3.421M172.85 393.686l5.887 3.42M180.483 380.473l5.886 3.42M176.972 376.13l5.98 3.177M179.654 367.081l5.886 3.42M186.027 361.738l5.886 3.421M176.885 345.396l5.886 3.42" style="fill:none;stroke:#1c1c1b;stroke-width:.75;stroke-linecap:round;stroke-linejoin:round;stroke-miterlimit:10;stroke-dasharray:none;stroke-opacity:1" transform="matrix(1.33333 0 0 -1.33333 -45.227 608.029)"/><path d="M189.058 357.36c-1.16-.67-2.357-1.194-3.853-1.073-2.325.189-4.122 3.263-7.013 2.31-2.89-.953-3.105.114-2.89-.953.214-1.067 5.312-1.891 5.913-3.344.601-1.454-10.269.654-10.864-1.1-.595-1.751 7.834-2.042 7.834-2.042s-9.439.42-6.932-2.056c1.535-1.516 6.932-1.17 6.932-1.17s-8.79-.478-3.002-2.8c5.788-2.32 20.083 6.018 20.083 6.018-1.125 2.482-2.843 5.178-3.4 7.825-.999-.467-1.892-1.086-2.808-1.614" style="fill:#ffb694;fill-opacity:1;fill-rule:nonzero;stroke:none" transform="matrix(1.33333 0 0 -1.33333 -45.227 608.029)"/><path d="M189.058 357.36c-1.16-.67-2.357-1.194-3.853-1.073-2.325.189-4.122 3.263-7.013 2.31-2.89-.953-3.105.114-2.89-.953.214-1.067 5.312-1.891 5.913-3.344.601-1.454-10.269.654-10.864-1.1-.595-1.751 7.834-2.042 7.834-2.042s-9.439.42-6.932-2.056c1.535-1.516 6.932-1.17 6.932-1.17s-8.79-.478-3.002-2.8c5.788-2.32 20.083 6.018 20.083 6.018-1.125 2.482-2.843 5.178-3.4 7.825-.999-.467-1.892-1.086-2.808-1.614z" style="fill:none;stroke:#1c1c1b;stroke-width:.75;stroke-linecap:round;stroke-linejoin:miter;stroke-miterlimit:10;stroke-dasharray:none;stroke-opacity:1" transform="matrix(1.33333 0 0 -1.33333 -45.227 608.029)"/><path d="M230.115 379.702c-4.488 2.447-9.187-1.469-12.655-4.312-5.113-4.193-10.936-8.006-17.3-10.212-5.106-1.77-15.687-4.333-15.687-4.333s-.54-3.293.485-6.827c1.025-3.533 3.59-7.215 3.59-7.219.15-.51 11.91 2.76 13.095 3.123 8.023 2.456 16.373 6.31 22.961 11.658 3.087 2.506 6.208 5.71 7.763 9.378 1.436 3.39.643 7.166-2.252 8.744" style="fill:#89b7bb;fill-opacity:1;fill-rule:nonzero;stroke:none" transform="matrix(1.33333 0 0 -1.33333 -45.227 608.029)"/><path d="M217.46 375.39c-5.112-4.193-10.936-8.006-17.3-10.212-2.172-.753-5.335-1.65-8.253-2.431" style="fill:none;stroke:#1c1c1b;stroke-width:.75;stroke-linecap:round;stroke-linejoin:miter;stroke-miterlimit:10;stroke-dasharray:none;stroke-opacity:1" transform="matrix(1.33333 0 0 -1.33333 -45.227 608.029)"/><path d="m176.564 406.775-1.02-2.617-5.223-3.034 1.022 2.617zM160.857 434.505l2.948-1.37-5.22-3.034-2.949 1.37zM164.338 421.809c.002.033.007.064.01.098a5.506 5.506 0 0 0 .096.669c.028.137.061.269.1.397.015.05.028.1.045.15.058.169.122.33.198.482l.025.043c.07.135.149.26.234.38.029.04.061.078.091.116.073.092.152.178.234.258.034.033.068.067.103.098.119.103.244.199.381.278l5.221 3.035a2.546 2.546 0 0 1-.381-.278c-.035-.031-.068-.065-.102-.1a2.594 2.594 0 0 1-.234-.256c-.031-.04-.063-.077-.092-.117a3.207 3.207 0 0 1-.234-.38l-.025-.042a3.935 3.935 0 0 1-.198-.483l-.045-.15a4.773 4.773 0 0 1-.1-.396c-.012-.058-.024-.116-.034-.176a5.892 5.892 0 0 1-.062-.496c-.002-.032-.007-.063-.01-.095a6.883 6.883 0 0 1-.009-.63c.001-.058.006-.118.01-.177a7.208 7.208 0 0 1 .068-.717c.023-.166.053-.335.086-.506.013-.063.022-.124.037-.187.021-.098.047-.198.072-.297.026-.103.05-.206.079-.31l.063-.205c.039-.127.079-.254.123-.382.021-.064.045-.128.069-.192.049-.135.1-.27.156-.406l.068-.167a11.828 11.828 0 0 1 .632-1.281l.055-.1c.125-.217.257-.43.393-.635l.093-.14c.127-.187.257-.37.391-.546.02-.026.039-.054.06-.08.153-.2.311-.39.472-.574.118-.133.239-.258.36-.383.065-.068.13-.141.196-.206a9.716 9.716 0 0 1 .956-.821c.265-.2.531-.385.799-.54.225-.13.451-.24.676-.335l.103-.045c.181-.073.361-.135.539-.185.054-.015.107-.026.161-.04a3.848 3.848 0 0 1 .474-.084c.062-.007.124-.015.186-.02.078-.003.154-.004.229-.004h.14c.104.007.206.017.306.033.015.002.032.002.048.005a2.585 2.585 0 0 1 .883.315l-5.221-3.034-.028-.015a2.693 2.693 0 0 0-.492-.213l-.055-.016a2.576 2.576 0 0 0-.301-.07l-.008-.001c-.015-.003-.032-.003-.048-.006a2.798 2.798 0 0 0-.262-.03l-.043-.001c-.046-.002-.093-.001-.14-.001-.054 0-.108-.004-.163-.001-.021 0-.044.005-.066.006a3.037 3.037 0 0 0-.187.019c-.045.005-.09.006-.136.013l-.066.014c-.09.016-.181.036-.272.058-.041.01-.082.015-.124.026-.012.003-.024.009-.037.013a4.763 4.763 0 0 0-.538.185c-.013.005-.026.007-.039.013-.021.009-.043.022-.064.032a6.165 6.165 0 0 0-.677.336c-.268.154-.534.34-.798.539a9.74 9.74 0 0 0-.956.82l-.016.014c-.062.06-.121.13-.182.194-.12.125-.241.248-.358.382a11.985 11.985 0 0 0-.455.549l-.018.024c-.02.027-.039.055-.059.08-.092.122-.183.242-.271.368-.041.058-.079.119-.12.179l-.094.14c-.028.044-.058.086-.087.13-.092.145-.183.292-.27.443l-.035.063-.055.098c-.053.094-.106.186-.157.282a11.59 11.59 0 0 0-.219.43l-.006.014c-.074.153-.145.307-.211.46l-.039.095-.07.17c-.027.07-.058.14-.085.21l-.069.192c-.023.065-.048.13-.07.195l-.039.109c-.03.09-.055.18-.083.27l-.063.207-.017.058c-.024.084-.041.167-.062.25-.025.1-.052.2-.073.299l-.012.05c-.011.047-.015.09-.024.137a9.558 9.558 0 0 0-.086.506c-.005.034-.014.069-.018.104-.005.039-.005.076-.009.115-.02.168-.033.333-.042.496-.003.06-.008.12-.009.18-.006.215-.004.425.009.628" style="fill:#625167;fill-opacity:1;fill-rule:nonzero;stroke:none" transform="matrix(1.33333 0 0 -1.33333 -45.227 608.029)"/><path d="m184.28 408.698.229 1.916-2.782 2.771c-.021.202-.052.407-.08.612-.066.476-.147.96-.251 1.452-.017.082-.04.164-.057.246-.075.335-.158.672-.25 1.013-.062.234-.123.466-.194.702l1.89 1.543-2.996 6.183-2.686.108a27.87 27.87 0 0 1-1.211 1.625c-.102.128-.206.252-.31.377-.406.491-.82.97-1.25 1.415v.001l-.28 3.558-3.302 2.385-2.574-1.496c-.22.094-.437.175-.654.253-.05.018-.098.04-.146.055a10.29 10.29 0 0 1-2.286.505l-2.28 3.482-3.883-1.22 5.222 3.035 3.883 1.22 2.279-3.483c.173-.015.346-.037.52-.064.032-.004.063-.014.094-.019.062-.01.124-.018.186-.029l3.303 1.92 4.86-3.509.279-3.558c.29-.303.579-.617.86-.94.134-.154.26-.32.39-.477.105-.125.208-.249.31-.376.079-.1.162-.192.24-.293.27-.35.535-.708.794-1.077l.177-.255 2.686-.109 2.996-6.182-1.89-1.544.148-.51c.017-.065.029-.127.046-.19.093-.343.176-.682.25-1.019.015-.063.034-.128.048-.19.004-.018.005-.034.009-.05.104-.494.185-.977.25-1.454.008-.05.02-.104.027-.153.02-.153.038-.305.053-.455v-.003l2.783-2.772-.626-5.235-4.064-2.36.768-2.35-5.221-3.035-1.245 3.805c.66.61 1.193 1.38 1.589 2.28z" style="fill:#625167;fill-opacity:1;fill-rule:nonzero;stroke:none" transform="matrix(1.33333 0 0 -1.33333 -45.227 608.029)"/><path d="M165.416 417.065c1.033-2.133 2.583-3.832 4.15-4.737 1.127-.65 2.264-.89 3.226-.588 2.299.72 2.727 4.278.956 7.935-1.034 2.134-2.584 3.834-4.154 4.74-1.126.65-2.261.891-3.222.59-2.3-.724-2.727-4.277-.956-7.94m-10.411 9.173.63 5.233 2.949-1.37c.4.901.933 1.666 1.588 2.278l-1.244 3.806 3.884 1.22 2.278-3.483c.999-.092 2.036-.364 3.086-.813l1.017 2.62 4.86-3.508.279-3.558a26.68 26.68 0 0 0 2.772-3.418l2.685-.109 2.996-6.182-1.89-1.544c.417-1.39.698-2.744.832-4.024l2.782-2.772-.626-5.235-2.952 1.373c-.396-.898-.93-1.668-1.59-2.278l1.246-3.805-3.88-1.218-2.282 3.48c-1 .092-2.036.37-3.082.81l-1.021-2.617-4.861 3.514-.278 3.552a27.51 27.51 0 0 0-2.771 3.418l-2.686.108-2.991 6.186 1.885 1.541a22.27 22.27 0 0 0-.832 4.03z" style="fill:#625167;fill-opacity:1;fill-rule:nonzero;stroke:none" transform="matrix(1.33333 0 0 -1.33333 -45.227 608.029)"/><path d="M165.416 417.065c1.033-2.133 2.583-3.832 4.15-4.737 1.127-.65 2.264-.89 3.226-.588 2.299.72 2.727 4.278.956 7.935-1.034 2.134-2.584 3.834-4.154 4.74-1.126.65-2.261.891-3.222.59-2.3-.724-2.727-4.277-.956-7.94m-9.78 14.406 2.948-1.37c.4.901.933 1.666 1.588 2.278l-1.244 3.806 3.884 1.22 2.278-3.483c.999-.092 2.036-.364 3.086-.813l1.017 2.62 4.86-3.508.279-3.558a26.68 26.68 0 0 0 2.772-3.418l2.685-.109 2.996-6.182-1.89-1.544c.417-1.39.698-2.744.832-4.024l2.782-2.772-.626-5.235-2.952 1.373c-.396-.898-.93-1.668-1.59-2.278l1.246-3.805-3.88-1.218-2.282 3.48c-1 .092-2.036.37-3.082.81l-1.021-2.617M162.811 437.404l5.221 3.035M169.192 435.73l5.221 3.033M174.053 432.22l5.22 3.035M174.332 428.663l5.22 3.034M179.789 425.136l5.222 3.034M177.103 425.245l5.221 3.034M182.785 418.954l5.22 3.034M184.509 410.614l5.22 3.034M183.883 405.38l5.22 3.034M181.727 413.386l5.22 3.034" style="fill:none;stroke:#1c1c1b;stroke-width:.75;stroke-linecap:round;stroke-linejoin:round;stroke-miterlimit:10;stroke-dasharray:none;stroke-opacity:1" transform="matrix(1.33333 0 0 -1.33333 -45.227 608.029)"/><path d="M348.682 275.561s.531.786 1.478 2.013" style="fill:none;stroke:#1c1c1b;stroke-width:2;stroke-linecap:round;stroke-linejoin:round;stroke-miterlimit:4;stroke-dasharray:none;stroke-opacity:1" transform="matrix(1.33333 0 0 -1.33333 -45.227 608.029)"/><path d="M354.05 282.151c11.205 11.95 36.241 28.51 38.526-58.73" style="fill:none;stroke:#1c1c1b;stroke-width:2;stroke-linecap:round;stroke-linejoin:round;stroke-miterlimit:4;stroke-dasharray:5.01,6.012;stroke-dashoffset:0;stroke-opacity:1" transform="matrix(1.33333 0 0 -1.33333 -45.227 608.029)"/><path d="M392.646 220.409c.016-.824.03-1.657.042-2.5M277.476 259.437s.726.703 1.97 1.53" style="fill:none;stroke:#1c1c1b;stroke-width:2;stroke-linecap:round;stroke-linejoin:round;stroke-miterlimit:4;stroke-dasharray:none;stroke-opacity:1" transform="matrix(1.33333 0 0 -1.33333 -45.227 608.029)"/><path d="M284.731 263.298c8.08 1.807 20.666-3.465 25.71-49.25" style="fill:none;stroke:#1c1c1b;stroke-width:2;stroke-linecap:round;stroke-linejoin:round;stroke-miterlimit:4;stroke-dasharray:4.843,5.811;stroke-dashoffset:0;stroke-opacity:1" transform="matrix(1.33333 0 0 -1.33333 -45.227 608.029)"/><path d="M310.744 211.154c.082-.817.16-1.647.237-2.489M275.562 359.742s-.332.844-.879 2.336" style="fill:none;stroke:#1c1c1b;stroke-width:2;stroke-linecap:round;stroke-linejoin:round;stroke-miterlimit:4;stroke-dasharray:none;stroke-opacity:1" transform="matrix(1.33333 0 0 -1.33333 -45.227 608.029)"/><path d="M272.619 368.005c-7.223 21.767-21.755 76.949 28.832 46.053" style="fill:none;stroke:#1c1c1b;stroke-width:2;stroke-linecap:round;stroke-linejoin:round;stroke-miterlimit:4;stroke-dasharray:5.233,6.279;stroke-dashoffset:0;stroke-opacity:1" transform="matrix(1.33333 0 0 -1.33333 -45.227 608.029)"/><path d="M304.117 412.388c.687-.44 1.385-.896 2.095-1.367" style="fill:none;stroke:#1c1c1b;stroke-width:2;stroke-linecap:round;stroke-linejoin:round;stroke-miterlimit:4;stroke-dasharray:none;stroke-opacity:1" transform="matrix(1.33333 0 0 -1.33333 -45.227 608.029)"/><path d="M317.27 376.732c.115-.132-.448 9.099 1.617 8.652 2.066-.446 1.396-8.764 1.452-9.266.056-.502-.38-1.675.061-1.731.441-.055 1.892-.893 2.507-1.674.614-.782 1.172-3.517 1.228-4.075.056-.558-2.457-2.96-2.903-3.461-.446-.503-.538-4.131-.538-4.131h-6.16l-.224 4.186s-2.364-.578-3.202 5.172c-.837 5.75 1.527 4.82 1.807 4.43.28-.391.046 1.316 1.171 1.496 1.125.179 1.396-.77 1.396-.77s.503 2.623 1.787 1.172" style="fill:#ffb694;fill-opacity:1;fill-rule:nonzero;stroke:none" transform="matrix(1.33333 0 0 -1.33333 -45.227 608.029)"/><path d="M323.396 364.712s-2.7-17.86 1.84-25.542c4.542-7.684 12.453-18.301 9.58-24.916-2.874-6.616-5.176-9.425-9.945-4.441-4.77 4.985-19.566 29.518-13.079 52.992 0 0 4.305-1.893 11.604 1.907" style="fill:#89b7bb;fill-opacity:1;fill-rule:nonzero;stroke:none" transform="matrix(1.33333 0 0 -1.33333 -45.227 608.029)"/><path d="M323.75 204.865c-.48-.491-9.778-9.75-8.572-13 1.206-3.25 9.439-.65 14.206 2.167 4.765 2.816 8.666 6.499 6.066 10.833-2.6 4.333-8.05 3.74-11.7 0" style="fill:#1c1c1b;fill-opacity:1;fill-rule:nonzero;stroke:none" transform="matrix(1.33333 0 0 -1.33333 -45.227 608.029)"/><path d="M337.61 249.607c.245 7.117 2.454 16.5 0 22.08-2.455 5.578-14.331.753-14.331.753l-2.015-16.507s-1.425-12.863-.966-20.143c.548-8.682 0-33.392 0-33.392s11.783-7.362 17.087 0c0 0-.021 40.092.225 47.21" style="fill:#89b7bb;fill-opacity:1;fill-rule:nonzero;stroke:none" transform="matrix(1.33333 0 0 -1.33333 -45.227 608.029)"/><path d="M342.266 200.713c-.538-.551-10.988-10.955-9.633-14.607 1.355-3.652 10.607-.731 15.962 2.434 5.357 3.165 9.738 7.304 6.817 12.173-2.92 4.869-9.043 4.204-13.146 0" style="fill:#1c1c1b;fill-opacity:1;fill-rule:nonzero;stroke:none" transform="matrix(1.33333 0 0 -1.33333 -45.227 608.029)"/><path d="M356.257 249.085c.27 7.786 2.417 17.862-.269 23.965-2.684 6.103-18.654-8.086-24.495-3.675 0 0 1.176-5.472 8.308-13.727-.002-.727-1.56-26.754-1.057-34.718.6-9.497 0-22.652 0-22.652s12.89-8.054 18.692 0c0 0-1.448 43.02-1.179 50.807" style="fill:#89b7bb;fill-opacity:1;fill-rule:nonzero;stroke:none" transform="matrix(1.33333 0 0 -1.33333 -45.227 608.029)"/><path d="M342.738 330.974c-2.847-5.17-9.14-3.371-10.563-1.602-1.422 1.769-.524 10.966-.374 13.416.15 2.45 2.45 4.292 2.45 4.292s4.299.617 7.328 0c3.03-.617 4.516-2.79 4.516-2.79l-.51-8.372s.674 3.983 2.846 3.04c2.173-.942.6-5.098-1.573-5.38l-.224-12.41h-9.664l.075 6.283" style="fill:#ffb694;fill-opacity:1;fill-rule:nonzero;stroke:none" transform="matrix(1.33333 0 0 -1.33333 -45.227 608.029)"/><path d="M332.643 337.941a.566.566 0 0 0-.5.623l.1.91a.566.566 0 0 0 .621.501.567.567 0 0 0 .501-.623l-.099-.91a.566.566 0 0 0-.623-.5" style="fill:#1c1c1b;fill-opacity:1;fill-rule:nonzero;stroke:none" transform="matrix(1.33333 0 0 -1.33333 -45.227 608.029)"/><path d="M337.773 332.847s-4.615-6.18-6.08.73" style="fill:none;stroke:#1c1c1b;stroke-width:.75;stroke-linecap:round;stroke-linejoin:miter;stroke-miterlimit:10;stroke-dasharray:none;stroke-opacity:1" transform="matrix(1.33333 0 0 -1.33333 -45.227 608.029)"/><path d="M334.947 341.537c-.364-.767 1.033-3.803-5.618-5.394-3.446-.824 4.195-1.417 4.569-1.832" style="fill:#ffb694;fill-opacity:1;fill-rule:nonzero;stroke:#1c1c1b;stroke-width:.75;stroke-linecap:round;stroke-linejoin:round;stroke-miterlimit:10;stroke-dasharray:none;stroke-opacity:1" transform="matrix(1.33333 0 0 -1.33333 -45.227 608.029)"/><path d="m337.594 336.228.118-.013a.558.558 0 0 1 .611.492l.12 1.105a.557.557 0 0 1-.492.61l-.117.014a.556.556 0 0 1-.61-.491l-.12-1.108a.554.554 0 0 1 .49-.61" style="fill:#1c1c1b;fill-opacity:1;fill-rule:nonzero;stroke:none" transform="matrix(1.33333 0 0 -1.33333 -45.227 608.029)"/><path d="M351.893 343.276c-.062 1.785-.589 3.736-2.1 4.84a4.382 4.382 0 0 1-1.207.614c-.66.22-.827.117-1.167.707-1.09 1.891-2.869 2.4-4.964 2.254-1.663-.115-3.125-.949-4.81-1.006a7.992 7.992 0 0 0-1.678.143c-.479-.396-.962-.792-1.449-1.187-1.673-1.702-2.918-3.798-4.279-5.814 2.338-.95 8.175-1.43 10.826-.623 1.435.44 2.766.001 3.357-1.426.45-1.082.275-2.286.037-3.396-.206-.958-.772-2.21-.396-3.189.383-.993 1.611-.637 1.845.241.237.888 1.06 3.952 2.53 3.105.42-.242.613-.92.645-1.383.037-.513-.09-1.039-.296-1.506-.374-.848-1.196-1.777-2.225-1.514-.12-.85-.209-1.712-.15-2.57.04-.575.142-1.64.878-1.745 1.497-.213 2.626 2.73 3.046 3.753 1.202 2.925 1.666 6.528 1.557 9.702" style="fill:#1c1c1b;fill-opacity:1;fill-rule:nonzero;stroke:none" transform="matrix(1.33333 0 0 -1.33333 -45.227 608.029)"/><path d="M317.854 279.51s6.202 16.55 8.73 31.024c2.527 14.473 10.041 13.852 10.041 13.852s-.385-1.464 3.018-2.71c3.404-1.247 6.255.622 6.255.622s8.45-4.505 11.011-9.013c1.816-10.467 3.26-39.865 1.837-44.103-1.422-4.238-30.554-16.101-40.892 10.328" style="fill:#ff4c4c;fill-opacity:1;fill-rule:nonzero;stroke:none" transform="matrix(1.33333 0 0 -1.33333 -45.227 608.029)"/><path d="m336.625 324.385-1.612.138-1.786-16.184s5.61 8.043 8.749 10.157c3.138 2.115 5.373 2.973 5.373 2.973l-1.451.828s-8.498-2.177-9.273 2.088" style="fill:#89b7bb;fill-opacity:1;fill-rule:nonzero;stroke:none" transform="matrix(1.33333 0 0 -1.33333 -45.227 608.029)"/><path d="M349.738 319.962c.21-.144-11.543-8.928-14.31-26.348l4.86-2.525s5.26 23.142 13.994 25.343zM335.012 324.523s-7.437-15.736-8.547-26.553h-2.742s5.49 26.542 11.29 26.553" style="fill:#ffe259;fill-opacity:1;fill-rule:nonzero;stroke:none" transform="matrix(1.33333 0 0 -1.33333 -45.227 608.029)"/><path d="M324.447 300.732s14.88-9.081 34.875-9.643l-.184-4.544.077-2.272s-27.51.707-36.54 9.966z" style="fill:#ffe259;fill-opacity:1;fill-rule:nonzero;stroke:none" transform="matrix(1.33333 0 0 -1.33333 -45.227 608.029)"/><path d="M317.854 279.51s6.202 16.55 8.73 31.024c.408 2.335.791 4.28 1.165 5.898" style="fill:none;stroke:#1c1c1b;stroke-width:.75;stroke-linecap:round;stroke-linejoin:round;stroke-miterlimit:10;stroke-dasharray:none;stroke-opacity:1" transform="matrix(1.33333 0 0 -1.33333 -45.227 608.029)"/><path d="m281.174 292.118-.196-85.415-6.4-4.572.197 85.415z" style="fill:#89b7bb;fill-opacity:1;fill-rule:nonzero;stroke:none" transform="matrix(1.33333 0 0 -1.33333 -45.227 608.029)"/><path d="m274.775 287.546-.196-85.415-6.435 4.568.196 85.414z" style="fill:#89b7bb;fill-opacity:1;fill-rule:nonzero;stroke:none" transform="matrix(1.33333 0 0 -1.33333 -45.227 608.029)"/><path d="m281.174 292.118-6.399-4.572-6.435 4.567 6.4 4.572z" style="fill:#89b7bb;fill-opacity:1;fill-rule:nonzero;stroke:none" transform="matrix(1.33333 0 0 -1.33333 -45.227 608.029)"/><path d="m274.579 202.131.196 85.415" style="fill:none;stroke:#1c1c1b;stroke-width:.75;stroke-linecap:round;stroke-linejoin:round;stroke-miterlimit:10;stroke-dasharray:none;stroke-opacity:1" transform="matrix(1.33333 0 0 -1.33333 -45.227 608.029)"/><path d="m226.556 334.743 3.754 2.182 41.9 23.884-3.755-2.18z" style="fill:#ffe259;fill-opacity:1;fill-rule:nonzero;stroke:none" transform="matrix(1.33333 0 0 -1.33333 -45.227 608.029)"/><path d="m268.456 358.628 3.754 2.182c1.475.84 3.414.566 5.35-.553l-3.753-2.182c-1.938 1.12-3.877 1.393-5.351.553" style="fill:#ffe259;fill-opacity:1;fill-rule:nonzero;stroke:none" transform="matrix(1.33333 0 0 -1.33333 -45.227 608.029)"/><g><g clip-path="url(#z)" transform="matrix(1.33333 0 0 -1.33333 -58.667 602.589)"><path d="m0 0 3.754 2.182c1.475.839 3.414.566 5.351-.553L5.351-.553C3.413.566 1.474.84 0 0" style="fill:#ffe259;fill-opacity:1;fill-rule:nonzero;stroke:none" transform="translate(268.456 358.628)"/></g></g><g><g clip-path="url(#A)" transform="matrix(1.33333 0 0 -1.33333 -58.667 602.589)"><path d="m0 0 3.755 2.182C6.69-2.895 6.675-8.421 3.72-10.097l-3.754-2.182C2.92-10.603 2.936-5.077 0 0" style="fill:#ffe259;fill-opacity:1;fill-rule:nonzero;stroke:none" transform="translate(320.775 280.346)"/></g></g><g><g clip-path="url(#B)" transform="matrix(1.33333 0 0 -1.33333 -58.667 602.589)"><path d="m0 0 3.755 2.182C6.69-2.895 6.675-8.421 3.72-10.097l-3.754-2.182C2.92-10.603 2.936-5.077 0 0" style="fill:#ffe259;fill-opacity:1;fill-rule:nonzero;stroke:none" transform="translate(320.775 280.346)"/></g></g><g><g clip-path="url(#C)" transform="matrix(1.33333 0 0 -1.33333 -58.667 602.589)"><path d="m0 0 3.755 2.182 41.627-72.109-3.755-2.182z" style="fill:#ffe259;fill-opacity:1;fill-rule:nonzero;stroke:none" transform="translate(279.148 352.455)"/><path d="m0 0 3.755 2.182C5.692 1.063 7.628-.9 9.097-3.439L5.342-5.621C3.874-3.082 1.938-1.119 0 0" style="fill:#ffe259;fill-opacity:1;fill-rule:nonzero;stroke:none" transform="translate(273.806 358.075)"/></g></g><g><g clip-path="url(#D)" transform="matrix(1.33333 0 0 -1.33333 -58.667 602.589)"><path d="m0 0 3.755 2.182C5.692 1.063 7.628-.9 9.097-3.439L5.342-5.621C3.874-3.082 1.938-1.119 0 0" style="fill:#ffe259;fill-opacity:1;fill-rule:nonzero;stroke:none" transform="translate(273.806 358.075)"/></g></g><g><g clip-path="url(#E)" transform="matrix(1.33333 0 0 -1.33333 -58.667 602.589)"><path d="M0 0c1.938-1.119 3.874-3.082 5.342-5.621l41.627-72.108c2.935-5.077 2.92-10.603-.034-12.279l-41.9-23.885c-1.477-.838-3.418-.563-5.356.556-1.938 1.119-3.872 3.081-5.336 5.617l-41.628 72.109c-2.935 5.077-2.92 10.603.035 12.279L-5.351.553C-3.877 1.393-1.937 1.119 0 0" style="fill:#ffe259;fill-opacity:1;fill-rule:nonzero;stroke:none" transform="translate(273.806 358.075)"/><path d="M0 0c1.474.84 3.413.566 5.351-.553 1.938-1.118 3.874-3.082 5.341-5.62l41.627-72.109c2.936-5.077 2.92-10.603-.034-12.279" style="fill:none;stroke:#1c1c1b;stroke-width:.75;stroke-linecap:round;stroke-linejoin:round;stroke-miterlimit:10;stroke-dasharray:none;stroke-opacity:1" transform="translate(268.456 358.628)"/><path d="M0 0c1.648-.952 3.295-2.622 4.544-4.78L39.95-66.114c2.497-4.319 2.484-9.018-.029-10.444L4.282-96.874c-1.257-.712-2.907-.479-4.555.473-1.648.951-3.293 2.621-4.539 4.778L-40.219-30.29c-2.497 4.319-2.484 9.019.03 10.444L-4.551.47C-3.297 1.185-1.648.952 0 0Z" style="fill:none;stroke:#1c1c1b;stroke-width:.75;stroke-linecap:round;stroke-linejoin:round;stroke-miterlimit:10;stroke-dasharray:none;stroke-opacity:1" transform="translate(273.783 349.607)"/><path d="m0 0 3.754 2.182 4.19-2.419L4.19-2.419Z" style="fill:#fff;fill-opacity:1;fill-rule:nonzero;stroke:none" transform="translate(245.59 314.35)"/><path d="m0 0 3.755 2.182-.017-5.62L-.016-5.62Z" style="fill:#fff;fill-opacity:1;fill-rule:nonzero;stroke:none" transform="translate(254.715 303.734)"/><path d="m0 0 3.754 2.182-4.157-5.209-3.754-2.182Z" style="fill:#fff;fill-opacity:1;fill-rule:nonzero;stroke:none" transform="translate(249.746 319.559)"/><path d="m0 0 3.754 2.182-.015-5.338-3.755-2.182Z" style="fill:#fff;fill-opacity:1;fill-rule:nonzero;stroke:none" transform="translate(257.431 307.512)"/><path d="m0 0 3.754 2.182 2.7-1.559L2.7-1.559Z" style="fill:#fff;fill-opacity:1;fill-rule:nonzero;stroke:none" transform="translate(254.731 309.072)"/><path d="m0 0 3.755 2.182-.045-15.71-3.754-2.182Z" style="fill:#fff;fill-opacity:1;fill-rule:nonzero;stroke:none" transform="translate(254.775 324.781)"/><path d="m0 0 3.754 2.182 5.231-3.02L5.23-3.02Z" style="fill:#fff;fill-opacity:1;fill-rule:nonzero;stroke:none" transform="translate(249.545 327.801)"/><path d="m0 0 .021 7.597-.054.031-4.157-5.209L0 0m4.952-2.859 2.7-1.559-.016-5.338-2.7 1.559-.016-5.619-4.951 2.858.016 5.62-11.421 6.593.005 1.814L-.234 15.871l5.23-3.02z" style="fill:#fff;fill-opacity:1;fill-rule:nonzero;stroke:none" transform="translate(249.78 311.93)"/><path d="m0 0-3.754-2.182c-.636-.369-1.428-.273-2.349.259L-2.349.259C-1.428-.273-.636-.37 0 0" style="fill:#fff;fill-opacity:1;fill-rule:nonzero;stroke:none" transform="translate(274.128 297.197)"/></g></g><g><g clip-path="url(#F)" transform="matrix(1.33333 0 0 -1.33333 -58.667 602.589)"><path d="m0 0 3.754 2.182c.921-.532 1.713-.629 2.349-.259L2.349-.259C1.713-.628.921-.532 0 0" style="fill:#fff;fill-opacity:1;fill-rule:nonzero;stroke:none" transform="translate(268.025 295.275)"/></g></g><g><g clip-path="url(#G)" transform="matrix(1.33333 0 0 -1.33333 -58.667 602.589)"><path d="m0 0 3.754 2.182c-1.168-.68-1.831-2.849-1.841-6.343-.017-5.752 1.52-9.363 4.077-10.84l-3.754-2.182c-2.557 1.477-4.093 5.088-4.078 10.841C-1.831-2.849-1.169-.679 0 0" style="fill:#fff;fill-opacity:1;fill-rule:nonzero;stroke:none" transform="translate(265.789 312.457)"/></g></g><g><g clip-path="url(#H)" transform="matrix(1.33333 0 0 -1.33333 -58.667 602.589)"><path d="m0 0 3.754 2.182c-1.168-.68-1.831-2.849-1.841-6.343-.017-5.752 1.52-9.363 4.077-10.84l-3.754-2.182c-2.557 1.477-4.093 5.088-4.078 10.841C-1.831-2.849-1.169-.679 0 0" style="fill:#fff;fill-opacity:1;fill-rule:nonzero;stroke:none" transform="translate(265.789 312.457)"/></g></g><g><g clip-path="url(#I)" transform="matrix(1.33333 0 0 -1.33333 -58.667 602.589)"><path d="m0 0 3.754 2.182c1.697.986 3.891.7 6.189-.628L6.188-.627C3.89.7 1.697.986 0 0" style="fill:#fff;fill-opacity:1;fill-rule:nonzero;stroke:none" transform="translate(261.899 318.208)"/></g></g><g><g clip-path="url(#J)" transform="matrix(1.33333 0 0 -1.33333 -58.667 602.589)"><path d="m0 0 3.754 2.182c1.697.986 3.891.7 6.189-.628L6.188-.627C3.89.7 1.697.986 0 0" style="fill:#fff;fill-opacity:1;fill-rule:nonzero;stroke:none" transform="translate(261.899 318.208)"/></g></g><g><g clip-path="url(#K)" transform="matrix(1.33333 0 0 -1.33333 -58.667 602.589)"><path d="m0 0-3.754-2.182C-1.857-1.079-.616 1.759-.602 6.963c.027 9.246-4.409 16.402-9.388 19.277l3.755 2.181c4.978-2.874 9.414-10.03 9.387-19.276C3.138 3.94 1.897 1.103 0 0" style="fill:#fff;fill-opacity:1;fill-rule:nonzero;stroke:none" transform="translate(278.078 291.341)"/></g></g><g><g clip-path="url(#L)" transform="matrix(1.33333 0 0 -1.33333 -58.667 602.589)"><path d="m0 0 3.755 2.182c4.978-2.875 9.414-10.031 9.388-19.277-.015-5.204-1.255-8.042-3.153-9.145l-3.754-2.181c1.897 1.102 3.138 3.94 3.153 9.144C9.415-10.031 4.979-2.875 0 0" style="fill:#fff;fill-opacity:1;fill-rule:nonzero;stroke:none" transform="translate(268.087 317.58)"/></g></g><g><g clip-path="url(#M)" transform="matrix(1.33333 0 0 -1.33333 -58.667 602.589)"><path d="M0 0c2.53-1.461 4.089.364 4.104 6.116.016 5.393-1.526 9.391-4.056 10.852-2.558 1.476-4.11-.766-4.126-6.128C-4.094 5.088-2.558 1.477 0 0m.062 22.306c4.98-2.874 9.416-10.031 9.389-19.277-.028-9.895-4.487-11.234-9.467-8.36-4.978 2.875-9.436 9.363-9.408 19.258.027 9.246 4.508 11.254 9.486 8.379" style="fill:#fff;fill-opacity:1;fill-rule:nonzero;stroke:none" transform="translate(268.025 295.275)"/><path d="M0 0c2.53-1.461 4.089.364 4.104 6.116.016 5.393-1.526 9.391-4.056 10.852-2.558 1.476-4.11-.766-4.126-6.128C-4.094 5.088-2.558 1.477 0 0m-5.48 23.239c1.59.595 3.526.232 5.542-.933 4.98-2.874 9.416-10.031 9.389-19.277-.013-4.771-1.057-7.553-2.693-8.832" style="fill:none;stroke:#1c1c1b;stroke-width:.75;stroke-linecap:round;stroke-linejoin:round;stroke-miterlimit:10;stroke-dasharray:none;stroke-opacity:1" transform="translate(268.025 295.275)"/><path d="m0 0 3.755 2.182L7.951-.241 4.197-2.423Z" style="fill:#fff;fill-opacity:1;fill-rule:nonzero;stroke:none" transform="translate(284.788 291.718)"/><path d="m0 0 3.754 2.182-.016-5.62L-.016-5.62Z" style="fill:#fff;fill-opacity:1;fill-rule:nonzero;stroke:none" transform="translate(293.915 281.102)"/><path d="m0 0 3.755 2.182-4.157-5.21-3.755-2.181z" style="fill:#fff;fill-opacity:1;fill-rule:nonzero;stroke:none" transform="translate(288.945 296.927)"/><path d="m0 0 3.754 2.182-.016-5.338-3.754-2.182Z" style="fill:#fff;fill-opacity:1;fill-rule:nonzero;stroke:none" transform="translate(296.637 284.877)"/><path d="m0 0 3.754 2.182L6.461.619 2.707-1.563Z" style="fill:#fff;fill-opacity:1;fill-rule:nonzero;stroke:none" transform="translate(293.93 286.44)"/><path d="m0 0 3.755 2.182-.045-15.71-3.754-2.182Z" style="fill:#fff;fill-opacity:1;fill-rule:nonzero;stroke:none" transform="translate(293.974 302.15)"/><path d="m0 0 3.754 2.182 5.231-3.02L5.23-3.02Z" style="fill:#fff;fill-opacity:1;fill-rule:nonzero;stroke:none" transform="translate(288.744 305.17)"/><path d="m0 0 .021 7.597-.061.035-4.157-5.209L0 0m4.945-2.855 2.707-1.563-.015-5.338L4.93-8.193l-.016-5.62-4.945 2.855.015 5.62-11.42 6.593.005 1.813 11.19 12.807 5.23-3.02z" style="fill:#fff;fill-opacity:1;fill-rule:nonzero;stroke:none" transform="translate(288.985 289.295)"/><path d="m0 0 5.23-3.02-.044-15.71 2.7-1.559-.015-5.338-2.701 1.559-.015-5.619" style="fill:none;stroke:#1c1c1b;stroke-width:.75;stroke-linecap:round;stroke-linejoin:round;stroke-miterlimit:10;stroke-dasharray:none;stroke-opacity:1" transform="translate(249.545 327.801)"/><path d="m0 0-3.755-2.182" style="fill:none;stroke:#1c1c1b;stroke-width:.75;stroke-linecap:round;stroke-linejoin:round;stroke-miterlimit:10;stroke-dasharray:none;stroke-opacity:1" transform="translate(258.53 326.963)"/><path d="m0 0 3.754 2.182" style="fill:none;stroke:#1c1c1b;stroke-width:.75;stroke-linecap:round;stroke-linejoin:round;stroke-miterlimit:10;stroke-dasharray:none;stroke-opacity:1" transform="translate(254.731 309.072)"/><path d="m0 0 1.187.69" style="fill:none;stroke:#1c1c1b;stroke-width:.75;stroke-linecap:round;stroke-linejoin:round;stroke-miterlimit:10;stroke-dasharray:none;stroke-opacity:1" transform="translate(257.431 307.512)"/><path d="m0 0 1.774 1.031" style="fill:none;stroke:#1c1c1b;stroke-width:.75;stroke-linecap:round;stroke-linejoin:round;stroke-miterlimit:10;stroke-dasharray:none;stroke-opacity:1" transform="translate(257.416 302.175)"/><path d="m0 0-4.157-5.209 4.19-2.419z" style="fill:none;stroke:#1c1c1b;stroke-width:.75;stroke-linecap:round;stroke-linejoin:round;stroke-miterlimit:10;stroke-dasharray:none;stroke-opacity:1" transform="translate(249.746 319.559)"/><path d="m0 0 3.754 2.182" style="fill:none;stroke:#1c1c1b;stroke-width:.75;stroke-linecap:round;stroke-linejoin:round;stroke-miterlimit:10;stroke-dasharray:none;stroke-opacity:1" transform="translate(245.59 314.35)"/><path d="m0 0-3.755-2.182-5.23 3.02" style="fill:none;stroke:#1c1c1b;stroke-width:.75;stroke-linecap:round;stroke-linejoin:round;stroke-miterlimit:10;stroke-dasharray:none;stroke-opacity:1" transform="translate(297.73 304.332)"/><path d="m0 0 .016 5.62 2.707-1.563.015 5.338-2.707 1.563.044 15.709" style="fill:none;stroke:#1c1c1b;stroke-width:.75;stroke-linecap:round;stroke-linejoin:round;stroke-miterlimit:10;stroke-dasharray:none;stroke-opacity:1" transform="translate(293.899 275.483)"/><path d="m0 0 3.754 2.182" style="fill:none;stroke:#1c1c1b;stroke-width:.75;stroke-linecap:round;stroke-linejoin:round;stroke-miterlimit:10;stroke-dasharray:none;stroke-opacity:1" transform="translate(293.93 286.44)"/><path d="m0 0 3.754 2.182" style="fill:none;stroke:#1c1c1b;stroke-width:.75;stroke-linecap:round;stroke-linejoin:round;stroke-miterlimit:10;stroke-dasharray:none;stroke-opacity:1" transform="translate(296.637 284.877)"/><path d="m0 0 3.754 2.182" style="fill:none;stroke:#1c1c1b;stroke-width:.75;stroke-linecap:round;stroke-linejoin:round;stroke-miterlimit:10;stroke-dasharray:none;stroke-opacity:1" transform="translate(296.622 279.54)"/><path d="m0 0-4.157-5.209L.04-7.632Z" style="fill:none;stroke:#1c1c1b;stroke-width:.75;stroke-linecap:round;stroke-linejoin:round;stroke-miterlimit:10;stroke-dasharray:none;stroke-opacity:1" transform="translate(288.945 296.927)"/><path d="m0 0 3.755 2.182" style="fill:none;stroke:#1c1c1b;stroke-width:.75;stroke-linecap:round;stroke-linejoin:round;stroke-miterlimit:10;stroke-dasharray:none;stroke-opacity:1" transform="translate(284.788 291.718)"/><path d="M0 0c-.951-.823-1.961-1.518-3.361-1.672-2.177-.239-4.379 2.276-6.875.885-2.495-1.392-2.882-.446-2.495-1.392.386-.946 5.232-.801 6.044-2.034.812-1.233-9.583-1.218-9.82-2.939-.238-1.721 7.584-.495 7.584-.495s-8.777-1.287-6.026-3.124c1.684-1.126 6.598.15 6.598.15s-8.019-1.999-2.271-3.112c5.747-1.113 17.446 9.108 17.446 9.108C5.349-2.537 3.285-.356 2.303 1.986 1.464 1.379.751.649 0 0" style="fill:#ffb694;fill-opacity:1;fill-rule:nonzero;stroke:none" transform="translate(320.789 287.62)"/><path d="M0 0c-.951-.823-1.961-1.518-3.361-1.672-2.177-.239-4.379 2.276-6.875.885-2.495-1.392-2.882-.446-2.495-1.392.386-.946 5.232-.801 6.044-2.034.812-1.233-9.583-1.218-9.82-2.939-.238-1.721 7.584-.495 7.584-.495s-8.777-1.287-6.026-3.124c1.684-1.126 6.598.15 6.598.15s-8.019-1.999-2.271-3.112c5.747-1.113 17.446 9.108 17.446 9.108C5.349-2.537 3.285-.356 2.303 1.986 1.464 1.379.751.649 0 0Z" style="fill:none;stroke:#1c1c1b;stroke-width:.75;stroke-linecap:round;stroke-linejoin:miter;stroke-miterlimit:10;stroke-dasharray:none;stroke-opacity:1" transform="translate(320.789 287.62)"/><path d="M0 0c-4.572 1.459-8.209-2.984-10.901-6.22-3.97-4.772-8.662-9.32-14.139-12.483-4.392-2.537-13.691-6.776-13.691-6.776s.085-3.132 1.657-6.207c1.571-3.076 4.588-6.016 4.59-6.019.227-.445 10.49 4.657 11.517 5.202 6.961 3.687 13.976 8.721 19.101 14.819 2.4 2.858 4.71 6.365 5.493 10.022C4.35-4.283 2.948-.941 0 0" style="fill:#89b7bb;fill-opacity:1;fill-rule:nonzero;stroke:none" transform="translate(354.676 315.5)"/><path d="M0 0s-5.704-3.723-.881-7.9c4.823-4.178 9.151-2.548 11.497-2.01 2.347.538 11.052 4.919 10.699 6.174C20.964-2.482 2.126 1.124 0 0" style="fill:#dfac00;fill-opacity:1;fill-rule:nonzero;stroke:none" transform="translate(342.122 347.235)"/><path d="M0 0c.317.254.56 1.104.765 1.456a19.97 19.97 0 0 0 2.306 3.218c2.281 2.571 5.418 4.431 8.961 3.96 2.594-.345 5.062-1.644 6.709-3.694a9.186 9.186 0 0 0 1.76-3.55c.265-1.074 1.12-3.09.35-4.063-1.018-1.285-9.172-7.804-16.594-3.831C-3.158-2.535-.006-.005 0 0" style="fill:#ffe259;fill-opacity:1;fill-rule:nonzero;stroke:none" transform="translate(341.44 346.26)"/><path d="M0 0c.015.024.031.053.051.084a2.278 2.278 0 0 0 .098.161l.044.07.044.07.042.065.054.084.046.07.037.056a29.342 29.342 0 0 0 .401.584l.044.062.235.32.042.056a18.979 18.979 0 0 0 .628.796l.046.056c.105.125.214.252.327.38l.117.132c.108.121.22.243.335.364l.075.078c.11.115.223.23.339.345l.038.038c.108.107.221.213.334.319l.115.105c.062.055.123.111.186.165.044.04.089.078.134.117.055.048.112.094.168.142l.145.118.159.127.153.118a11.81 11.81 0 0 0 .321.235c.055.04.112.079.169.119a8.985 8.985 0 0 0 .334.219 9.366 9.366 0 0 0 .508.303l.16.087c.063.034.127.066.191.099l.139.068a8.018 8.018 0 0 0 .642.28l.025.009c.111.042.223.082.336.118l.092.029c.087.027.174.052.262.076l.091.024a6.746 6.746 0 0 0 .391.085c.1.02.2.036.3.049l.105.014c.093.011.185.02.278.027l.085.007c.12.007.24.01.362.01l.087-.003c.094-.001.188-.005.283-.011l.145-.013c.078-.007.155-.016.234-.026l.177-.028c.071-.011.141-.025.212-.039a6.835 6.835 0 0 0 .411-.101 5.1 5.1 0 0 0 .29-.09c.065-.022.13-.043.195-.067l.097-.037c.109-.043.217-.088.326-.138l.057-.025c.133-.062.267-.13.401-.203.029-.016.058-.035.087-.052a7.308 7.308 0 0 0 .782-.501l-.536.397c-.16.116-.319.222-.478.321l-.037.026a9.097 9.097 0 0 1-.266.154c-.029.017-.059.036-.089.052a7.97 7.97 0 0 1-.4.203l-.058.025a6.064 6.064 0 0 1-.422.175l-.078.03c-.039.014-.078.024-.117.037a6.06 6.06 0 0 1-.29.09c-.027.008-.054.019-.081.026-.037.01-.074.016-.11.025a6.835 6.835 0 0 1-.22.05c-.032.007-.065.016-.097.022-.039.007-.077.011-.115.017l-.178.028c-.029.004-.059.01-.089.013-.048.006-.095.008-.143.013l-.146.013-.063.005c-.073.005-.145.005-.219.006-.029.001-.059.003-.089.003h-.02c-.104 0-.207-.003-.31-.008l-.031-.003-.084-.006c-.06-.005-.122-.008-.182-.015-.033-.003-.065-.008-.097-.012a3.264 3.264 0 0 1-.104-.014l-.086-.01-.214-.038-.05-.009-.015-.003a4.783 4.783 0 0 1-.275-.061l-.052-.013-.091-.025c-.044-.012-.088-.022-.131-.035-.044-.012-.088-.027-.131-.041a2.47 2.47 0 0 1-.092-.028L6.674 7a5.442 5.442 0 0 1-.279-.1l-.004-.002-.027-.01a11.18 11.18 0 0 1-.254-.101l-.089-.039c-.074-.033-.147-.065-.219-.1-.027-.012-.053-.026-.079-.039a8.886 8.886 0 0 1-.139-.068c-.032-.017-.064-.032-.097-.048l-.093-.051-.162-.088a5.684 5.684 0 0 0-.079-.042l-.097-.058a6.388 6.388 0 0 1-.163-.098 2.824 2.824 0 0 1-.074-.043l-.094-.061a5.12 5.12 0 0 1-.173-.112 1.8 1.8 0 0 1-.073-.046l-.087-.061-.17-.118-.075-.052-.082-.062a9.954 9.954 0 0 1-.164-.122c-.025-.02-.05-.038-.076-.057l-.077-.061-.158-.126-.077-.061-.069-.058-.169-.143-.078-.066a10.196 10.196 0 0 1-.242-.217c-.026-.024-.054-.047-.08-.072l-.033-.031a17.097 17.097 0 0 1-.335-.319l-.01-.009-.028-.029a15.75 15.75 0 0 1-.34-.346l-.073-.076a18.449 18.449 0 0 1-.337-.366l-.021-.023-.06-.068-.034-.039a17.336 17.336 0 0 1-.328-.382l-.047-.055a24.38 24.38 0 0 1-.291-.36l-.021-.026-.008-.01c-.108-.137-.21-.271-.307-.4l-.025-.032-.017-.024a22.79 22.79 0 0 1-.235-.32l-.017-.024-.027-.038a37.742 37.742 0 0 1-.209-.299l-.001-.001c-.068-.1-.132-.194-.19-.284a.406.406 0 0 1-.018-.026c-.008-.01-.013-.02-.02-.031L-.203.931-.257.847A3.678 3.678 0 0 0-.299.782L-.32.747-.343.712l-.044-.07-.037-.059-.035-.059A.315.315 0 0 1-.474.5L-.485.481C-.505.45-.521.422-.536.397A.186.186 0 0 1-.547.378L-.588.31A.277.277 0 0 1-.607.276l.536-.397.019.034.04.068L0 0" style="fill:#ffe259;fill-opacity:1;fill-rule:nonzero;stroke:none" transform="translate(346.047 346.748)"/><path d="M0 0c1.938.849 4.158.928 6.456-.744 0 0-2.218.71-5.938-.667-3.721-1.376-7.145-5.06-7.145-5.06C-6.489-6.232-3.876-1.697 0 0" style="fill:#dfac00;fill-opacity:1;fill-rule:nonzero;stroke:none" transform="translate(352.603 353.099)"/><path d="m0 0 9.66 5.614 4.749 2.543-9.66-5.614Z" style="fill:#9b7600;fill-opacity:1;fill-rule:nonzero;stroke:none" transform="translate(124.868 255.027)"/><path d="m0 0 4.734-2.733-4.749-2.544Z" style="fill:#0b0b0a;fill-opacity:1;fill-rule:nonzero;stroke:none" transform="translate(124.883 260.303)"/><path d="m0 0 9.66 5.614 4.735-2.734-9.661-5.613Z" style="fill:#1b1b1a;fill-opacity:1;fill-rule:nonzero;stroke:none" transform="translate(124.883 260.303)"/><path d="m0 0 9.66 5.614 7.466 3.993-9.66-5.613Z" style="fill:#0b0b0b;fill-opacity:1;fill-rule:nonzero;stroke:none" transform="translate(126.697 250.951)"/><path d="m0 0 9.66 5.614 4.547-2.625-9.661-5.614Z" style="fill:#ffe259;fill-opacity:1;fill-rule:nonzero;stroke:none" transform="translate(129.617 257.57)"/><path d="m0 0 4.546-2.625-7.466-3.994-1.838 1.061.009 3.015z" style="fill:#ffe259;fill-opacity:1;fill-rule:nonzero;stroke:none" transform="translate(129.617 257.57)"/><path d="m0 0 9.66 5.614 7.462 3.996-9.66-5.614Z" style="fill:#9b7600;fill-opacity:1;fill-rule:nonzero;stroke:none" transform="translate(131.458 248.203)"/><path d="m0 0 4.756-2.746-7.462-3.996-4.76 2.748z" style="fill:#0b0b0a;fill-opacity:1;fill-rule:nonzero;stroke:none" transform="translate(134.164 254.945)"/><path d="m0 0 9.66 5.614 4.756-2.746-9.66-5.614Z" style="fill:#1b1b1a;fill-opacity:1;fill-rule:nonzero;stroke:none" transform="translate(134.164 254.945)"/><path d="m0 0 9.66 5.614 7.466 3.993-9.66-5.613Z" style="fill:#0b0b0b;fill-opacity:1;fill-rule:nonzero;stroke:none" transform="translate(136 245.58)"/><path d="m0 0 9.66 5.614 4.547-2.625-9.661-5.614Z" style="fill:#ffe259;fill-opacity:1;fill-rule:nonzero;stroke:none" transform="translate(138.92 252.199)"/><path d="m0 0 4.546-2.625-7.466-3.993-4.542 2.622Z" style="fill:#ffe259;fill-opacity:1;fill-rule:nonzero;stroke:none" transform="translate(138.92 252.199)"/><path d="m0 0 9.66 5.614 7.466 3.993-9.66-5.613Z" style="fill:#9b7600;fill-opacity:1;fill-rule:nonzero;stroke:none" transform="translate(140.756 242.835)"/><path d="m0 0 9.66 5.614 4.757-2.746-9.661-5.614Z" style="fill:#1b1b1a;fill-opacity:1;fill-rule:nonzero;stroke:none" transform="translate(143.466 249.574)"/><path d="m0 0 4.756-2.746L-2.71-6.74l-4.756 2.746Z" style="fill:#0b0b0a;fill-opacity:1;fill-rule:nonzero;stroke:none" transform="translate(143.466 249.574)"/><path d="m0 0 9.66 5.614 7.462 3.996-9.66-5.614Z" style="fill:#0b0b0b;fill-opacity:1;fill-rule:nonzero;stroke:none" transform="translate(145.302 240.21)"/><path d="m0 0 9.66 5.613 4.542-2.622-9.66-5.614ZM0 0l4.542-2.623-7.462-3.996-4.546 2.625Z" style="fill:#ffe259;fill-opacity:1;fill-rule:nonzero;stroke:none" transform="translate(148.222 246.829)"/><path d="m0 0 9.66 5.614 7.466 3.994-9.66-5.614Z" style="fill:#9b7600;fill-opacity:1;fill-rule:nonzero;stroke:none" transform="translate(150.058 237.464)"/><path d="m0 0 4.761-2.748-7.467-3.994-4.756 2.746z" style="fill:#0b0b0a;fill-opacity:1;fill-rule:nonzero;stroke:none" transform="translate(152.764 244.206)"/><path d="m0 0 9.66 5.614 4.761-2.748-9.66-5.614Z" style="fill:#1b1b1a;fill-opacity:1;fill-rule:nonzero;stroke:none" transform="translate(152.764 244.206)"/><path d="m0 0 9.661 5.613 7.462 3.996-9.661-5.613Z" style="fill:#0b0b0b;fill-opacity:1;fill-rule:nonzero;stroke:none" transform="translate(154.604 234.84)"/><path d="m0 0 9.66 5.614 4.542-2.623-9.66-5.613Z" style="fill:#ffe259;fill-opacity:1;fill-rule:nonzero;stroke:none" transform="translate(157.525 241.458)"/><path d="m0 0 4.542-2.622-7.462-3.996-4.546 2.624Z" style="fill:#ffe259;fill-opacity:1;fill-rule:nonzero;stroke:none" transform="translate(157.525 241.458)"/><path d="m0 0 9.66 5.613 7.466 3.994-9.66-5.614Z" style="fill:#9b7600;fill-opacity:1;fill-rule:nonzero;stroke:none" transform="translate(159.36 232.093)"/><path d="m0 0 4.761-2.749-7.467-3.993-4.756 2.746z" style="fill:#0b0b0a;fill-opacity:1;fill-rule:nonzero;stroke:none" transform="translate(162.066 238.836)"/><path d="m0 0 9.661 5.613 4.76-2.748-9.66-5.614z" style="fill:#1b1b1a;fill-opacity:1;fill-rule:nonzero;stroke:none" transform="translate(162.066 238.836)"/><path d="m0 0 9.66 5.613 7.466 3.994-9.66-5.614Z" style="fill:#0b0b0b;fill-opacity:1;fill-rule:nonzero;stroke:none" transform="translate(163.903 229.471)"/><path d="m0 0 9.66 5.614 4.542-2.622-9.66-5.614Z" style="fill:#ffe259;fill-opacity:1;fill-rule:nonzero;stroke:none" transform="translate(166.827 236.087)"/><path d="m0 0 4.542-2.622-7.466-3.993-4.542 2.622z" style="fill:#ffe259;fill-opacity:1;fill-rule:nonzero;stroke:none" transform="translate(166.827 236.087)"/><path d="m0 0 9.66 5.614 7.466 3.993-9.66-5.613Z" style="fill:#9b7600;fill-opacity:1;fill-rule:nonzero;stroke:none" transform="translate(168.663 226.722)"/><path d="m0 0 4.76-2.748-7.466-3.994-4.76 2.749z" style="fill:#0b0b0a;fill-opacity:1;fill-rule:nonzero;stroke:none" transform="translate(171.369 233.464)"/><path d="m0 0 9.66 5.614 4.76-2.749-9.66-5.613Z" style="fill:#1b1b1a;fill-opacity:1;fill-rule:nonzero;stroke:none" transform="translate(171.369 233.464)"/><path d="m0 0 9.66 5.614 7.466 3.993-9.66-5.613Z" style="fill:#0b0b0b;fill-opacity:1;fill-rule:nonzero;stroke:none" transform="translate(173.205 224.1)"/><path d="m0 0 9.66 5.613 4.542-2.622-9.66-5.613Z" style="fill:#ffe259;fill-opacity:1;fill-rule:nonzero;stroke:none" transform="translate(176.129 230.716)"/><path d="m0 0 4.542-2.622-7.466-3.994-4.542 2.622z" style="fill:#ffe259;fill-opacity:1;fill-rule:nonzero;stroke:none" transform="translate(176.129 230.716)"/><path d="m0 0 9.66 5.614 7.466 3.994-9.66-5.614Z" style="fill:#9b7600;fill-opacity:1;fill-rule:nonzero;stroke:none" transform="translate(177.965 221.351)"/><path d="m0 0 9.66 5.613 4.761-2.748-9.66-5.614Z" style="fill:#1b1b1a;fill-opacity:1;fill-rule:nonzero;stroke:none" transform="translate(180.671 228.094)"/><path d="m0 0 4.761-2.749-7.467-3.994-4.76 2.749z" style="fill:#0b0b0a;fill-opacity:1;fill-rule:nonzero;stroke:none" transform="translate(180.671 228.094)"/><path d="m0 0 9.66 5.614 7.466 3.994-9.66-5.614Z" style="fill:#0b0b0b;fill-opacity:1;fill-rule:nonzero;stroke:none" transform="translate(182.507 218.73)"/><path d="m0 0 9.66 5.614 4.542-2.622-9.66-5.614Z" style="fill:#ffe259;fill-opacity:1;fill-rule:nonzero;stroke:none" transform="translate(185.432 225.345)"/><path d="m0 0 4.542-2.622-7.467-3.994-4.541 2.622z" style="fill:#ffe259;fill-opacity:1;fill-rule:nonzero;stroke:none" transform="translate(185.432 225.345)"/><path d="m0 0 9.66 5.613 7.462 3.997-9.66-5.614Z" style="fill:#9b7600;fill-opacity:1;fill-rule:nonzero;stroke:none" transform="translate(187.268 215.981)"/><path d="m0 0 9.66 5.614 4.757-2.746-9.661-5.614Z" style="fill:#1b1b1a;fill-opacity:1;fill-rule:nonzero;stroke:none" transform="translate(189.973 222.723)"/><path d="m0 0 4.756-2.746-7.462-3.996-4.76 2.748z" style="fill:#0b0b0a;fill-opacity:1;fill-rule:nonzero;stroke:none" transform="translate(189.973 222.723)"/><path d="m0 0 9.66 5.613 7.466 3.994-9.66-5.614Z" style="fill:#0b0b0b;fill-opacity:1;fill-rule:nonzero;stroke:none" transform="translate(191.81 213.36)"/><path d="m0 0 4.546-2.625-7.466-3.993-4.542 2.622Z" style="fill:#ffe259;fill-opacity:1;fill-rule:nonzero;stroke:none" transform="translate(194.73 219.977)"/><path d="m0 0 9.66 5.614 4.547-2.625-9.661-5.614Z" style="fill:#ffe259;fill-opacity:1;fill-rule:nonzero;stroke:none" transform="translate(194.73 219.977)"/><path d="m0 0 9.66 5.613 7.466 3.994-9.66-5.614Z" style="fill:#9b7600;fill-opacity:1;fill-rule:nonzero;stroke:none" transform="translate(196.566 210.613)"/><path d="m0 0 4.756-2.746-7.466-3.993-4.756 2.746Z" style="fill:#0b0b0a;fill-opacity:1;fill-rule:nonzero;stroke:none" transform="translate(199.276 217.352)"/><path d="m0 0 9.66 5.614 4.756-2.746-9.66-5.614Z" style="fill:#1b1b1a;fill-opacity:1;fill-rule:nonzero;stroke:none" transform="translate(199.276 217.352)"/><path d="m0 0 9.66 5.614 7.462 3.996-9.66-5.614Z" style="fill:#0b0b0b;fill-opacity:1;fill-rule:nonzero;stroke:none" transform="translate(201.112 207.988)"/><path d="m0 0 9.66 5.614 4.542-2.622-9.66-5.614Z" style="fill:#ffe259;fill-opacity:1;fill-rule:nonzero;stroke:none" transform="translate(204.032 214.606)"/><path d="m0 0 4.542-2.622-7.462-3.996-4.546 2.625Z" style="fill:#ffe259;fill-opacity:1;fill-rule:nonzero;stroke:none" transform="translate(204.032 214.606)"/><path d="m0 0 9.66 5.614 7.466 3.993-9.66-5.613Z" style="fill:#9b7600;fill-opacity:1;fill-rule:nonzero;stroke:none" transform="translate(205.868 205.242)"/><path d="m0 0 9.66 5.614 4.76-2.749-9.66-5.613Z" style="fill:#1b1b1a;fill-opacity:1;fill-rule:nonzero;stroke:none" transform="translate(208.574 211.984)"/><path d="m0 0 4.76-2.748-7.466-3.994-4.756 2.746z" style="fill:#0b0b0a;fill-opacity:1;fill-rule:nonzero;stroke:none" transform="translate(208.574 211.984)"/><path d="m0 0 9.66 5.614 7.462 3.996-9.66-5.613Z" style="fill:#0b0b0b;fill-opacity:1;fill-rule:nonzero;stroke:none" transform="translate(210.414 202.617)"/><path d="m0 0 9.66 5.613 4.542-2.622-9.66-5.613Z" style="fill:#ffe259;fill-opacity:1;fill-rule:nonzero;stroke:none" transform="translate(213.334 209.236)"/><path d="m0 0 4.542-2.622-7.462-3.997-4.546 2.625Z" style="fill:#ffe259;fill-opacity:1;fill-rule:nonzero;stroke:none" transform="translate(213.334 209.236)"/><path d="m0 0 9.66 5.613 7.466 3.994-9.66-5.614Z" style="fill:#9b7600;fill-opacity:1;fill-rule:nonzero;stroke:none" transform="translate(215.17 199.872)"/><path d="m0 0 4.761-2.749-7.467-3.993-4.756 2.745z" style="fill:#0b0b0a;fill-opacity:1;fill-rule:nonzero;stroke:none" transform="translate(217.876 206.614)"/><path d="m0 0 9.66 5.613 4.761-2.748-9.66-5.614Z" style="fill:#1b1b1a;fill-opacity:1;fill-rule:nonzero;stroke:none" transform="translate(217.876 206.614)"/><path d="m0 0 9.66 5.614 7.466 3.994-9.66-5.614Z" style="fill:#0b0b0b;fill-opacity:1;fill-rule:nonzero;stroke:none" transform="translate(219.712 197.249)"/><path d="m0 0 4.542-2.622-7.467-3.994-4.541 2.623z" style="fill:#ffe259;fill-opacity:1;fill-rule:nonzero;stroke:none" transform="translate(222.637 203.865)"/><path d="m0 0 9.66 5.614 4.542-2.622-9.66-5.614Z" style="fill:#ffe259;fill-opacity:1;fill-rule:nonzero;stroke:none" transform="translate(222.637 203.865)"/><path d="m0 0 9.66 5.614 7.466 3.993-9.66-5.614Z" style="fill:#9b7600;fill-opacity:1;fill-rule:nonzero;stroke:none" transform="translate(224.473 194.5)"/><path d="m0 0 4.761-2.749-7.467-3.993-4.76 2.748z" style="fill:#0b0b0a;fill-opacity:1;fill-rule:nonzero;stroke:none" transform="translate(227.178 201.243)"/><path d="m0 0 9.66 5.614 4.761-2.749-9.66-5.614Z" style="fill:#1b1b1a;fill-opacity:1;fill-rule:nonzero;stroke:none" transform="translate(227.178 201.243)"/><path d="m0 0 9.66 5.613 7.466 3.994-9.66-5.614Z" style="fill:#0b0b0b;fill-opacity:1;fill-rule:nonzero;stroke:none" transform="translate(229.015 191.879)"/><path d="m0 0 9.66 5.614 4.542-2.622-9.66-5.614Z" style="fill:#ffe259;fill-opacity:1;fill-rule:nonzero;stroke:none" transform="translate(231.94 198.494)"/><path d="m0 0 4.542-2.622-7.466-3.993-4.542 2.622z" style="fill:#ffe259;fill-opacity:1;fill-rule:nonzero;stroke:none" transform="translate(231.94 198.494)"/><path d="m0 0 9.66 5.614 7.462 3.996-9.66-5.614Z" style="fill:#9b7600;fill-opacity:1;fill-rule:nonzero;stroke:none" transform="translate(233.775 189.13)"/><path d="m0 0 9.66 5.614 4.756-2.746-9.66-5.614Z" style="fill:#1b1b1a;fill-opacity:1;fill-rule:nonzero;stroke:none" transform="translate(236.481 195.872)"/><path d="m0 0 4.756-2.746-7.462-3.996-4.76 2.749z" style="fill:#0b0b0a;fill-opacity:1;fill-rule:nonzero;stroke:none" transform="translate(236.481 195.872)"/><path d="m0 0 9.66 5.614 7.466 3.993-9.66-5.613Z" style="fill:#0b0b0b;fill-opacity:1;fill-rule:nonzero;stroke:none" transform="translate(238.317 186.507)"/><path d="m0 0 9.66 5.614 4.546-2.625-9.66-5.613Z" style="fill:#ffe259;fill-opacity:1;fill-rule:nonzero;stroke:none" transform="translate(241.237 193.126)"/><path d="m0 0 4.546-2.624-7.466-3.994-4.542 2.622Z" style="fill:#ffe259;fill-opacity:1;fill-rule:nonzero;stroke:none" transform="translate(241.237 193.126)"/><path d="m0 0 9.661 5.613 7.462 3.996-9.661-5.613Z" style="fill:#9b7600;fill-opacity:1;fill-rule:nonzero;stroke:none" transform="translate(243.077 183.76)"/><path d="m0 0 9.66 5.613 4.756-2.746-9.66-5.613Z" style="fill:#1b1b1a;fill-opacity:1;fill-rule:nonzero;stroke:none" transform="translate(245.783 190.502)"/><path d="m0 0 4.756-2.746-7.462-3.996-4.76 2.748z" style="fill:#0b0b0a;fill-opacity:1;fill-rule:nonzero;stroke:none" transform="translate(245.783 190.502)"/><path d="m0 0 9.661 5.613 7.465 3.994-9.66-5.614Z" style="fill:#0b0b0b;fill-opacity:1;fill-rule:nonzero;stroke:none" transform="translate(247.62 181.137)"/><path d="m0 0 9.66 5.613 4.546-2.624-9.66-5.614Z" style="fill:#ffe259;fill-opacity:1;fill-rule:nonzero;stroke:none" transform="translate(250.54 187.756)"/><path d="m0 0 4.546-2.625-7.466-3.993-4.542 2.622Z" style="fill:#ffe259;fill-opacity:1;fill-rule:nonzero;stroke:none" transform="translate(250.54 187.756)"/><path d="m0 0 9.66 5.614 7.462 3.996-9.66-5.614Z" style="fill:#9b7600;fill-opacity:1;fill-rule:nonzero;stroke:none" transform="translate(252.38 178.388)"/><path d="m0 0 4.756-2.746-7.462-3.996-4.76 2.749z" style="fill:#0b0b0a;fill-opacity:1;fill-rule:nonzero;stroke:none" transform="translate(255.086 185.13)"/><path d="m0 0 9.66 5.614 4.756-2.746-9.66-5.614Z" style="fill:#1b1b1a;fill-opacity:1;fill-rule:nonzero;stroke:none" transform="translate(255.086 185.13)"/><path d="m0 0 9.66 5.614 7.462 3.996-9.66-5.614Z" style="fill:#0b0b0b;fill-opacity:1;fill-rule:nonzero;stroke:none" transform="translate(256.921 175.766)"/><path d="m0 0 9.66 5.614 4.542-2.622-9.66-5.614Z" style="fill:#ffe259;fill-opacity:1;fill-rule:nonzero;stroke:none" transform="translate(259.841 182.385)"/><path d="m0 0 4.542-2.622-7.462-3.996-4.542 2.622Z" style="fill:#ffe259;fill-opacity:1;fill-rule:nonzero;stroke:none" transform="translate(259.841 182.385)"/><path d="m0 0 9.66 5.614 7.466 3.993-9.66-5.613Z" style="fill:#9b7600;fill-opacity:1;fill-rule:nonzero;stroke:none" transform="translate(261.678 173.02)"/><path d="m0 0 9.66 5.614 4.761-2.749-9.66-5.613Z" style="fill:#1b1b1a;fill-opacity:1;fill-rule:nonzero;stroke:none" transform="translate(264.383 179.762)"/><path d="m0 0 4.761-2.748-7.466-3.994-4.757 2.746z" style="fill:#0b0b0a;fill-opacity:1;fill-rule:nonzero;stroke:none" transform="translate(264.383 179.762)"/><path d="m0 0 9.66 5.613 7.467 3.994-9.66-5.614Z" style="fill:#0b0b0b;fill-opacity:1;fill-rule:nonzero;stroke:none" transform="translate(266.22 170.398)"/><path d="m0 0 9.66 5.613 4.542-2.622-9.66-5.614ZM0 0l4.542-2.623-7.467-3.993-4.541 2.622z" style="fill:#ffe259;fill-opacity:1;fill-rule:nonzero;stroke:none" transform="translate(269.144 177.014)"/><path d="m0 0 9.66 5.614 7.467 3.994-9.66-5.614Z" style="fill:#9b7600;fill-opacity:1;fill-rule:nonzero;stroke:none" transform="translate(270.98 167.65)"/><path d="m0 0 4.761-2.748-7.467-3.994-4.761 2.749z" style="fill:#0b0b0a;fill-opacity:1;fill-rule:nonzero;stroke:none" transform="translate(273.686 174.391)"/><path d="m0 0 9.66 5.614 4.761-2.748-9.66-5.614Z" style="fill:#1b1b1a;fill-opacity:1;fill-rule:nonzero;stroke:none" transform="translate(273.686 174.391)"/><path d="m0 0 9.66 5.614 7.467 3.993-9.661-5.613Z" style="fill:#0b0b0b;fill-opacity:1;fill-rule:nonzero;stroke:none" transform="translate(275.522 165.027)"/><path d="m0 0 9.66 5.614 4.542-2.623-9.661-5.613Z" style="fill:#ffe259;fill-opacity:1;fill-rule:nonzero;stroke:none" transform="translate(278.447 171.643)"/><path d="m0 0 4.541-2.622-7.466-3.994-4.542 2.622z" style="fill:#ffe259;fill-opacity:1;fill-rule:nonzero;stroke:none" transform="translate(278.447 171.643)"/><path d="m0 0 9.66 5.613 7.466 3.994-9.66-5.614Z" style="fill:#9b7600;fill-opacity:1;fill-rule:nonzero;stroke:none" transform="translate(280.283 162.279)"/><path d="m0 0 4.761-2.749-7.466-3.993-4.761 2.748z" style="fill:#0b0b0a;fill-opacity:1;fill-rule:nonzero;stroke:none" transform="translate(282.988 169.021)"/><path d="m0 0 9.661 5.613 4.76-2.748-9.66-5.614z" style="fill:#1b1b1a;fill-opacity:1;fill-rule:nonzero;stroke:none" transform="translate(282.988 169.021)"/><path d="m0 0 9.66 5.613 7.466 3.994-9.66-5.614Z" style="fill:#0b0b0b;fill-opacity:1;fill-rule:nonzero;stroke:none" transform="translate(284.825 159.657)"/><path d="m0 0 9.66 5.614 4.542-2.622-9.66-5.614Z" style="fill:#ffe259;fill-opacity:1;fill-rule:nonzero;stroke:none" transform="translate(287.749 166.272)"/><path d="m0 0 4.542-2.622-7.466-3.993-4.542 2.622z" style="fill:#ffe259;fill-opacity:1;fill-rule:nonzero;stroke:none" transform="translate(287.749 166.272)"/><path d="m0 0-2.901 1.675 2.91 1.556z" style="fill:#0b0b0a;fill-opacity:1;fill-rule:nonzero;stroke:none" transform="translate(297.028 152.611)"/><path d="m0 0 9.66 5.614-.009-3.231-9.66-5.614Z" style="fill:#0e0e0e;fill-opacity:1;fill-rule:nonzero;stroke:none" transform="translate(297.037 155.843)"/><path d="m0 0 9.66 5.614 2.91 1.557-9.66-5.614Z" style="fill:#0b0b0b;fill-opacity:1;fill-rule:nonzero;stroke:none" transform="translate(294.127 154.286)"/><path d="m0 0 9.661 5.614 7.466 3.993-9.66-5.613Z" style="fill:#9b7600;fill-opacity:1;fill-rule:nonzero;stroke:none" transform="translate(289.585 156.908)"/><path d="m0 0 4.761-2.748-7.467-3.994-4.76 2.749z" style="fill:#0b0b0a;fill-opacity:1;fill-rule:nonzero;stroke:none" transform="translate(292.29 163.65)"/><path d="m0 0 9.66 5.613L9.646.555-.015-5.06Z" style="fill:#ffe259;fill-opacity:1;fill-rule:nonzero;stroke:none" transform="translate(297.051 160.902)"/><path d="m0 0 7.467 3.994-.015-5.059-2.91-1.557Z" style="fill:#ffe259;fill-opacity:1;fill-rule:nonzero;stroke:none" transform="translate(289.585 156.908)"/><path d="m0 0 9.66 5.614 4.761-2.749-9.66-5.613Z" style="fill:#1b1b1a;fill-opacity:1;fill-rule:nonzero;stroke:none" transform="translate(292.29 163.65)"/><path d="m0 0 172.168-99.401-.023-8.291" style="fill:none;stroke:#1c1c1b;stroke-width:.75;stroke-linecap:round;stroke-linejoin:round;stroke-miterlimit:10;stroke-dasharray:none;stroke-opacity:1" transform="translate(124.883 260.303)"/><path d="M0 0c2.896-1.673 2.912-4.407.038-6.077l-29.322-17.04c-2.873-1.67-7.594-1.67-10.49.003l-29.51 17.037c-2.893 1.67-2.908 4.404-.034 6.074l29.322 17.04c2.874 1.67 7.594 1.67 10.486 0z" style="fill:#ff4c4c;fill-opacity:1;fill-rule:nonzero;stroke:none" transform="translate(427.077 104.292)"/><path d="M0 0c2.019-1.165 2.029-3.053.026-4.217-2.005-1.165-5.264-1.165-7.283 0C-9.272-3.053-9.283-1.165-7.278 0-5.275 1.164-2.016 1.164 0 0" style="fill:#ff4c4c;fill-opacity:1;fill-rule:nonzero;stroke:none" transform="translate(395.63 155.03)"/><path d="M0 0c8.575-4.951 8.62-12.98.101-17.931-8.52-4.951-22.381-4.951-30.956 0-8.576 4.951-8.621 12.98-.101 17.931C-22.437 4.951-8.575 4.951 0 0" style="fill:#ff4c4c;fill-opacity:1;fill-rule:nonzero;stroke:none" transform="translate(407.427 110.907)"/><path d="m0 0-3.539 10.771h-10.188L-17.33-.141c2.075-.935 4.841-1.628 8.497-1.628C-4.976-1.769-2.106-1.005 0 0" style="fill:#ff4c4c;fill-opacity:1;fill-rule:nonzero;stroke:none" transform="translate(400.69 142.762)"/><path d="m0 0-1.711-5.179h43.752L40.288.156c-4.796-2.761-11.371-4.891-20.279-4.891C11.269-4.735 4.772-2.686 0 0" style="fill:#ff4c4c;fill-opacity:1;fill-rule:nonzero;stroke:none" transform="translate(371.847 107.763)"/><path d="m0 0-5.169 15.734c-3.14-1.315-7.06-2.213-11.935-2.213-4.711 0-8.529.838-11.614 2.081L-33.924-.161c3.492-2.384 8.837-4.506 16.82-4.506C-8.885-4.667-3.474-2.444 0 0" style="fill:#ff4c4c;fill-opacity:1;fill-rule:nonzero;stroke:none" transform="translate(408.96 117.584)"/><path d="m0 0-3.103 9.444c-2.106-1.005-4.975-1.768-8.833-1.768-3.656 0-6.421.692-8.497 1.628l-3.116-9.437c3.085-1.242 6.903-2.081 11.613-2.081C-7.06-2.214-3.14-1.315 0 0" style="fill:#fff;fill-opacity:1;fill-rule:nonzero;stroke:none" transform="translate(403.792 133.318)"/><path d="M0 0c-7.982 0-13.327 2.122-16.819 4.506l-3.19-9.659C-15.236-7.839-8.74-9.889 0-9.889c8.908 0 15.483 2.13 20.279 4.892l-3.175 9.664C13.631 2.223 8.22 0 0 0" style="fill:#fff;fill-opacity:1;fill-rule:nonzero;stroke:none" transform="translate(391.856 112.917)"/><path d="m0 0-3.639-12.205c.245-3.059 2.393-6.079 6.438-8.414 8.575-4.951 22.436-4.951 30.956 0 3.959 2.301 6.068 5.265 6.332 8.278L36.336.492" style="fill:none;stroke:#1c1c1b;stroke-width:.75;stroke-linecap:round;stroke-linejoin:miter;stroke-miterlimit:10;stroke-dasharray:none;stroke-opacity:1" transform="translate(373.773 113.595)"/><path d="M0 0c2.896-1.673 2.912-4.407.038-6.077l-29.322-17.04c-2.874-1.67-7.594-1.67-10.49.002L-69.285-6.077c-2.892 1.67-2.907 4.404-.034 6.074l29.322 17.04c2.874 1.67 7.594 1.67 10.487 0z" style="fill:#ff4c4c;fill-opacity:1;fill-rule:nonzero;stroke:none" transform="translate(224.295 101.42)"/><path d="M0 0c2.018-1.165 2.029-3.053.026-4.217-2.005-1.165-5.265-1.165-7.283 0C-9.273-3.053-9.284-1.165-7.279 0-5.276 1.164-2.016 1.164 0 0" style="fill:#ff4c4c;fill-opacity:1;fill-rule:nonzero;stroke:none" transform="translate(192.847 152.16)"/><path d="M0 0c8.575-4.951 8.62-12.98.101-17.931-8.519-4.951-22.381-4.951-30.956-.001C-39.43-12.98-39.476-4.951-30.956 0-22.437 4.95-8.575 4.95 0 0" style="fill:#ff4c4c;fill-opacity:1;fill-rule:nonzero;stroke:none" transform="translate(204.645 108.036)"/><path d="m0 0-3.539 10.771h-10.187L-17.33-.141c2.076-.935 4.841-1.628 8.497-1.628C-4.975-1.769-2.106-1.005 0 0" style="fill:#ff4c4c;fill-opacity:1;fill-rule:nonzero;stroke:none" transform="translate(197.906 139.891)"/><path d="m0 0-1.71-5.179h43.751L40.289.156c-4.797-2.761-11.372-4.891-20.28-4.891C11.269-4.735 4.772-2.686 0 0" style="fill:#ff4c4c;fill-opacity:1;fill-rule:nonzero;stroke:none" transform="translate(169.065 104.892)"/><path d="m0 0-5.169 15.734c-3.139-1.315-7.059-2.213-11.935-2.213-4.711 0-8.529.838-11.614 2.081L-33.923-.161c3.492-2.384 8.836-4.506 16.819-4.506C-8.884-4.667-3.473-2.444 0 0" style="fill:#ff4c4c;fill-opacity:1;fill-rule:nonzero;stroke:none" transform="translate(206.178 114.713)"/><path d="m0 0-3.103 9.444c-2.105-1.005-4.975-1.768-8.833-1.768-3.655 0-6.421.692-8.496 1.628l-3.117-9.437c3.085-1.242 6.903-2.081 11.613-2.081C-7.059-2.214-3.139-1.315 0 0" style="fill:#fff;fill-opacity:1;fill-rule:nonzero;stroke:none" transform="translate(201.009 130.447)"/><path d="M0 0c-7.982 0-13.327 2.122-16.819 4.506l-3.19-9.659C-15.236-7.839-8.74-9.889 0-9.889c8.908 0 15.483 2.13 20.28 4.892l-3.176 9.664C13.631 2.223 8.22 0 0 0" style="fill:#fff;fill-opacity:1;fill-rule:nonzero;stroke:none" transform="translate(189.073 110.046)"/><path d="m0 0-3.662-11.654c.018-3.245 2.174-6.491 6.461-8.966 8.575-4.95 22.437-4.95 30.956.001 3.959 2.301 6.069 5.265 6.332 8.278L36.336.492" style="fill:none;stroke:#1c1c1b;stroke-width:.75;stroke-linecap:round;stroke-linejoin:miter;stroke-miterlimit:10;stroke-dasharray:none;stroke-opacity:1" transform="translate(170.99 110.724)"/><path d="M0 0c2.193-1.266 2.204-3.335.029-4.599l-22.195-12.899c-2.175-1.264-5.748-1.264-7.941.002L-52.444-4.6c-2.19 1.265-2.202 3.334-.026 4.598l22.195 12.898c2.175 1.265 5.748 1.265 7.938 0z" style="fill:#ff4c4c;fill-opacity:1;fill-rule:nonzero;stroke:none" transform="translate(128.174 309.491)"/><path d="M0 0c1.528-.882 1.536-2.311.02-3.192-1.518-.882-3.985-.882-5.513 0-1.526.88-1.534 2.31-.016 3.192C-3.993.881-1.526.881 0 0" style="fill:#ff4c4c;fill-opacity:1;fill-rule:nonzero;stroke:none" transform="translate(104.37 347.9)"/><path d="M0 0c6.491-3.748 6.525-9.825.076-13.573-6.449-3.747-16.941-3.747-23.432 0-6.491 3.748-6.525 9.825-.076 13.573C-16.983 3.748-6.491 3.748 0 0" style="fill:#ff4c4c;fill-opacity:1;fill-rule:nonzero;stroke:none" transform="translate(113.3 314.5)"/><path d="m0 0-2.678 8.153h-7.712l-2.728-8.259c1.572-.708 3.665-1.233 6.432-1.233C-3.766-1.339-1.594-.761 0 0" style="fill:#ff4c4c;fill-opacity:1;fill-rule:nonzero;stroke:none" transform="translate(108.2 338.612)"/><path d="m0 0-1.295-3.92h33.118L30.496.118c-3.63-2.09-8.608-3.702-15.35-3.702C8.53-3.584 3.612-2.033 0 0" style="fill:#ff4c4c;fill-opacity:1;fill-rule:nonzero;stroke:none" transform="translate(86.368 312.12)"/><path d="m0 0-3.913 11.91c-2.376-.996-5.343-1.676-9.034-1.676-3.566 0-6.456.635-8.791 1.576l-3.94-11.933c2.643-1.804 6.689-3.41 12.731-3.41C-6.725-3.533-2.629-1.851 0 0" style="fill:#ff4c4c;fill-opacity:1;fill-rule:nonzero;stroke:none" transform="translate(114.461 319.553)"/><path d="m0 0-2.349 7.148c-1.594-.76-3.765-1.338-6.686-1.338-2.767 0-4.86.524-6.431 1.232l-2.359-7.143c2.335-.941 5.225-1.575 8.79-1.575C-5.343-1.676-2.376-.996 0 0" style="fill:#fff;fill-opacity:1;fill-rule:nonzero;stroke:none" transform="translate(110.549 331.464)"/><path d="M0 0c-6.042 0-10.087 1.606-12.731 3.41l-2.415-7.311C-11.533-5.934-6.616-7.485 0-7.485c6.743 0 11.72 1.612 15.351 3.702l-2.404 7.316C10.318 1.682 6.222 0 0 0" style="fill:#fff;fill-opacity:1;fill-rule:nonzero;stroke:none" transform="translate(101.514 316.02)"/><path d="m0 0-2.754-8.334c-.213-2.617 1.412-5.276 4.872-7.274 6.491-3.747 16.984-3.747 23.432 0 2.997 1.742 4.594 3.986 4.793 6.267L27.626 0" style="fill:none;stroke:#1c1c1b;stroke-width:.75;stroke-linecap:round;stroke-linejoin:round;stroke-miterlimit:10;stroke-dasharray:none;stroke-opacity:1" transform="translate(87.826 316.534)"/></g></g></svg>